<?xml version="1.0" encoding="UTF-8"?>
<svg id="Layer_1" data-name="Layer 1" xmlns="http://www.w3.org/2000/svg" viewBox="0 0 350 338.24">
  <path d="M335.34,0h-114.14c-3.96,0-7.78,1.62-10.48,4.44-2.65,2.77-4.03,6.41-3.88,10.27V81.22c0,8.08,6.58,14.66,14.66,14.66h59.73l23.82,23.82c2.58,2.58,6.12,4.06,9.72,4.06,1.76,0,3.53-.35,5.27-1.05l.09-.04c5.12-2.29,8.42-7.33,8.42-12.84v-14.1h6.8c8.08,0,14.66-6.58,14.66-14.66V14.66C350,6.58,343.42,0,335.34,0Zm1.11,81.07c0,.58-.53,1.11-1.11,1.11h-13.72c-3.74,0-6.78,3.04-6.78,6.78v20.87c0,.1-.01,.17-.06,.23-.11,.03-.24,.07-.26,.07,0,0-.04-.02-.12-.1l-25.77-25.77c-1.15-1.32-2.91-2.08-4.83-2.08h-62.62c-.57,0-1.11-.54-1.11-1.1V14.66c0-.58,.53-1.11,1.1-1.11h114.14c.57,0,1.11,.54,1.11,1.11V81.07Z" fill="#0174ad"/>
  <path d="M305.42,36.64h11.68c2.93,0,5.32,2.38,5.32,5.32v11.68c0,2.93-2.38,5.32-5.32,5.32h-11.68c-2.93,0-5.32-2.38-5.32-5.32v-11.68c0-2.93,2.38-5.32,5.32-5.32Z" fill="#0174ad"/>
  <path d="M284.11,36.64h-11.68c-1.42,0-2.75,.55-3.76,1.56-1.01,1.01-1.56,2.34-1.56,3.76v11.68c0,2.93,2.39,5.32,5.32,5.32h11.68c2.93,0,5.32-2.39,5.32-5.32v-11.68c0-2.93-2.39-5.32-5.32-5.32Z" fill="#0174ad"/>
  <path d="M251.12,36.64h-11.68c-1.56,0-3.02,.63-4.02,1.73-.93,1.01-1.38,2.32-1.29,3.68v11.59c0,2.93,2.39,5.32,5.32,5.32h11.68c2.93,0,5.32-2.39,5.32-5.32v-11.68c0-2.93-2.39-5.32-5.32-5.32Z" fill="#0174ad"/>
  <path d="M128.8,214.49H14.66c-8.08,0-14.66,6.58-14.66,14.66v66.41c0,8.08,6.58,14.66,14.66,14.66h6.8v14.1c0,5.51,3.31,10.55,8.42,12.84l.09,.04c1.74,.69,3.51,1.05,5.27,1.05,3.6,0,7.14-1.48,9.72-4.06l23.82-23.82h59.73c8.08,0,14.66-6.58,14.66-14.66v-66.51c.15-3.85-1.23-7.5-3.88-10.27-2.7-2.82-6.53-4.44-10.48-4.44ZM28.38,296.67H14.66c-.58,0-1.11-.53-1.11-1.11v-66.41c0-.57,.54-1.11,1.11-1.11h114.14c.57,0,1.11,.54,1.11,1.11v66.41c0,.58-.53,1.11-1.11,1.11h-62.62c-1.92,0-3.67,.76-4.83,2.08l-25.77,25.77s-.08,.07-.09,.08c-.06,0-.18-.03-.28-.06-.05-.05-.06-.13-.06-.23v-20.87c0-3.74-3.04-6.78-6.78-6.78Z" fill="#0174ad"/>
  <rect x="27.59" y="251.13" width="22.31" height="22.31" rx="5.32" ry="5.32" fill="#0174ad"/>
  <path d="M65.89,273.44h11.68c2.93,0,5.32-2.39,5.32-5.32v-11.68c0-1.42-.55-2.75-1.56-3.76s-2.34-1.56-3.76-1.56h-11.68c-2.93,0-5.32,2.39-5.32,5.32v11.68c0,2.93,2.38,5.32,5.32,5.32Z" fill="#0174ad"/>
  <path d="M98.88,273.44h11.68c2.93,0,5.32-2.39,5.32-5.32v-11.59c.09-1.36-.37-2.67-1.29-3.68-1-1.1-2.47-1.73-4.02-1.73h-11.68c-2.93,0-5.32,2.39-5.32,5.32v11.68c0,2.93,2.38,5.32,5.32,5.32Z" fill="#0174ad"/>
  <path d="M309.54,135.89l-33.5,75.61,11.31,1.77c-13.22,24.39-34.67,43.64-60.73,53.99-16.39,6.52-33.56,9.28-51.01,8.25l-2.39-.14-.82,13.76,2.39,.14c2.66,.16,5.34,.24,7.98,.24,16.73,0,33.19-3.17,48.94-9.44,30.6-12.16,55.51-35.3,70-64.56l16.62,2.6-8.8-82.23Z" fill="#0174ad"/>
  <path d="M176.13,49.87l-2.01-13.64-2.37,.35c-10.16,1.5-20.2,4.2-29.84,8.03-19.73,7.84-36.79,19.85-50.7,35.7-10.21,11.62-18.37,25.12-24.01,39.58l-16.8-1.13,16.02,81.13,26.7-78.27-11.46-.77c12.4-28.92,35.54-51.59,65.35-63.44,8.64-3.44,17.64-5.86,26.75-7.2l2.37-.35Z" fill="#0174ad"/>
</svg>