<?xml version="1.0" encoding="UTF-8"?>
<svg id="Layer_1" data-name="Layer 1" xmlns="http://www.w3.org/2000/svg" viewBox="0 0 360 358.99">
  <path d="M190.6,112.18l-18.87,58.08c-1,3.09,.11,6.48,2.73,8.38,1.32,.96,2.87,1.44,4.41,1.44s3.09-.48,4.41-1.44l49.39-35.89,49.39,35.89c2.64,1.91,6.18,1.91,8.82,0,2.64-1.91,3.73-5.3,2.73-8.38l-18.87-58.08,49.39-35.89c2.64-1.91,3.73-5.3,2.73-8.38-1-3.09-3.88-5.19-7.14-5.19h-61.06L239.79,4.63c-2.01-6.18-12.25-6.18-14.26,0l-18.87,58.08h-61.06c-3.25,0-6.13,2.1-7.14,5.19-1,3.09,.11,6.48,2.73,8.38l49.41,35.89Zm21.52-34.44c3.25,0,6.13-2.1,7.14-5.19l13.42-41.31,13.42,41.31c1,3.09,3.88,5.19,7.14,5.19h43.42l-35.13,25.51c-2.64,1.91-3.73,5.3-2.73,8.38l13.42,41.32-35.14-25.53c-1.32-.96-2.87-1.44-4.41-1.44s-3.09,.48-4.42,1.44l-35.13,25.51,13.42-41.31c1-3.09-.11-6.48-2.73-8.38l-35.13-25.51h43.43Zm147.1,210.89c-10.42-20.83-33.49-31.42-56.07-25.8l-48.61,12.15c-2.16-18.73-13.24-29.79-35.44-35.34l-130.07-28.9c.4-2.85,.72-5.58,.94-8.12,.2-2.28-.65-4.53-2.31-6.1-12.85-12.18-64.26-16.11-79.7-17.04-2.13-.12-4.1,.62-5.59,2.02-1.5,1.41-2.36,3.39-2.36,5.46v134.99c0,4.14,3.36,7.5,7.5,7.5H52.5c3.24,0,6.12-2.08,7.12-5.18,.2-.6,1.22-3.75,2.76-8.63l107.47,35.82c12.6,4.76,21.3,7.52,31.08,7.52,15.19,0,33.01-6.66,72.19-22.68l82.49-37.5c1.85-.84,3.28-2.4,3.96-4.32,.68-1.92,.56-4.05-.36-5.86h0Zm-312.19,25.83H14.99v-119.46c24.1,1.91,50.13,6.04,59.58,10.63-3.97,32.85-21.96,91.2-27.54,108.82h0Zm220.13,8.07c-63.09,25.86-65.26,25.06-92.28,14.82l-108.08-36.03c6.16-20.41,14.76-50.68,19.68-75.78l129.17,28.71c16.6,4.14,23.29,10.69,24.21,24.39l-14.4,3.59c-5.34,1.35-11.02,1.5-16.44,.4l-65.07-13.02c-4.05-.83-8.01,1.83-8.82,5.9-.81,4.07,1.82,8.01,5.88,8.82l65.08,13.02c3.37,.68,6.82,1,10.26,1,4.3,0,8.63-.52,12.76-1.57l20.11-5.02h.09l57.46-14.37c13.16-3.24,26.46,1.32,34.72,11.35l-74.35,33.79Z" fill="#0174ad"/>
</svg>