<?xml version="1.0" encoding="UTF-8"?>
<svg id="Layer_1" data-name="Layer 1" xmlns="http://www.w3.org/2000/svg" viewBox="0 0 350 332.44">
  <path d="M284.66,236.63c-13.56,21.05-32.72,37.68-55.4,48.1l-1.42,.65v13.74l3.39-1.46c27.58-11.84,51.25-32.61,66.67-58.48l2.19-3.68h-14.73l-.72,1.11Z" fill="#0174ad"/>
  <path d="M65.34,236.63l-.72-1.11h-14.72l2.19,3.68c15.42,25.87,39.09,46.64,66.67,58.48l3.39,1.46v-13.74l-1.42-.65c-22.69-10.43-41.84-27.07-55.4-48.11Z" fill="#0174ad"/>
  <path d="M284.66,95.8l.72,1.12h14.73l-2.19-3.68c-15.42-25.87-39.09-46.64-66.67-58.48l-3.39-1.46v13.74l1.42,.65c22.68,10.42,41.84,27.06,55.4,48.1Z" fill="#0174ad"/>
  <path d="M65.34,95.8c13.56-21.04,32.72-37.68,55.4-48.1l1.42-.65v-13.74l-3.39,1.46c-27.58,11.84-51.26,32.61-66.67,58.48l-2.19,3.68h14.72l.72-1.12Z" fill="#0174ad"/>
  <path d="M172.8,57.47h4.41c13.38,0,24.27-10.89,24.27-24.27v-8.92c0-13.38-10.89-24.27-24.27-24.27h-4.41c-13.38,0-24.27,10.89-24.27,24.27v8.92c0,13.38,10.89,24.27,24.27,24.27Zm-11.67-33.2c0-6.43,5.23-11.67,11.67-11.67h4.41c6.43,0,11.67,5.23,11.67,11.67v8.92c0,6.43-5.23,11.67-11.67,11.67h-4.42c-3.11,0-6.03-1.21-8.24-3.42s-3.42-5.14-3.42-8.25v-8.92Z" fill="#0174ad"/>
  <path d="M184.91,58.59h-19.81c-15.82,0-28.83,12.37-29.61,28.21l-.04,21.69h79.12v-20.25c0-16.35-13.3-29.65-29.65-29.65Zm17.05,37.29h-53.91v-7.64c0-9.4,7.65-17.05,17.05-17.05h19.81c9.4,0,17.05,7.65,17.05,17.05v7.64Z" fill="#0174ad"/>
  <path d="M177.2,281.42c13.38,0,24.27-10.89,24.27-24.27v-8.92c0-3.97-.99-7.92-2.86-11.42-4.24-7.93-12.45-12.85-21.41-12.85h-4.41c-8.96,0-17.16,4.92-21.41,12.85-1.87,3.49-2.86,7.44-2.86,11.42v8.92c0,13.38,10.89,24.27,24.27,24.27h4.41Zm-16.07-24.27v-8.92c0-6.43,5.23-11.67,11.67-11.67h4.41c6.43,0,11.67,5.23,11.67,11.67v8.92c0,6.43-5.23,11.67-11.67,11.67h-4.41c-6.43,0-11.67-5.23-11.67-11.67Z" fill="#0174ad"/>
  <path d="M184.91,282.54h-19.81c-16.35,0-29.65,13.3-29.65,29.65v20.25h79.12v-20.25c0-16.35-13.3-29.65-29.65-29.65Zm17.05,37.3h-53.91v-7.64c0-9.4,7.65-17.05,17.05-17.05h19.81c9.4,0,17.05,7.65,17.05,17.05v7.64Z" fill="#0174ad"/>
  <path d="M37.35,169.44h4.41c13.38,0,24.27-10.89,24.27-24.27v-8.92c0-13.38-10.89-24.27-24.27-24.27h-4.41c-13.38,0-24.27,10.89-24.27,24.27v8.92c0,13.38,10.89,24.27,24.27,24.27Zm-11.67-33.19c0-6.43,5.23-11.67,11.67-11.67h4.41c6.43,0,11.67,5.23,11.67,11.67v8.92c0,6.43-5.23,11.67-11.67,11.67h-4.41c-6.43,0-11.67-5.23-11.67-11.67v-8.92Z" fill="#0174ad"/>
  <path d="M79.11,200.22c0-16.35-13.3-29.65-29.65-29.65H29.65c-16.35,0-29.65,13.31-29.65,29.65v20.24H79.12v-20.24Zm-12.61,7.64H12.6v-7.64c0-9.4,7.65-17.05,17.05-17.05h19.81c9.4,0,17.05,7.65,17.05,17.05v7.64Z" fill="#0174ad"/>
  <path d="M283.97,136.24v8.92c0,13.38,10.89,24.27,24.27,24.27h4.4c13.38,0,24.27-10.89,24.27-24.27v-8.92c0-13.38-10.89-24.27-24.27-24.27h-4.4c-13.38,0-24.27,10.89-24.27,24.27Zm12.6,0c0-6.43,5.23-11.67,11.67-11.67h4.4c6.43,0,11.67,5.23,11.67,11.67v8.92c0,6.43-5.23,11.67-11.67,11.67h-4.4c-6.43,0-11.67-5.23-11.67-11.67v-8.92Z" fill="#0174ad"/>
  <path d="M320.35,170.56h-19.81c-16.35,0-29.65,13.3-29.65,29.65v20.24h79.12v-20.25c0-16.35-13.3-29.65-29.65-29.65Zm17.05,37.29h-53.91v-7.64c0-9.4,7.65-17.05,17.05-17.05h19.81c9.4,0,17.05,7.65,17.05,17.05v7.64Z" fill="#0174ad"/>
</svg>