<?xml version="1.0" encoding="utf-8"?>
<!-- Generator: Adobe Illustrator 26.5.0, SVG Export Plug-In . SVG Version: 6.00 Build 0)  -->
<svg version="1.1" xmlns="http://www.w3.org/2000/svg" xmlns:xlink="http://www.w3.org/1999/xlink" x="0px" y="0px"
	 viewBox="0 0 1280 720" style="enable-background:new 0 0 1280 720;" xml:space="preserve">
<style type="text/css">
	.st0{fill-rule:evenodd;clip-rule:evenodd;fill:#FD8D3D;}
	.st1{fill-rule:evenodd;clip-rule:evenodd;fill:#F96702;}
	.st2{fill-rule:evenodd;clip-rule:evenodd;fill:#FFFFFF;}
	.st3{fill:#FFFFFF;}
	.st4{fill-rule:evenodd;clip-rule:evenodd;fill:#FFFFFF;stroke:#FFFFFF;stroke-miterlimit:10;}
	.st5{fill:#CC5A0D;}
	.st6{fill:#E58848;}
	.st7{fill:#797C8C;}
	.st8{fill:#A3A7C1;}
	.st9{fill:#5F00BA;}
	.st10{fill:#D1835D;stroke:#000000;stroke-miterlimit:10;}
	.st11{fill:#8F00FF;}
	.st12{fill:#4702B2;}
	.st13{fill:#2C00B5;}
	.st14{fill:#0000B2;}
	.st15{fill:#6F00FF;}
	.st16{fill:#4A00FF;}
	.st17{fill:#0000FF;}
	.st18{fill:#0037BF;}
	.st19{fill:#003DFF;}
	.st20{fill:#0067BC;}
	.st21{fill:#004CBA;}
	.st22{fill:#0080FF;}
	.st23{fill:#0062FF;}
	.st24{fill:#007FC6;}
	.st25{fill:#0098FF;}
	.st26{display:none;fill:#C66738;}
	.st27{fill:#F48D53;}
	.st28{fill:#0174AD;}
	.st29{fill:#039AD6;}
	.st30{fill:#0C86BC;}
	.st31{fill:#03A5DD;}
	.st32{fill:#1897CB;}
	.st33{fill:#00ADE2;}
	.st34{fill:#23A9DA;}
	.st35{fill:#03B9EA;}
	.st36{fill:#15B9E5;}
	.st37{fill:#00C0F4;}
	.st38{fill:none;}
	.st39{font-family:'Montserrat-Bold';}
	.st40{font-size:20px;}
	.st41{font-family:'Montserrat-Regular';}
	.st42{fill:#212526;}
	.st43{fill:none;stroke:#212526;stroke-miterlimit:10;}
</style>
<g id="Infografico1">
	
		<g id="intrassetorialidade-button__x5B_data-name_x3D__x22_intrassetorialidade_x22__x5D__00000094575713171932944330000000489403646541370272_">
		<g id="class_x3D__x22_background_x22__00000153705608981108340350000008531036152194710705_">
			<polygon class="st0" points="-2795.5,515.8 -2795.5,644.2 -2684.5,708.5 -2573.5,644.2 -2573.5,515.8 -2684.5,451.5 			"/>
			<polygon class="st1" points="-2795.5,644.2 -2684.5,708.5 -2573.5,644.2 -2573.5,515.8 			"/>
		</g>
		<g id="content_00000040547729088945467980000010725237893892795325_">
			<path class="st2" d="M-2676.3,519.8l-1.6-1.3l-1.3,1.6l-13,16.2l-1.3,1.6l1.6,1.3l16.2,13l1.6,1.3l1.3-1.6l13-16.2l1.3-1.6
				l-1.6-1.3L-2676.3,519.8z M-2687.8,537.3l10.5-13.1l13.1,10.5l-10.5,13.1L-2687.8,537.3z M-2649.8,526.5l1.6,1.3l8.4,6.7
				c5.2,4.2,6,11.7,1.8,16.9l-6.7,8.4l-1.3,1.6l-1.6-1.3l-16.2-13l-1.6-1.3l1.3-1.6l13-16.2L-2649.8,526.5z M-2649.2,532.1
				l-10.5,13.1l13.1,10.5l5.5-6.8c2.8-3.4,2.2-8.5-1.2-11.2L-2649.2,532.1z M-2723.9,546.3c-6.6,0-12,5.4-12,12v8.8v2v2v16.8v2v2
				v8.8c0,6.6,5.4,12,12,12h8.8h2h2h16.8h2h2h16.8h2h2h8.8c6.6,0,12-5.4,12-12v-10.8v-2h-2h-18.8h-2h-2h-16.8V571v-2v-2v-18.8v-2h-2
				h-18.8h-2h-2H-2723.9z M-2673.6,591.8h-16.8v16.8h16.8V591.8z M-2669.6,591.8v16.8h8.8c4.4,0,8-3.6,8-8v-8.8H-2669.6z
				 M-2694.4,591.8v16.8h-16.8v-16.8H-2694.4z M-2694.4,571v16.8h-16.8V571H-2694.4z M-2715.2,587.8V571h-16.8v16.8H-2715.2z
				 M-2715.2,608.6v-16.8h-16.8v8.8c0,4.4,3.6,8,8,8H-2715.2z M-2694.4,567v-16.8h-16.8V567H-2694.4z M-2715.2,567v-16.8h-8.8
				c-4.4,0-8,3.6-8,8v8.8H-2715.2z M-2685.8,557.9h2h20.8h2v2v20.8v2h-2h-20.8h-2v-2v-20.8V557.9z M-2681.8,561.9v16.8h16.8v-16.8
				H-2681.8z M-2657,561.5h-2v2v20.8v2h2h20.8h2v-2v-20.8v-2h-2H-2657z M-2655,582.3v-16.8h16.8v16.8H-2655z"/>
			<path class="st3" d="M-2779.7,644.3h2.6v-14h-2.6V644.3z M-2767.4,633.5c-1.6,0-2.9,0.5-3.7,1.5v-1.4h-2.4v10.7h2.5v-5.4
				c0-2.1,1.2-3.2,3-3.2c1.6,0,2.5,0.9,2.5,2.8v5.8h2.5v-6.1C-2763,634.9-2764.9,633.5-2767.4,633.5z M-2754.1,641.9
				c-0.4,0.3-0.9,0.4-1.4,0.4c-1,0-1.5-0.6-1.5-1.6v-5.1h2.9v-2h-2.9v-2.4h-2.5v2.4h-1.8v2h1.8v5.1c0,2.4,1.3,3.6,3.7,3.6
				c0.9,0,1.8-0.2,2.4-0.7L-2754.1,641.9z M-2749,635.2v-1.6h-2.4v10.7h2.5v-5.2c0-2.2,1.2-3.3,3.1-3.3c0.2,0,0.4,0,0.6,0.1v-2.4
				C-2746.9,633.5-2748.2,634-2749,635.2z M-2739,633.5c-1.7,0-3.4,0.4-4.5,1.3l1,1.8c0.8-0.7,2-1.1,3.2-1.1c1.8,0,2.7,0.9,2.7,2.3
				v0.2h-2.8c-3.2,0-4.4,1.4-4.4,3.2c0,1.9,1.5,3.2,4,3.2c1.6,0,2.8-0.5,3.4-1.4v1.3h2.4V638C-2734.2,634.9-2735.9,633.5-2739,633.5
				z M-2739.4,642.6c-1.3,0-2-0.6-2-1.5c0-0.8,0.5-1.4,2.2-1.4h2.6v1.2C-2737.1,642-2738.1,642.6-2739.4,642.6z M-2727.6,644.4
				c3,0,4.8-1.3,4.8-3.3c0-4.2-6.6-2.3-6.6-4.4c0-0.7,0.7-1.2,2.2-1.2c1,0,2,0.2,3.1,0.8l1-1.9c-1-0.6-2.6-0.9-4-0.9
				c-2.9,0-4.7,1.3-4.7,3.3c0,4.3,6.6,2.3,6.6,4.4c0,0.7-0.7,1.2-2.2,1.2c-1.3,0-2.8-0.4-3.7-1.1l-1,1.9
				C-2731.2,643.9-2729.4,644.4-2727.6,644.4z M-2717.4,644.4c3,0,4.8-1.3,4.8-3.3c0-4.2-6.6-2.3-6.6-4.4c0-0.7,0.7-1.2,2.2-1.2
				c1,0,2,0.2,3.1,0.8l1-1.9c-1-0.6-2.6-0.9-4-0.9c-2.9,0-4.7,1.3-4.7,3.3c0,4.3,6.6,2.3,6.6,4.4c0,0.7-0.7,1.2-2.2,1.2
				c-1.3,0-2.8-0.4-3.7-1.1l-1,1.9C-2720.9,643.9-2719.1,644.4-2717.4,644.4z M-2700.3,639c0-3.3-2.3-5.5-5.4-5.5
				c-3.2,0-5.5,2.3-5.5,5.5c0,3.2,2.3,5.5,5.9,5.5c1.8,0,3.3-0.6,4.3-1.7l-1.3-1.5c-0.8,0.8-1.7,1.2-2.9,1.2c-1.9,0-3.2-1-3.5-2.6
				h8.4C-2700.3,639.5-2700.3,639.2-2700.3,639z M-2705.7,635.5c1.6,0,2.8,1.1,3,2.6h-6.1C-2708.5,636.5-2707.3,635.5-2705.7,635.5z
				 M-2692.2,641.9c-0.4,0.3-0.9,0.4-1.4,0.4c-1,0-1.5-0.6-1.5-1.6v-5.1h2.9v-2h-2.9v-2.4h-2.5v2.4h-1.8v2h1.8v5.1
				c0,2.4,1.3,3.6,3.7,3.6c0.9,0,1.8-0.2,2.4-0.7L-2692.2,641.9z M-2685,644.4c3.3,0,5.7-2.3,5.7-5.5c0-3.2-2.4-5.5-5.7-5.5
				c-3.3,0-5.7,2.3-5.7,5.5C-2690.7,642.1-2688.3,644.4-2685,644.4z M-2685,642.3c-1.8,0-3.2-1.3-3.2-3.3c0-2,1.4-3.3,3.2-3.3
				c1.8,0,3.2,1.3,3.2,3.3C-2681.8,641-2683.2,642.3-2685,642.3z M-2674.5,635.2v-1.6h-2.4v10.7h2.5v-5.2c0-2.2,1.2-3.3,3.1-3.3
				c0.2,0,0.4,0,0.6,0.1v-2.4C-2672.5,633.5-2673.8,634-2674.5,635.2z M-2667.3,631.8c0.9,0,1.6-0.7,1.6-1.6c0-0.8-0.7-1.4-1.6-1.4
				s-1.6,0.7-1.6,1.5S-2668.3,631.8-2667.3,631.8z M-2668.6,644.3h2.5v-10.7h-2.5V644.3z M-2658.7,633.5c-1.7,0-3.4,0.4-4.5,1.3
				l1,1.8c0.8-0.7,2-1.1,3.2-1.1c1.8,0,2.7,0.9,2.7,2.3v0.2h-2.8c-3.2,0-4.4,1.4-4.4,3.2c0,1.9,1.5,3.2,4,3.2c1.6,0,2.8-0.5,3.4-1.4
				v1.3h2.4V638C-2653.9,634.9-2655.7,633.5-2658.7,633.5z M-2659.1,642.6c-1.3,0-2-0.6-2-1.5c0-0.8,0.5-1.4,2.2-1.4h2.6v1.2
				C-2656.8,642-2657.9,642.6-2659.1,642.6z M-2650.7,644.3h2.5v-14.8h-2.5V644.3z M-2643.6,631.8c0.9,0,1.6-0.7,1.6-1.6
				c0-0.8-0.7-1.4-1.6-1.4c-0.9,0-1.6,0.7-1.6,1.5S-2644.6,631.8-2643.6,631.8z M-2644.9,644.3h2.5v-10.7h-2.5V644.3z
				 M-2631.2,629.4v5.5c-0.8-1-2.1-1.4-3.4-1.4c-3.1,0-5.4,2.1-5.4,5.5c0,3.3,2.3,5.5,5.4,5.5c1.5,0,2.7-0.5,3.5-1.5v1.4h2.4v-14.8
				H-2631.2z M-2634.3,642.3c-1.8,0-3.2-1.3-3.2-3.3c0-2,1.4-3.3,3.2-3.3s3.2,1.3,3.2,3.3C-2631.1,641-2632.5,642.3-2634.3,642.3z
				 M-2621.3,633.5c-1.7,0-3.4,0.4-4.5,1.3l1,1.8c0.8-0.7,2-1.1,3.2-1.1c1.8,0,2.7,0.9,2.7,2.3v0.2h-2.8c-3.2,0-4.4,1.4-4.4,3.2
				c0,1.9,1.5,3.2,4,3.2c1.6,0,2.8-0.5,3.4-1.4v1.3h2.4V638C-2616.4,634.9-2618.2,633.5-2621.3,633.5z M-2621.6,642.6
				c-1.3,0-2-0.6-2-1.5c0-0.8,0.5-1.4,2.2-1.4h2.6v1.2C-2619.4,642-2620.4,642.6-2621.6,642.6z M-2605.2,629.4v5.5
				c-0.8-1-2.1-1.4-3.4-1.4c-3.1,0-5.4,2.1-5.4,5.5c0,3.3,2.3,5.5,5.4,5.5c1.5,0,2.7-0.5,3.5-1.5v1.4h2.4v-14.8H-2605.2z
				 M-2608.3,642.3c-1.8,0-3.2-1.3-3.2-3.3c0-2,1.4-3.3,3.2-3.3s3.2,1.3,3.2,3.3C-2605.1,641-2606.5,642.3-2608.3,642.3z
				 M-2589.4,639c0-3.3-2.3-5.5-5.4-5.5c-3.2,0-5.5,2.3-5.5,5.5c0,3.2,2.3,5.5,5.9,5.5c1.8,0,3.3-0.6,4.3-1.7l-1.3-1.5
				c-0.8,0.8-1.7,1.2-2.9,1.2c-1.9,0-3.2-1-3.5-2.6h8.4C-2589.4,639.5-2589.4,639.2-2589.4,639z M-2594.8,635.5c1.6,0,2.8,1.1,3,2.6
				h-6.1C-2597.6,636.5-2596.4,635.5-2594.8,635.5z"/>
		</g>
	</g>
	<g id="intersetorialidade-button_00000123434237072163414010000000721704831635101319_">
		<g id="background_00000103236344125891807790000017799289304322273459_">
			<polygon class="st0" points="-3055.5,515.8 -3055.5,644.2 -2944.5,708.5 -2833.5,644.2 -2833.5,515.8 -2944.5,451.5 			"/>
			<polygon class="st1" points="-3055.5,644.2 -2944.5,708.5 -2833.5,644.2 -2833.5,515.8 			"/>
		</g>
		<g id="content_00000134972369232133958620000013363004812461675453_">
			<path class="st2" d="M-2953.6,551.2c-0.3-1.6-0.4-3.2-0.4-4.9c0-8.2,3.5-15.6,9-20.8c5.5,5.2,9,12.6,9,20.8
				c0,2.2-0.3,4.4-0.7,6.5c-0.5-1.3-1.8-2.3-3.3-2.3h-11.4C-2952.3,550.5-2953,550.7-2953.6,551.2z M-2940.7,570.4h0.6
				c2,0,3.6-1.6,3.6-3.6v-6.1c0.6-1.2,1.1-2.4,1.6-3.7c7.4,2.9,13.4,9,16.2,16.6c-2.3,0.6-4.7,1-7.2,1
				C-2931.4,574.6-2936.5,573.1-2940.7,570.4z M-2950.7,574.6v14.6c0,1.5,1.2,2.7,2.7,2.7h4.2c1.5,0,2.7-1.2,2.7-2.7v-15.4
				c4.4,2.5,9.5,3.9,14.9,3.9c2.8,0,5.5-0.4,8.1-1.1c0.6,2.2,0.9,4.6,0.9,7c0,15.7-12.6,28.4-28,28.4c-15.4,0-28-12.7-28-28.4
				c0-2.4,0.3-4.8,0.9-7c2.6,0.7,5.3,1.1,8.1,1.1C-2959.3,577.6-2954.7,576.5-2950.7,574.6z M-2950.7,571.2c-4,2.2-8.6,3.5-13.4,3.5
				c-2.5,0-4.9-0.3-7.2-1c2.8-7.6,8.7-13.7,16.2-16.6c0,0.1,0.1,0.1,0.1,0.2v9.6c0,2,1.6,3.6,3.6,3.6h0.9c0,0,0,0.1,0,0.1
				c0,0,0,0.1,0,0.1V571.2z M-2975.1,575.6c-11.7-4.5-20-15.9-20-29.3c0-17.3,13.9-31.4,31-31.4c7.2,0,13.8,2.5,19,6.6
				c5.2-4.1,11.8-6.6,19-6.6c17.1,0,31,14,31,31.4c0,13.4-8.3,24.9-20,29.4c0.7,2.5,1,5.2,1,8c0,17.3-13.9,31.4-31,31.4
				c-17.1,0-31-14-31-31.4C-2976.1,580.8-2975.7,578.2-2975.1,575.6z M-2974.2,572.7c-10.5-4.1-17.9-14.4-17.9-26.5
				c0-15.7,12.6-28.4,28-28.4c6.3,0,12,2.1,16.7,5.6c-6,5.7-9.7,13.8-9.7,22.8c0,2.8,0.3,5.4,1,8
				C-2964.4,557.4-2971.1,564.2-2974.2,572.7z M-2916,572.8c10.5-4.1,17.9-14.4,17.9-26.5c0-15.7-12.6-28.4-28-28.4
				c-6.3,0-12,2.1-16.7,5.6c6,5.7,9.7,13.8,9.7,22.8c0,2.8-0.3,5.4-1,8C-2925.7,557.5-2919.1,564.2-2916,572.8z M-2951.4,543.4
				c0,3.1,2.5,5.5,5.5,5.5c3.1,0,5.5-2.5,5.5-5.5c0-3.1-2.5-5.5-5.5-5.5C-2948.9,537.9-2951.4,540.4-2951.4,543.4z"/>
			<path class="st3" d="M-3034.7,644h2.6v-14h-2.6V644z M-3022.5,633.2c-1.6,0-2.9,0.5-3.7,1.5v-1.4h-2.4V644h2.5v-5.4
				c0-2.1,1.2-3.2,3-3.2c1.6,0,2.5,0.9,2.5,2.8v5.8h2.5v-6.1C-3018,634.6-3019.9,633.2-3022.5,633.2z M-3009.1,641.6
				c-0.4,0.3-0.9,0.4-1.4,0.4c-1,0-1.5-0.6-1.5-1.6v-5.1h2.9v-2h-2.9v-2.4h-2.5v2.4h-1.8v2h1.8v5.1c0,2.4,1.3,3.6,3.7,3.6
				c0.9,0,1.8-0.2,2.4-0.7L-3009.1,641.6z M-2996.7,638.7c0-3.3-2.3-5.5-5.4-5.5c-3.2,0-5.5,2.3-5.5,5.5s2.3,5.5,5.9,5.5
				c1.8,0,3.3-0.6,4.3-1.7l-1.3-1.5c-0.8,0.8-1.7,1.2-2.9,1.2c-1.9,0-3.2-1-3.5-2.6h8.4C-2996.7,639.2-2996.7,638.9-2996.7,638.7z
				 M-3002.1,635.2c1.6,0,2.8,1.1,3,2.6h-6.1C-3004.9,636.2-3003.7,635.2-3002.1,635.2z M-2991.9,634.8v-1.6h-2.4V644h2.5v-5.2
				c0-2.2,1.2-3.3,3.1-3.3c0.2,0,0.4,0,0.6,0.1v-2.4C-2989.9,633.2-2991.2,633.7-2991.9,634.8z M-2982.6,644.1c3,0,4.8-1.3,4.8-3.3
				c0-4.2-6.6-2.3-6.6-4.4c0-0.7,0.7-1.2,2.2-1.2c1,0,2,0.2,3.1,0.8l1-1.9c-1-0.6-2.6-0.9-4-0.9c-2.9,0-4.7,1.3-4.7,3.3
				c0,4.3,6.6,2.3,6.6,4.4c0,0.7-0.7,1.2-2.2,1.2c-1.3,0-2.8-0.4-3.7-1.1l-1,1.9C-2986.2,643.6-2984.4,644.1-2982.6,644.1z
				 M-2965.3,638.7c0-3.3-2.3-5.5-5.4-5.5c-3.2,0-5.5,2.3-5.5,5.5s2.3,5.5,5.9,5.5c1.8,0,3.3-0.6,4.3-1.7l-1.3-1.5
				c-0.8,0.8-1.7,1.2-2.9,1.2c-1.9,0-3.2-1-3.5-2.6h8.4C-2965.3,639.2-2965.3,638.9-2965.3,638.7z M-2970.7,635.2
				c1.6,0,2.8,1.1,3,2.6h-6.1C-2973.5,636.2-2972.3,635.2-2970.7,635.2z M-2957.2,641.6c-0.4,0.3-0.9,0.4-1.4,0.4
				c-1,0-1.5-0.6-1.5-1.6v-5.1h2.9v-2h-2.9v-2.4h-2.5v2.4h-1.8v2h1.8v5.1c0,2.4,1.3,3.6,3.7,3.6c0.9,0,1.8-0.2,2.4-0.7
				L-2957.2,641.6z M-2950,644.1c3.3,0,5.7-2.3,5.7-5.5s-2.4-5.5-5.7-5.5c-3.3,0-5.7,2.3-5.7,5.5S-2953.3,644.1-2950,644.1z
				 M-2950,642c-1.8,0-3.2-1.3-3.2-3.3s1.4-3.3,3.2-3.3c1.8,0,3.2,1.3,3.2,3.3S-2948.2,642-2950,642z M-2939.5,634.8v-1.6h-2.4V644
				h2.5v-5.2c0-2.2,1.2-3.3,3.1-3.3c0.2,0,0.4,0,0.6,0.1v-2.4C-2937.5,633.2-2938.8,633.7-2939.5,634.8z M-2932.3,631.5
				c0.9,0,1.6-0.7,1.6-1.6c0-0.8-0.7-1.4-1.6-1.4s-1.6,0.7-1.6,1.5C-2933.9,630.9-2933.2,631.5-2932.3,631.5z M-2933.6,644h2.5
				v-10.7h-2.5V644z M-2923.7,633.2c-1.7,0-3.4,0.4-4.5,1.3l1,1.8c0.8-0.7,2-1.1,3.2-1.1c1.8,0,2.7,0.9,2.7,2.3v0.2h-2.8
				c-3.2,0-4.4,1.4-4.4,3.2c0,1.9,1.5,3.2,4,3.2c1.6,0,2.8-0.5,3.4-1.4v1.3h2.4v-6.3C-2918.9,634.6-2920.6,633.2-2923.7,633.2z
				 M-2924.1,642.3c-1.3,0-2-0.6-2-1.5c0-0.8,0.5-1.4,2.2-1.4h2.6v1.2C-2921.8,641.7-2922.8,642.3-2924.1,642.3z M-2915.7,644h2.5
				v-14.8h-2.5V644z M-2908.6,631.5c0.9,0,1.6-0.7,1.6-1.6c0-0.8-0.7-1.4-1.6-1.4c-0.9,0-1.6,0.7-1.6,1.5
				C-2910.2,630.9-2909.5,631.5-2908.6,631.5z M-2909.9,644h2.5v-10.7h-2.5V644z M-2896.1,629.1v5.5c-0.8-1-2.1-1.4-3.4-1.4
				c-3.1,0-5.4,2.1-5.4,5.5s2.3,5.5,5.4,5.5c1.5,0,2.7-0.5,3.5-1.5v1.4h2.4v-14.8H-2896.1z M-2899.3,642c-1.8,0-3.2-1.3-3.2-3.3
				s1.4-3.3,3.2-3.3s3.2,1.3,3.2,3.3S-2897.5,642-2899.3,642z M-2886.3,633.2c-1.7,0-3.4,0.4-4.5,1.3l1,1.8c0.8-0.7,2-1.1,3.2-1.1
				c1.8,0,2.7,0.9,2.7,2.3v0.2h-2.8c-3.2,0-4.4,1.4-4.4,3.2c0,1.9,1.5,3.2,4,3.2c1.6,0,2.8-0.5,3.4-1.4v1.3h2.4v-6.3
				C-2881.4,634.6-2883.2,633.2-2886.3,633.2z M-2886.6,642.3c-1.3,0-2-0.6-2-1.5c0-0.8,0.5-1.4,2.2-1.4h2.6v1.2
				C-2884.3,641.7-2885.4,642.3-2886.6,642.3z M-2870.2,629.1v5.5c-0.8-1-2.1-1.4-3.4-1.4c-3.1,0-5.4,2.1-5.4,5.5s2.3,5.5,5.4,5.5
				c1.5,0,2.7-0.5,3.5-1.5v1.4h2.4v-14.8H-2870.2z M-2873.3,642c-1.8,0-3.2-1.3-3.2-3.3s1.4-3.3,3.2-3.3s3.2,1.3,3.2,3.3
				S-2871.5,642-2873.3,642z M-2854.3,638.7c0-3.3-2.3-5.5-5.4-5.5c-3.2,0-5.5,2.3-5.5,5.5s2.3,5.5,5.9,5.5c1.8,0,3.3-0.6,4.3-1.7
				l-1.3-1.5c-0.8,0.8-1.7,1.2-2.9,1.2c-1.9,0-3.2-1-3.5-2.6h8.4C-2854.4,639.2-2854.3,638.9-2854.3,638.7z M-2859.7,635.2
				c1.6,0,2.8,1.1,3,2.6h-6.1C-2862.5,636.2-2861.4,635.2-2859.7,635.2z"/>
		</g>
	</g>
	<g id="integralidade-button_00000148648561738890641370000017317578453395776414_">
		<g id="background_00000009554658061054348230000016054697620178414733_">
			<polygon class="st0" points="-2405.8,295.8 -2405.8,424.2 -2294.5,488.5 -2183.2,424.2 -2183.2,295.8 -2294.5,231.5 			"/>
			<polygon class="st1" points="-2405.8,424.2 -2294.5,488.5 -2183.2,424.2 -2183.2,295.8 			"/>
		</g>
		<g id="content_00000154390959044828284220000010105390627226183599_">
			<path class="st2" d="M-2296.6,303.1v16.4c0,0.8-0.3,1.6-0.9,2.2c-0.6,0.6-1.4,0.9-2.2,0.9h-16.4c-0.8,0-1.6-0.3-2.2-0.9
				s-0.9-1.4-0.9-2.2v-16.4c0-0.8,0.3-1.6,0.9-2.2s1.4-0.9,2.2-0.9h16.4c0.8,0,1.6,0.3,2.2,0.9
				C-2297,301.5-2296.6,302.3-2296.6,303.1z M-2299.8,303.1h-16.4v16.4h16.4V303.1z M-2341.9,300h16.4c0.8,0,1.6,0.3,2.2,0.9
				c0.6,0.6,0.9,1.4,0.9,2.2v16.4c0,0.8-0.3,1.6-0.9,2.2c-0.6,0.6-1.4,0.9-2.2,0.9h-16.4c-0.8,0-1.6-0.3-2.2-0.9s-0.9-1.4-0.9-2.2
				v-16.4c0-0.8,0.3-1.6,0.9-2.2S-2342.8,300-2341.9,300z M-2341.9,319.5h16.4v-16.4h-16.4V319.5z M-2248.2,300h-16.4
				c-0.8,0-1.6,0.3-2.2,0.9s-0.9,1.4-0.9,2.2v16.4c0,0.8,0.3,1.6,0.9,2.2s1.4,0.9,2.2,0.9h16.4c0.8,0,1.6-0.3,2.2-0.9
				c0.6-0.6,0.9-1.4,0.9-2.2v-16.4c0-0.8-0.3-1.6-0.9-2.2C-2246.6,300.3-2247.4,300-2248.2,300z M-2248.2,319.5h-16.4v-16.4h16.4
				V319.5z M-2263.9,351.6c1.2,0,2.4,0.5,3.3,1.3l0,0c0.9,0.9,1.4,2,1.4,3.2v11.4c-0.2,4.6-0.9,9.1-2,13.5c0.8,0.6,1.3,1.5,1.3,2.5
				v3.9c0,0.8-0.3,1.6-0.9,2.2c-0.6,0.6-1.4,0.9-2.2,0.9h-20.3c-0.8,0-1.6-0.3-2.2-0.9s-0.9-1.4-0.9-2.2v-3.9c0-0.9,0.4-1.8,1.1-2.3
				l-8.3-14.3c-2.5-3.7-3.4-6.5-2.6-8.6c0.4-1,1.1-1.8,2.1-2.2c2.6-1.3,5.1,0.4,7,2.4v-18.2c0-1.5,0.8-2.9,2-3.7h-5.1
				c-0.8,0-1.6-0.3-2.2-0.9c-0.6-0.6-0.9-1.4-0.9-2.2v-16.4c0-0.8,0.3-1.6,0.9-2.2c0.6-0.6,1.4-0.9,2.2-0.9h16.4
				c0.8,0,1.6,0.3,2.2,0.9c0.6,0.6,0.9,1.4,0.9,2.2v16.4c0,0.8-0.3,1.6-0.9,2.2c-0.6,0.6-1.4,0.9-2.2,0.9h-6
				c0.3,0.2,0.5,0.4,0.8,0.6c0.8,0.8,1.3,1.9,1.3,3v6.8c0.5-0.2,1-0.3,1.5-0.3c1.2,0,2.4,0.5,3.3,1.3c0.6,0.6,1,1.3,1.2,2.1
				c0.8-0.3,1.8-0.4,2.7-0.3c0.9,0.2,1.7,0.6,2.4,1.2c0.3,0.3,0.5,0.5,0.7,0.8C-2265.4,351.8-2264.7,351.6-2263.9,351.6z
				 M-2290.4,317.2v16.4h16.4v-16.4H-2290.4z M-2283.4,387.5h20.3v-3.9h-20.3V387.5z M-2282.3,380.5h18l0,0c1.2-4.8,1.9-9.7,2-14.6
				l0-9.7c0-0.4-0.1-0.8-0.4-1c-0.3-0.3-0.7-0.4-1.1-0.4c-0.9,0-1.6,0.7-1.6,1.6v8c0,0.4-0.2,0.8-0.5,1.1c-0.3,0.3-0.7,0.5-1.1,0.5
				c-0.4,0-0.8-0.2-1.1-0.5c-0.3-0.3-0.5-0.7-0.5-1.1v0c0-0.1,0-0.2,0-0.3l0-9.3c0-0.4-0.2-0.7-0.4-1c-0.3-0.3-0.7-0.4-1.1-0.4
				c-0.4,0-0.8,0.1-1.1,0.4c-0.3,0.3-0.5,0.7-0.5,1.1l0.1,9.5c0,0.4-0.2,0.8-0.5,1.1c-0.3,0.3-0.7,0.5-1.1,0.5
				c-0.9,0-1.6-0.7-1.6-1.6l0-12.5c0-0.4-0.2-0.8-0.4-1c-0.3-0.3-0.7-0.4-1.1-0.4c-0.9,0-1.6,0.7-1.6,1.6l0.1,12.5
				c0,0.4-0.2,0.8-0.5,1.1c-0.3,0.3-0.7,0.5-1.1,0.5h-0.1c-0.4,0-0.8-0.2-1.1-0.5c-0.3-0.3-0.5-0.7-0.5-1.1v-23.7
				c0-0.3-0.1-0.6-0.4-0.8c-0.3-0.3-0.8-0.5-1.3-0.5c-0.4,0-0.8,0.1-1.1,0.3c-0.3,0.3-0.5,0.6-0.5,1v23c0,0.7-0.5,1.4-1.2,1.5
				c-0.7,0.2-1.4-0.1-1.8-0.8v0c-1.2-2.2-4.2-6-5.8-5.1c-0.1,0.1-0.2,0.1-0.3,0.1c-0.1,0.1-0.2,0.2-0.2,0.4
				c-0.1,0.4-0.3,1.9,2.3,5.7L-2282.3,380.5z M-2332.6,307.8h2.3v2.3c0,0.9,0.7,1.6,1.6,1.6s1.6-0.7,1.6-1.6v-3.9
				c0-0.4-0.2-0.8-0.5-1.1c-0.3-0.3-0.7-0.5-1.1-0.5h-3.9c-0.9,0-1.6,0.7-1.6,1.6C-2334.1,307.1-2333.4,307.8-2332.6,307.8z
				 M-2306.8,304.7h3.9c0.4,0,0.8,0.2,1.1,0.5c0.3,0.3,0.5,0.7,0.5,1.1v3.9c0,0.9-0.7,1.6-1.6,1.6s-1.6-0.7-1.6-1.6v-2.3h-2.3
				c-0.9,0-1.6-0.7-1.6-1.6C-2308.4,305.4-2307.7,304.7-2306.8,304.7z M-2255.2,307.8h2.4v2.3c0,0.9,0.7,1.6,1.6,1.6
				c0.9,0,1.6-0.7,1.6-1.6v-3.9c0-0.4-0.2-0.8-0.5-1.1c-0.3-0.3-0.7-0.5-1.1-0.5h-3.9c-0.9,0-1.6,0.7-1.6,1.6
				C-2256.8,307.1-2256.1,307.8-2255.2,307.8z M-2281,318.5h3.9c0.4,0,0.8,0.2,1.1,0.5c0.3,0.3,0.5,0.7,0.5,1.1v3.9
				c0,0.9-0.7,1.6-1.6,1.6s-1.6-0.7-1.6-1.6v-2.3h-2.3c-0.9,0-1.6-0.7-1.6-1.6C-2282.6,319.2-2281.9,318.5-2281,318.5z
				 M-2299.2,325.8c-0.3-0.5-0.8-0.8-1.4-0.8s-1.1,0.3-1.4,0.8l-2.3,4.1c-0.3,0.6-0.2,1.4,0.3,1.9c0.5,0.5,1.3,0.6,1.9,0.2v4.7
				c0,0.9,0.7,1.6,1.6,1.6c0.9,0,1.6-0.7,1.6-1.6V332c0.6,0.4,1.4,0.3,1.9-0.2s0.6-1.3,0.3-1.9L-2299.2,325.8z M-2262.7,337.8
				c-0.3,0.3-0.7,0.5-1.1,0.5c-0.4,0-0.8-0.2-1.1-0.5c-0.3-0.3-0.5-0.7-0.5-1.1V332c-0.6,0.4-1.4,0.3-1.9-0.2
				c-0.5-0.5-0.6-1.3-0.3-1.9l2.3-4.1c0.3-0.5,0.8-0.8,1.4-0.8c0.6,0,1.1,0.3,1.4,0.8l2.3,4.1c0.3,0.6,0.2,1.4-0.2,1.9
				c-0.5,0.5-1.3,0.6-1.9,0.2v4.7C-2262.3,337.1-2262.4,337.5-2262.7,337.8z"/>
			<path class="st3" d="M-2362.5,424h2.6v-14h-2.6V424z M-2350.3,413.2c-1.6,0-2.9,0.5-3.7,1.5v-1.4h-2.4V424h2.5v-5.4
				c0-2.1,1.2-3.2,3-3.2c1.6,0,2.5,0.9,2.5,2.8v5.8h2.5v-6.1C-2345.8,414.7-2347.7,413.2-2350.3,413.2z M-2337,421.6
				c-0.4,0.3-0.9,0.4-1.4,0.4c-1,0-1.5-0.6-1.5-1.6v-5.1h2.9v-2h-2.9V411h-2.5v2.4h-1.8v2h1.8v5.1c0,2.4,1.3,3.6,3.7,3.6
				c0.9,0,1.8-0.2,2.4-0.7L-2337,421.6z M-2324.5,418.7c0-3.3-2.3-5.5-5.4-5.5c-3.2,0-5.5,2.3-5.5,5.5s2.3,5.5,5.9,5.5
				c1.8,0,3.3-0.6,4.3-1.7l-1.3-1.5c-0.8,0.8-1.7,1.2-2.9,1.2c-1.9,0-3.2-1-3.5-2.6h8.4C-2324.5,419.2-2324.5,418.9-2324.5,418.7z
				 M-2329.9,415.2c1.6,0,2.8,1.1,3,2.6h-6.1C-2332.7,416.2-2331.5,415.2-2329.9,415.2z M-2313.9,413.3v1.4
				c-0.9-1.1-2.2-1.5-3.7-1.5c-3.1,0-5.4,2-5.4,5.1c0,3.1,2.3,5.2,5.4,5.2c1.4,0,2.7-0.5,3.6-1.4v0.6c0,2.2-1,3.2-3.4,3.2
				c-1.5,0-3-0.5-3.9-1.3l-1.1,1.9c1.2,1,3.2,1.5,5.2,1.5c3.7,0,5.8-1.8,5.8-5.6v-9.1H-2313.9z M-2317.2,421.4
				c-1.9,0-3.3-1.2-3.3-3.1c0-1.8,1.4-3,3.3-3c1.9,0,3.2,1.2,3.2,3C-2314,420.2-2315.3,421.4-2317.2,421.4z M-2305.8,414.9v-1.6
				h-2.4V424h2.5v-5.2c0-2.2,1.2-3.3,3.1-3.3c0.2,0,0.4,0,0.6,0.1v-2.4C-2303.8,413.2-2305.1,413.8-2305.8,414.9z M-2295.9,413.2
				c-1.7,0-3.4,0.4-4.5,1.3l1,1.8c0.8-0.7,2-1.1,3.2-1.1c1.8,0,2.7,0.9,2.7,2.3v0.2h-2.8c-3.2,0-4.4,1.4-4.4,3.2
				c0,1.9,1.5,3.2,4,3.2c1.6,0,2.8-0.5,3.4-1.4v1.3h2.4v-6.3C-2291,414.7-2292.8,413.2-2295.9,413.2z M-2296.2,422.3
				c-1.3,0-2-0.6-2-1.5c0-0.8,0.5-1.4,2.2-1.4h2.6v1.2C-2294,421.8-2295,422.3-2296.2,422.3z M-2287.8,424h2.5v-14.8h-2.5V424z
				 M-2280.8,411.5c0.9,0,1.6-0.7,1.6-1.6c0-0.8-0.7-1.4-1.6-1.4s-1.6,0.7-1.6,1.5C-2282.4,410.9-2281.7,411.5-2280.8,411.5z
				 M-2282,424h2.5v-10.7h-2.5V424z M-2268.3,409.2v5.5c-0.8-1-2.1-1.4-3.4-1.4c-3.1,0-5.4,2.1-5.4,5.5s2.3,5.5,5.4,5.5
				c1.5,0,2.7-0.5,3.5-1.5v1.4h2.4v-14.8H-2268.3z M-2271.4,422c-1.8,0-3.2-1.3-3.2-3.3c0-2,1.4-3.3,3.2-3.3c1.8,0,3.2,1.3,3.2,3.3
				C-2268.3,420.7-2269.6,422-2271.4,422z M-2258.5,413.2c-1.7,0-3.4,0.4-4.5,1.3l1,1.8c0.8-0.7,2-1.1,3.2-1.1
				c1.8,0,2.7,0.9,2.7,2.3v0.2h-2.8c-3.2,0-4.4,1.4-4.4,3.2c0,1.9,1.5,3.2,4,3.2c1.6,0,2.8-0.5,3.4-1.4v1.3h2.4v-6.3
				C-2253.6,414.7-2255.4,413.2-2258.5,413.2z M-2258.8,422.3c-1.3,0-2-0.6-2-1.5c0-0.8,0.5-1.4,2.2-1.4h2.6v1.2
				C-2256.5,421.8-2257.6,422.3-2258.8,422.3z M-2242.3,409.2v5.5c-0.8-1-2.1-1.4-3.4-1.4c-3.1,0-5.4,2.1-5.4,5.5s2.3,5.5,5.4,5.5
				c1.5,0,2.7-0.5,3.5-1.5v1.4h2.4v-14.8H-2242.3z M-2245.5,422c-1.8,0-3.2-1.3-3.2-3.3c0-2,1.4-3.3,3.2-3.3s3.2,1.3,3.2,3.3
				C-2242.3,420.7-2243.7,422-2245.5,422z M-2226.5,418.7c0-3.3-2.3-5.5-5.4-5.5c-3.2,0-5.5,2.3-5.5,5.5s2.3,5.5,5.9,5.5
				c1.8,0,3.3-0.6,4.3-1.7l-1.3-1.5c-0.8,0.8-1.7,1.2-2.9,1.2c-1.9,0-3.2-1-3.5-2.6h8.4C-2226.5,419.2-2226.5,418.9-2226.5,418.7z
				 M-2231.9,415.2c1.6,0,2.8,1.1,3,2.6h-6.1C-2234.7,416.2-2233.5,415.2-2231.9,415.2z"/>
		</g>
	</g>
	<g id="sustentabilidade-button_00000157288596032174699530000009700432480376994443_">
		<g id="background_00000047027515112503638110000003967432332465926562_">
			<polygon class="st0" points="-2665.8,295.8 -2665.8,424.2 -2554.5,488.5 -2443.2,424.2 -2443.2,295.8 -2554.5,231.5 			"/>
			<polygon class="st1" points="-2665.8,424.2 -2554.5,488.5 -2443.2,424.2 -2443.2,295.8 			"/>
		</g>
		<g id="content_00000178895371724964316860000011738284633229737091_">
			<path class="st2" d="M-2541.2,302.1c5.7-3.3,12.9-2.9,21.5,0.9l1.5,0.7l-0.2,1.6c-1,9.4-4.3,15.8-9.9,19.1
				c-6.8,3.9-16,3.6-20.2-0.2c0,0-0.1,0.1-0.1,0.1c-1.1,0.7-1.7,2.2-1.8,4.4l0,10.3v0c0,0,0,0,0,0v2.2h2.7h7.1
				c4.4,0.1,8.1,3.1,9.1,7.2c3.8-4,7.1-7.7,10-11l0,0c3.8-4.4,9.4-4.8,13.5-1.7c4.1,3.1,5,8.6,1.4,12.7c-0.2,0.2-1.1,1.3-2.3,2.8v0
				l0,0c-2.5,3.1-6.4,8-8.2,10.1c-2.7,3.2-5.2,5.8-7.5,8.1c-5.2,5-9.7,7.7-13.7,7.7h-34.1l0.6,1c0.8,1.4,0.3,3.2-1.1,4l-11.5,6.6
				c-1.4,0.8-3.2,0.3-4-1.1l-15.5-26.8c-0.8-1.4-0.3-3.2,1.1-4l11.5-6.6c1.4-0.8,3.2-0.3,4,1.1l1.3,2.2c1.6-1.8,3.5-3.8,5.6-6
				c3.7-3.8,9.1-6.4,14-6.4h11.7l0-4.4c0-0.1,0-0.2,0-0.3v-1.6c-0.3-1.6-0.9-2.9-2-4c-0.6-0.6-1.1-1-1.6-1.3
				c-2.7,3.2-8.6,5.1-14,4.2c-5-0.9-9.1-4.6-12.4-10.9l-0.8-1.5l1.2-1.1c5.2-4.8,10.3-6.9,15.3-6l0,0c6.4,1.1,11.8,6.3,12,11.1
				c0.7,0.3,1.5,0.8,2.3,1.5c0.4-2.8,1.5-4.9,3.5-6.3c0.1-0.1,0.3-0.2,0.4-0.3C-2552.2,314.5-2548.2,306.2-2541.2,302.1
				L-2541.2,302.1z M-2561.8,324.3c-1.1-2.3-4.2-4.9-8-5.6l0,0c-3.1-0.6-6.5,0.6-10.3,3.7c2.5,4.2,5.3,6.5,8.4,7
				c2.5,0.4,5.2,0.1,7.4-0.9c0.1-0.1,0.3-0.1,0.4-0.2l-8.4-1.9c-1.2-0.3-1.9-1.5-1.7-2.6c0.3-1.2,1.5-1.9,2.6-1.7L-2561.8,324.3z
				 M-2530.6,320.5c-4.8,2.8-11,2.8-14,1.1c2.8-1.7,6.8-4.1,12.2-7.3c1.1-0.6,1.4-2,0.8-3c-0.6-1.1-2-1.4-3-0.8
				c-5.3,3.1-9.2,5.4-12.1,7.2c0-3.8,2.9-9.1,7.7-11.8c4-2.3,9.2-2.2,16,0.5C-2524.1,313.6-2526.6,318.2-2530.6,320.5z
				 M-2538.4,372.8c2.5,0,6.2-2.3,10.7-6.5c2.2-2.1,4.6-4.7,7.2-7.8c1.8-2.1,5.5-6.7,8-9.9l0,0l0,0c1.3-1.6,2.2-2.8,2.5-3
				c1.8-2.2,1.4-4.7-0.8-6.4c-2.3-1.7-5.2-1.5-7.5,1.1c-4.1,4.8-9.1,10.2-15,16.3c-1.8,2.3-4.5,3.7-7.6,3.7h-14.7
				c-1.2,0-2.2-1-2.2-2.2c0-1.2,1-2.2,2.2-2.2h14.7c1.5,0,2.8-0.6,3.8-1.7c0.1-0.1,0.1-0.2,0.2-0.3c0.7-0.9,1.2-2,1.2-3.3v0
				c0-2.8-2.3-5-5.1-5.1h-25.8c-3.7,0-7.9,2-10.8,5c-2.5,2.6-4.7,5-6.4,7l8.7,15.1H-2538.4z M-2585.5,384.3l8.9-5.2l-14-24.3
				l-8.9,5.2L-2585.5,384.3z"/>
			<path class="st3" d="M-2635.5,424.1c3.8,0,5.7-1.9,5.7-4.2c0-5.1-8.3-3.2-8.3-6.2c0-1.1,0.9-1.9,3-1.9c1.2,0,2.6,0.4,3.9,1.1
				l0.8-2c-1.2-0.8-3-1.2-4.7-1.2c-3.8,0-5.6,1.9-5.6,4.2c0,5.2,8.3,3.2,8.3,6.2c0,1-0.9,1.8-3.1,1.8c-1.7,0-3.5-0.6-4.6-1.5l-0.9,2
				C-2639.9,423.4-2637.7,424.1-2635.5,424.1z M-2619.7,413.2v5.4c0,2.1-1.2,3.2-2.9,3.2c-1.6,0-2.5-0.9-2.5-2.9v-5.8h-2.5v6.1
				c0,3.2,1.9,4.7,4.6,4.7c1.4,0,2.6-0.5,3.4-1.5v1.4h2.4v-10.7H-2619.7z M-2610.6,424c3,0,4.8-1.3,4.8-3.3c0-4.2-6.6-2.3-6.6-4.4
				c0-0.7,0.7-1.2,2.2-1.2c1,0,2,0.2,3.1,0.8l1-1.9c-1-0.6-2.6-0.9-4-0.9c-2.9,0-4.7,1.3-4.7,3.3c0,4.3,6.6,2.3,6.6,4.4
				c0,0.7-0.7,1.2-2.2,1.2c-1.3,0-2.8-0.4-3.7-1.1l-1,1.9C-2614.2,423.5-2612.4,424-2610.6,424z M-2597.9,421.5
				c-0.4,0.3-0.9,0.4-1.4,0.4c-1,0-1.5-0.6-1.5-1.6v-5.1h2.9v-2h-2.9v-2.4h-2.5v2.4h-1.8v2h1.8v5.1c0,2.4,1.3,3.6,3.7,3.6
				c0.9,0,1.8-0.2,2.4-0.7L-2597.9,421.5z M-2585.5,418.6c0-3.3-2.3-5.5-5.4-5.5c-3.2,0-5.5,2.3-5.5,5.5s2.3,5.5,5.9,5.5
				c1.8,0,3.3-0.6,4.3-1.7l-1.3-1.5c-0.8,0.8-1.7,1.2-2.9,1.2c-1.9,0-3.2-1-3.5-2.6h8.4C-2585.5,419.1-2585.5,418.8-2585.5,418.6z
				 M-2590.9,415.1c1.6,0,2.8,1.1,3,2.6h-6.1C-2593.7,416.1-2592.5,415.1-2590.9,415.1z M-2577,413.1c-1.6,0-2.9,0.5-3.7,1.5v-1.4
				h-2.4v10.7h2.5v-5.4c0-2.1,1.2-3.2,3-3.2c1.6,0,2.5,0.9,2.5,2.8v5.8h2.5v-6.1C-2572.6,414.6-2574.5,413.1-2577,413.1z
				 M-2563.7,421.5c-0.4,0.3-0.9,0.4-1.4,0.4c-1,0-1.5-0.6-1.5-1.6v-5.1h2.9v-2h-2.9v-2.4h-2.5v2.4h-1.8v2h1.8v5.1
				c0,2.4,1.3,3.6,3.7,3.6c0.9,0,1.8-0.2,2.4-0.7L-2563.7,421.5z M-2556.8,413.1c-1.7,0-3.4,0.4-4.5,1.3l1,1.8
				c0.8-0.7,2-1.1,3.2-1.1c1.8,0,2.7,0.9,2.7,2.3v0.2h-2.8c-3.2,0-4.4,1.4-4.4,3.2c0,1.9,1.5,3.2,4,3.2c1.6,0,2.8-0.5,3.4-1.4v1.3
				h2.4v-6.3C-2552,414.6-2553.7,413.1-2556.8,413.1z M-2557.2,422.2c-1.3,0-2-0.6-2-1.5c0-0.8,0.5-1.4,2.2-1.4h2.6v1.2
				C-2554.9,421.7-2555.9,422.2-2557.2,422.2z M-2542.8,413.1c-1.4,0-2.6,0.5-3.4,1.4v-5.5h-2.5v14.8h2.4v-1.4
				c0.8,1,2.1,1.5,3.5,1.5c3.1,0,5.4-2.2,5.4-5.5S-2539.7,413.1-2542.8,413.1z M-2543.1,421.9c-1.8,0-3.2-1.3-3.2-3.3
				s1.4-3.3,3.2-3.3s3.2,1.3,3.2,3.3S-2541.3,421.9-2543.1,421.9z M-2533.8,411.5c0.9,0,1.6-0.7,1.6-1.6c0-0.8-0.7-1.4-1.6-1.4
				s-1.6,0.7-1.6,1.5S-2534.7,411.5-2533.8,411.5z M-2535,423.9h2.5v-10.7h-2.5V423.9z M-2529.3,423.9h2.5v-14.8h-2.5V423.9z
				 M-2522.2,411.5c0.9,0,1.6-0.7,1.6-1.6c0-0.8-0.7-1.4-1.6-1.4s-1.6,0.7-1.6,1.5S-2523.1,411.5-2522.2,411.5z M-2523.5,423.9h2.5
				v-10.7h-2.5V423.9z M-2509.7,409.1v5.5c-0.8-1-2.1-1.4-3.4-1.4c-3.1,0-5.4,2.1-5.4,5.5s2.3,5.5,5.4,5.5c1.5,0,2.7-0.5,3.5-1.5
				v1.4h2.4v-14.8H-2509.7z M-2512.9,421.9c-1.8,0-3.2-1.3-3.2-3.3s1.4-3.3,3.2-3.3c1.8,0,3.2,1.3,3.2,3.3
				S-2511.1,421.9-2512.9,421.9z M-2499.9,413.1c-1.7,0-3.4,0.4-4.5,1.3l1,1.8c0.8-0.7,2-1.1,3.2-1.1c1.8,0,2.7,0.9,2.7,2.3v0.2
				h-2.8c-3.2,0-4.4,1.4-4.4,3.2c0,1.9,1.5,3.2,4,3.2c1.6,0,2.8-0.5,3.4-1.4v1.3h2.4v-6.3C-2495,414.6-2496.8,413.1-2499.9,413.1z
				 M-2500.2,422.2c-1.3,0-2-0.6-2-1.5c0-0.8,0.5-1.4,2.2-1.4h2.6v1.2C-2498,421.7-2499,422.2-2500.2,422.2z M-2483.8,409.1v5.5
				c-0.8-1-2.1-1.4-3.4-1.4c-3.1,0-5.4,2.1-5.4,5.5s2.3,5.5,5.4,5.5c1.5,0,2.7-0.5,3.5-1.5v1.4h2.4v-14.8H-2483.8z M-2486.9,421.9
				c-1.8,0-3.2-1.3-3.2-3.3s1.4-3.3,3.2-3.3c1.8,0,3.2,1.3,3.2,3.3S-2485.1,421.9-2486.9,421.9z M-2468,418.6c0-3.3-2.3-5.5-5.4-5.5
				c-3.2,0-5.5,2.3-5.5,5.5s2.3,5.5,5.9,5.5c1.8,0,3.3-0.6,4.3-1.7l-1.3-1.5c-0.8,0.8-1.7,1.2-2.9,1.2c-1.9,0-3.2-1-3.5-2.6h8.4
				C-2468,419.1-2468,418.8-2468,418.6z M-2473.4,415.1c1.6,0,2.8,1.1,3,2.6h-6.1C-2476.2,416.1-2475,415.1-2473.4,415.1z"/>
		</g>
	</g>
	<g id="participacao-button_00000147917799906252600080000013882839050529235622_">
		<g id="background_00000169531386360256896230000001086565765170697404_">
			<polygon class="st0" points="-2925.8,295.8 -2925.8,424.2 -2814.5,488.5 -2703.2,424.2 -2703.2,295.8 -2814.5,231.5 			"/>
			<polygon class="st1" points="-2925.8,424.2 -2814.5,488.5 -2703.2,424.2 -2703.2,295.8 			"/>
		</g>
		<g id="content_00000008150043471358499130000013859795705572863875_">
			<path class="st3" d="M-2763.3,351.2l-13.1-28.7c-0.2-0.5-0.7-1-1.2-1.2c-0.5-0.2-1.1-0.2-1.7,0.1l-13.8,7l-15.5-4.5
				c-0.2-0.1-0.5-0.1-0.8-0.1l-11.7,1c-0.5,0-1,0.3-1.3,0.6l-11.7-0.6l-14.7-6.3c-0.5-0.2-1.1-0.2-1.7,0c-0.5,0.2-0.9,0.7-1.2,1.2
				l-11.3,29.6c-0.2,0.6-0.2,1.3,0.2,1.9c0.4,0.6,0.9,0.9,1.6,1l20.2,1.9c3.4,2.7,21.6,17.8,24.7,20.2c1.5,1.1,3.3,1.7,5.2,1.6
				c1.7,0,3.4-0.3,5-0.9c0.6,0.3,1.3,0.5,1.9,0.5c0.3,0,0.7,0,1-0.1c2.1-0.5,3.7-2.5,4.6-4l0,0c0.8,0.2,1.7,0.3,2.6,0.4
				c1.4,0.1,2.7-0.4,3.7-1.4c1-1,1.5-2.3,1.4-3.7h0.1c1.5,0.1,2.9-0.5,4-1.5c1.9-1.9,1.9-4.8,1.7-6.5l2.4-2.3l17.7-2.2
				c0.7-0.1,1.3-0.5,1.6-1.1C-2763,352.6-2763,351.9-2763.3,351.2L-2763.3,351.2z M-2795.1,332.3c0.2,0.2,0.3,0.4,0.5,0.5l8.5,21
				l-1.1,1.1c-2.8-3.1-9.2-10.1-14.1-15.1c-3.2-3.2-5.9-4.4-8.3-4.4c-3.6,0-6.3,2.6-8.2,4.5c-3.2,3.1-4.4,2.1-5,1.5
				c-0.6-0.6-1.1-3.4-1.1-5.7l4.2-6.8l10.2-0.9L-2795.1,332.3z M-2848.5,323.4l11.5,4.9l-4.8,21.5l-16.2-1.6L-2848.5,323.4z
				 M-2789.7,362.1c-0.4,0.4-1.4,0.4-2.6,0.1l-12-11.6c-0.9-0.8-2.2-0.8-3,0.1c-0.8,0.9-0.8,2.2,0.1,3l12,11.6
				c0.3,0.7,0.3,1.4,0.1,2.1c0,0-0.7,0.5-3.3-0.4l-11.1-10.3c-0.9-0.8-2.2-0.7-3,0.2c-0.8,0.9-0.7,2.3,0.2,3.1l10.2,9.4
				c-0.6,1-1.3,1.8-1.8,1.9c-0.1,0-0.3-0.1-0.3-0.2c-3.2-2.8-9.1-8.6-9.1-8.6l0,0c-0.4-0.5-0.9-0.9-1.6-0.9
				c-0.6-0.1-1.3,0.2-1.7,0.6c-0.4,0.4-0.7,1.1-0.6,1.7c0.1,0.6,0.4,1.2,0.9,1.6c0.2,0.2,3.4,3.3,6.4,6.1h0c-1.2,0.2-2.4,0-3.5-0.6
				c-2.8-2.1-19.7-16.1-24.1-19.7l4.9-22l7.7,0.4l-2.7,4.3h0c-0.2,0.3-0.3,0.7-0.3,1.1c-0.1,1.2-0.2,7.3,2.6,9.7
				c2.1,1.9,5.8,3.1,10.8-1.7c3.3-3.2,5.5-5.4,10.5-0.2c5.6,5.8,13.3,14.2,15,16.1C-2789.2,360-2789.1,361.6-2789.7,362.1
				L-2789.7,362.1z M-2782.2,352l-8.1-20.2l11-5.5l11,24L-2782.2,352z"/>
			<path class="st3" d="M-2878.8,409.4h-5.8v14h2.6v-4h3.2c3.7,0,6-1.9,6-5C-2872.8,411.3-2875.1,409.4-2878.8,409.4z
				 M-2878.9,417.2h-3v-5.6h3c2.3,0,3.5,1,3.5,2.8C-2875.4,416.1-2876.6,417.2-2878.9,417.2z M-2866.5,412.6c-1.7,0-3.4,0.4-4.5,1.3
				l1,1.8c0.8-0.7,2-1.1,3.2-1.1c1.8,0,2.7,0.9,2.7,2.3v0.2h-2.8c-3.2,0-4.4,1.4-4.4,3.2c0,1.9,1.5,3.2,4,3.2c1.6,0,2.8-0.5,3.4-1.4
				v1.3h2.4v-6.3C-2861.6,414.1-2863.4,412.6-2866.5,412.6z M-2866.8,421.7c-1.3,0-2-0.6-2-1.5c0-0.8,0.5-1.4,2.2-1.4h2.6v1.2
				C-2864.5,421.2-2865.6,421.7-2866.8,421.7z M-2856,414.3v-1.6h-2.4v10.7h2.5v-5.2c0-2.2,1.2-3.3,3.1-3.3c0.2,0,0.4,0,0.6,0.1
				v-2.4C-2854,412.6-2855.3,413.2-2856,414.3z M-2844,421c-0.4,0.3-0.9,0.4-1.4,0.4c-1,0-1.5-0.6-1.5-1.6v-5.1h2.9v-2h-2.9v-2.4
				h-2.5v2.4h-1.8v2h1.8v5.1c0,2.4,1.3,3.6,3.7,3.6c0.9,0,1.8-0.2,2.4-0.7L-2844,421z M-2836.7,423.5c2.1,0,3.7-0.9,4.6-2.5
				l-1.9-1.1c-0.6,1-1.6,1.5-2.7,1.5c-1.8,0-3.2-1.3-3.2-3.3c0-2.1,1.4-3.3,3.2-3.3c1.1,0,2,0.5,2.7,1.5l1.9-1.1
				c-0.8-1.6-2.5-2.5-4.6-2.5c-3.4,0-5.8,2.3-5.8,5.5C-2842.5,421.3-2840.1,423.5-2836.7,423.5z M-2828.7,411c0.9,0,1.6-0.7,1.6-1.6
				c0-0.8-0.7-1.4-1.6-1.4c-0.9,0-1.6,0.7-1.6,1.5S-2829.6,411-2828.7,411z M-2830,423.4h2.5v-10.7h-2.5V423.4z M-2818.3,412.6
				c-1.5,0-2.7,0.5-3.5,1.5v-1.4h-2.4v14.6h2.5v-5.2c0.9,1,2.1,1.4,3.4,1.4c3.1,0,5.4-2.2,5.4-5.5
				C-2812.8,414.8-2815.1,412.6-2818.3,412.6z M-2818.5,421.4c-1.8,0-3.2-1.3-3.2-3.3s1.4-3.3,3.2-3.3s3.2,1.3,3.2,3.3
				S-2816.7,421.4-2818.5,421.4z M-2809.2,411c0.9,0,1.6-0.7,1.6-1.6c0-0.8-0.7-1.4-1.6-1.4c-0.9,0-1.6,0.7-1.6,1.5
				S-2810.1,411-2809.2,411z M-2810.5,423.4h2.5v-10.7h-2.5V423.4z M-2798.8,412.6c-1.5,0-2.7,0.5-3.5,1.5v-1.4h-2.4v14.6h2.5v-5.2
				c0.9,1,2.1,1.4,3.4,1.4c3.1,0,5.4-2.2,5.4-5.5C-2793.3,414.8-2795.6,412.6-2798.8,412.6z M-2799,421.4c-1.8,0-3.2-1.3-3.2-3.3
				s1.4-3.3,3.2-3.3s3.2,1.3,3.2,3.3S-2797.2,421.4-2799,421.4z M-2787,412.6c-1.7,0-3.4,0.4-4.5,1.3l1,1.8c0.8-0.7,2-1.1,3.2-1.1
				c1.8,0,2.7,0.9,2.7,2.3v0.2h-2.8c-3.2,0-4.4,1.4-4.4,3.2c0,1.9,1.5,3.2,4,3.2c1.6,0,2.8-0.5,3.4-1.4v1.3h2.4v-6.3
				C-2782.2,414.1-2784,412.6-2787,412.6z M-2787.4,421.7c-1.3,0-2-0.6-2-1.5c0-0.8,0.5-1.4,2.2-1.4h2.6v1.2
				C-2785.1,421.2-2786.2,421.7-2787.4,421.7z M-2774,421.4c-1.8,0-3.2-1.3-3.2-3.3c0-2.1,1.4-3.3,3.2-3.3c1.1,0,2,0.5,2.7,1.5
				l1.9-1.1c-0.8-1.6-2.5-2.5-4.6-2.5c-3.4,0-5.8,2.3-5.8,5.5c0,2.8,1.9,4.9,4.6,5.4l-0.5,1.9h0.6c0.8,0,1.1,0.3,1.1,0.7
				c0,0.4-0.3,0.7-1.1,0.7c-0.5,0-0.9-0.1-1.4-0.3l-0.5,1.2c0.5,0.3,1.1,0.4,1.8,0.4c1.6,0,2.7-0.7,2.7-1.9c0-0.9-0.6-1.5-1.7-1.7
				l0.2-0.8c2,0,3.6-0.9,4.4-2.5l-1.9-1.1C-2772,420.9-2772.9,421.4-2774,421.4z M-2764.2,409.9c0.7,0,1.4,1.3,2.7,1.3
				c1.3,0,2.1-1.1,2.2-2.6h-1.3c0,0.7-0.4,1.1-1,1.1c-0.7,0-1.4-1.3-2.7-1.3c-1.3,0-2.1,1-2.2,2.7h1.3
				C-2765.2,410.4-2764.8,409.9-2764.2,409.9z M-2763.2,412.6c-1.7,0-3.4,0.4-4.5,1.3l1,1.8c0.8-0.7,2-1.1,3.2-1.1
				c1.8,0,2.7,0.9,2.7,2.3v0.2h-2.8c-3.2,0-4.4,1.4-4.4,3.2c0,1.9,1.5,3.2,4,3.2c1.6,0,2.8-0.5,3.4-1.4v1.3h2.4v-6.3
				C-2758.3,414.1-2760.1,412.6-2763.2,412.6z M-2763.5,421.7c-1.3,0-2-0.6-2-1.5c0-0.8,0.5-1.4,2.2-1.4h2.6v1.2
				C-2761.2,421.2-2762.3,421.7-2763.5,421.7z M-2750.2,423.5c3.3,0,5.7-2.3,5.7-5.5c0-3.2-2.4-5.5-5.7-5.5c-3.3,0-5.7,2.3-5.7,5.5
				C-2755.9,421.3-2753.5,423.5-2750.2,423.5z M-2750.2,421.4c-1.8,0-3.2-1.3-3.2-3.3s1.4-3.3,3.2-3.3c1.8,0,3.2,1.3,3.2,3.3
				S-2748.4,421.4-2750.2,421.4z M-2839.3,447.6c3.8,0,5.7-1.9,5.7-4.2c0-5.1-8.3-3.2-8.3-6.2c0-1.1,0.9-1.9,3-1.9
				c1.2,0,2.6,0.4,3.9,1.1l0.8-2c-1.2-0.8-3-1.2-4.7-1.2c-3.8,0-5.6,1.9-5.6,4.2c0,5.2,8.3,3.2,8.3,6.2c0,1-0.9,1.8-3.1,1.8
				c-1.7,0-3.5-0.6-4.6-1.5l-0.9,2C-2843.6,446.9-2841.4,447.6-2839.3,447.6z M-2826.5,447.5c3.3,0,5.7-2.3,5.7-5.5
				c0-3.2-2.4-5.5-5.7-5.5c-3.3,0-5.7,2.3-5.7,5.5C-2832.1,445.3-2829.7,447.5-2826.5,447.5z M-2826.5,445.4c-1.8,0-3.2-1.3-3.2-3.3
				s1.4-3.3,3.2-3.3c1.8,0,3.2,1.3,3.2,3.3S-2824.6,445.4-2826.5,445.4z M-2813.5,447.5c2.1,0,3.7-0.9,4.6-2.5l-1.9-1.1
				c-0.6,1-1.6,1.5-2.7,1.5c-1.8,0-3.2-1.3-3.2-3.3c0-2.1,1.4-3.3,3.2-3.3c1.1,0,2,0.5,2.7,1.5l1.9-1.1c-0.8-1.6-2.5-2.5-4.6-2.5
				c-3.4,0-5.8,2.3-5.8,5.5C-2819.2,445.3-2816.8,447.5-2813.5,447.5z M-2805.5,435c0.9,0,1.6-0.7,1.6-1.6c0-0.8-0.7-1.4-1.6-1.4
				c-0.9,0-1.6,0.7-1.6,1.5S-2806.4,435-2805.5,435z M-2806.7,447.4h2.5v-10.7h-2.5V447.4z M-2796.9,436.6c-1.7,0-3.4,0.4-4.5,1.3
				l1,1.8c0.8-0.7,2-1.1,3.2-1.1c1.8,0,2.7,0.9,2.7,2.3v0.2h-2.8c-3.2,0-4.4,1.4-4.4,3.2c0,1.9,1.5,3.2,4,3.2c1.6,0,2.8-0.5,3.4-1.4
				v1.3h2.4v-6.3C-2792,438.1-2793.8,436.6-2796.9,436.6z M-2797.2,445.7c-1.3,0-2-0.6-2-1.5c0-0.8,0.5-1.4,2.2-1.4h2.6v1.2
				C-2794.9,445.2-2796,445.7-2797.2,445.7z M-2788.8,447.4h2.5v-14.8h-2.5V447.4z"/>
		</g>
	</g>
	<g id="equidade-button_00000173849398924708506940000009882564511827307392_">
		<g id="background_00000132791451459090209970000001779930204193271451_">
			<polygon class="st0" points="-3185.5,295.8 -3185.5,424.2 -3074.5,488.5 -2963.5,424.2 -2963.5,295.8 -3074.5,231.5 			"/>
			<polygon class="st1" points="-3185.5,424.2 -3074.5,488.5 -2963.5,424.2 -2963.5,295.8 			"/>
		</g>
		<g id="content_00000003086120693074907780000001041792866825225621_">
			<path class="st2" d="M-3029.5,356.6c4.8,0,5,4.7,5,6.4v14.2c0,1.5,0,5.9-4.9,6.1h-20.7c-4.8,0-5-4.5-5-6v0
				c-0.1-4.8-0.1-9.7,0-14.5c0-5.2,3-6.1,4.9-6.2c1.4,0,2.8,0,4.2,0c0.5,0,0.9,0,1.4,0c-0.7-0.7-1.2-1.7-1.3-2.9l-1.3-15.9h-0.9
				c-1,0-1.9-0.4-2.5-1.2c-0.7-0.9-0.9-2-0.6-3.2l2.4-10.9c0.5-2.1,2.5-3.8,4.7-3.8h1.2c-2.1-1.2-3.5-3.4-3.5-5.9
				c0-3.7,3-6.8,6.8-6.8s6.8,3,6.8,6.8c0,2.5-1.4,4.8-3.5,5.9h1.5c2.1,0,4.2,1.7,4.7,3.7l2.2,10.9c0.2,1.1,0,2.3-0.7,3.1
				c-0.6,0.8-1.6,1.2-2.6,1.2h-1.1l-1.3,16c-0.1,1.1-0.6,2.1-1.3,2.8c0.5,0,0.9,0,1.4,0C-3032.3,356.6-3030.9,356.6-3029.5,356.6z
				 M-3039.9,309c-2.1,0-3.9,1.7-3.9,3.9s1.7,3.9,3.9,3.9c2.1,0,3.9-1.7,3.9-3.9S-3037.8,309-3039.9,309z M-3048.5,334.8
				c0,0,0.1,0.1,0.2,0.1h3.6l1.5,18.6c0.1,0.7,0.6,1.3,0.9,1.3h4.5c0.3,0,0.9-0.5,0.9-1.3l1.5-18.6h3.7c0.2,0,0.3,0,0.3-0.1
				c0.1-0.1,0.1-0.4,0.1-0.7l-2.2-10.9c-0.2-0.7-1.1-1.4-1.8-1.4h-9.2c-0.8,0-1.7,0.7-1.8,1.5l-2.4,10.9
				C-3048.7,334.4-3048.6,334.7-3048.5,334.8C-3048.5,334.8-3048.5,334.8-3048.5,334.8z M-3029.4,380.4c1,0,2-0.1,2-3.2l0,0v-14.1
				c-0.1-3.5-1.1-3.5-2.1-3.5c-3.4,0-6.9-0.1-10.3-0.1c-3.5,0-6.9,0-10.3,0.1l0,0c-0.7,0-2,0.1-2,3.3c-0.1,4.8-0.1,9.7,0,14.4
				c0.1,3.1,1.1,3.1,2.1,3.1L-3029.4,380.4L-3029.4,380.4z M-3098,315.7c0,5.2-4.3,9.5-9.5,9.5s-9.5-4.3-9.5-9.5
				c0-5.2,4.3-9.5,9.5-9.5S-3098,310.4-3098,315.7z M-3100.9,315.7c0-3.6-3-6.6-6.6-6.6c-3.6,0-6.6,3-6.6,6.6c0,3.6,3,6.6,6.6,6.6
				C-3103.9,322.3-3100.9,319.3-3100.9,315.7z M-3100.6,325.6c2.9,0,5.8,2.3,6.3,5.1v0l3.6,16.4c0.3,1.6,0,3.1-0.9,4.1
				c-0.8,1-2,1.5-3.4,1.5h-2.2l-0.2,2.8l-1.8,22.4c-0.3,3-2.6,5.4-5.2,5.4h-6.7c-2.6,0-4.8-2.3-5.1-5.3l-2-25.1h-2.1
				c-1.3,0-2.4-0.5-3.2-1.5c-0.9-1.1-1.2-2.6-0.9-4.2l3.6-16.6c0.6-2.8,3.4-5.1,6.3-5.1H-3100.6z M-3094.9,349.9
				c0.5,0,0.9-0.1,1.1-0.5h0c0.3-0.4,0.4-1,0.3-1.7l-3.6-16.4c-0.3-1.5-1.9-2.8-3.5-2.8h-13.9c-1.5,0-3.2,1.3-3.5,2.7l-3.6,16.5
				c-0.1,0.7,0,1.4,0.3,1.8c0.2,0.2,0.5,0.4,0.9,0.4h4.8l0.4,5.4l1.7,22.4c0.1,1.4,1.2,2.7,2.2,2.7h6.7c1.1,0,2.1-1.3,2.2-2.7
				l2.3-27.8H-3094.9z M-3063.4,367.9h-4.7c0.9-0.9,1.5-2,1.6-3.3l1.4-18.2l0.1-1.9h1.6c1.1,0,2.2-0.5,2.9-1.4c0.8-1,1-2.2,0.7-3.5
				l-3-13.3c-0.5-2.4-2.8-4.3-5.3-4.3h-3.8c3.6-0.8,6.2-4,6.2-7.8c0-4.4-3.6-8-8-8c-4.4,0-8,3.6-8,8c0,3.8,2.7,7,6.2,7.8h-4
				c-2.4,0-4.7,1.9-5.3,4.3l-2.9,13.4c-0.2,1.3,0.1,2.6,0.8,3.6c0.7,0.8,1.7,1.3,2.8,1.3h1.5l1.7,20.1c0.1,1.3,0.7,2.5,1.5,3.3h-4.7
				c-4.6,0-4.9,3-4.9,3.9c-0.1,2.5-0.1,5.2,0,7.8c0.2,3.8,3.8,3.8,5,3.8h10.3c3.4,0,6.9,0,10.3-0.1c3.3,0,4.9-1.3,4.9-3.9v-7.5
				C-3058.5,369.3-3060.2,368-3063.4,367.9L-3063.4,367.9z M-3078.8,314.1c0-2.8,2.3-5.1,5.1-5.1s5.1,2.3,5.1,5.1
				c0,2.8-2.3,5.1-5.1,5.1C-3076.5,319.2-3078.8,317-3078.8,314.1z M-3079.5,346.2l-0.5-4.6h-4.1c-0.2,0-0.4-0.1-0.5-0.2
				c-0.2-0.3-0.3-0.7-0.2-1.1l2.9-13.3c0.3-1.1,1.4-2,2.5-2h11.3c1.1,0,2.3,0.9,2.5,2l3,13.4c0.1,0.4,0.1,0.8-0.1,1.1
				c-0.1,0.2-0.4,0.3-0.6,0.3h-4.3l-1.7,22.8c-0.1,1-0.9,1.9-1.6,1.9h-5.4c-0.8,0-1.5-0.9-1.6-1.9L-3079.5,346.2L-3079.5,346.2z
				 M-3061.2,379.4c0,0.5,0,0.9-2.1,0.9c-3.5,0.1-6.9,0.1-10.3,0.1h-10.3c-2.1,0-2.1-0.5-2.1-1c-0.1-2.5-0.1-5,0-7.6c0-0.3,0-1,2-1
				h20.7c2,0,2.1,0.6,2.1,1.1v0V379.4z"/>
			<path class="st3" d="M-3118.8,421.9V418h6.8v-2.1h-6.8v-3.6h7.6v-2.2h-10.2v14h10.5v-2.2H-3118.8z M-3100.3,413.4v1.4
				c-0.8-1-2.1-1.5-3.5-1.5c-3.1,0-5.4,2.2-5.4,5.5c0,3.3,2.3,5.5,5.4,5.5c1.4,0,2.6-0.5,3.4-1.4v5.2h2.5v-14.6H-3100.3z
				 M-3103.5,422.1c-1.8,0-3.2-1.3-3.2-3.3s1.4-3.3,3.2-3.3c1.8,0,3.2,1.3,3.2,3.3S-3101.7,422.1-3103.5,422.1z M-3086.8,413.4v5.4
				c0,2.1-1.2,3.2-2.9,3.2c-1.6,0-2.5-0.9-2.5-2.9v-5.8h-2.5v6.1c0,3.2,1.9,4.7,4.6,4.7c1.4,0,2.6-0.5,3.4-1.5v1.4h2.4v-10.7
				H-3086.8z M-3079.8,411.6c0.9,0,1.6-0.7,1.6-1.6c0-0.8-0.7-1.4-1.6-1.4c-0.9,0-1.6,0.7-1.6,1.5S-3080.7,411.6-3079.8,411.6z
				 M-3081,424.1h2.5v-10.7h-2.5V424.1z M-3067.3,409.2v5.5c-0.8-1-2.1-1.4-3.4-1.4c-3.1,0-5.4,2.1-5.4,5.5s2.3,5.5,5.4,5.5
				c1.5,0,2.7-0.5,3.5-1.5v1.4h2.4v-14.8H-3067.3z M-3070.4,422.1c-1.8,0-3.2-1.3-3.2-3.3s1.4-3.3,3.2-3.3c1.8,0,3.2,1.3,3.2,3.3
				S-3068.6,422.1-3070.4,422.1z M-3057.4,413.3c-1.7,0-3.4,0.4-4.5,1.3l1,1.8c0.8-0.7,2-1.1,3.2-1.1c1.8,0,2.7,0.9,2.7,2.3v0.2
				h-2.8c-3.2,0-4.4,1.4-4.4,3.2c0,1.9,1.5,3.2,4,3.2c1.6,0,2.8-0.5,3.4-1.4v1.3h2.4v-6.3C-3052.6,414.7-3054.4,413.3-3057.4,413.3z
				 M-3057.8,422.4c-1.3,0-2-0.6-2-1.5c0-0.8,0.5-1.4,2.2-1.4h2.6v1.2C-3055.5,421.8-3056.6,422.4-3057.8,422.4z M-3041.3,409.2v5.5
				c-0.8-1-2.1-1.4-3.4-1.4c-3.1,0-5.4,2.1-5.4,5.5s2.3,5.5,5.4,5.5c1.5,0,2.7-0.5,3.5-1.5v1.4h2.4v-14.8H-3041.3z M-3044.4,422.1
				c-1.8,0-3.2-1.3-3.2-3.3s1.4-3.3,3.2-3.3s3.2,1.3,3.2,3.3S-3042.6,422.1-3044.4,422.1z M-3025.5,418.8c0-3.3-2.3-5.5-5.4-5.5
				c-3.2,0-5.5,2.3-5.5,5.5s2.3,5.5,5.9,5.5c1.8,0,3.3-0.6,4.3-1.7l-1.3-1.5c-0.8,0.8-1.7,1.2-2.9,1.2c-1.9,0-3.2-1-3.5-2.6h8.4
				C-3025.5,419.3-3025.5,419-3025.5,418.8z M-3030.9,415.3c1.6,0,2.8,1.1,3,2.6h-6.1C-3033.7,416.3-3032.5,415.3-3030.9,415.3z"/>
		</g>
	</g>
	<g id="territorialidade-button_00000123419313199201718140000015721195864819576488_">
		<g id="background_00000050656996411885409200000015629725907577129608_">
			<polygon class="st0" points="-2275.3,75.8 -2275.3,204.2 -2164,268.5 -2052.7,204.2 -2052.7,75.8 -2164,11.5 			"/>
			<polygon class="st1" points="-2275.3,204.2 -2164,268.5 -2052.7,204.2 -2052.7,75.8 			"/>
		</g>
		<g id="content_00000170990950374158217490000007681856658165545878_">
			<g>
				<path class="st3" d="M-2149.1,81.4C-2149.1,81.4-2149.1,81.4-2149.1,81.4h-29.8c0,0,0,0,0,0c-0.3,0-0.5,0.1-0.7,0.3
					c-0.2,0.2-0.3,0.5-0.3,0.8v17.3c0,0.3,0.1,0.6,0.3,0.8c0.2,0.2,0.5,0.3,0.8,0.3h29.8c0.3,0,0.6-0.1,0.8-0.3
					c0.2-0.2,0.3-0.5,0.3-0.8V82.5c0-0.3-0.1-0.6-0.3-0.8C-2148.6,81.5-2148.8,81.4-2149.1,81.4z M-2152.3,96.7h-23.5v-11h23.5V96.7
					z"/>
				<path class="st3" d="M-2179,169.6C-2179,169.6-2179,169.6-2179,169.6h29.8c0,0,0,0,0,0c0.3,0,0.6-0.1,0.8-0.3
					c0.2-0.2,0.3-0.5,0.3-0.8v-17.3c0-0.3-0.1-0.6-0.3-0.8c-0.2-0.2-0.5-0.3-0.8-0.3h-29.8c-0.3,0-0.5,0.1-0.8,0.3
					c-0.2,0.2-0.3,0.5-0.3,0.8v17.3c0,0.3,0.1,0.6,0.3,0.8C-2179.5,169.5-2179.2,169.6-2179,169.6z M-2175.8,154.4h23.5v11h-23.5
					V154.4z"/>
				<path class="st3" d="M-2192.5,158.6l-1,0c-5.3,0-10.3-2.9-12.9-7.5c-2.7-4.6-2.7-10.4,0-15c2.7-4.6,7.6-7.5,12.9-7.5h5.5v-4.2
					h-5.5c-6.8,0-13.2,3.7-16.6,9.6c-3.4,5.9-3.4,13.3,0,19.2c3.4,5.9,9.8,9.6,16.6,9.6l1,0v5.4l7.3-7.5l-7.3-7.5V158.6z"/>
				<path class="st3" d="M-2117.2,118c3.4-5.9,3.4-13.3,0-19.2c-3.4-5.9-9.8-9.6-16.6-9.6h-5.5v4.2h5.5c5.3,0,10.3,2.9,13,7.5
					c2.7,4.6,2.7,10.4,0,15c-2.7,4.6-7.6,7.5-13,7.5h-1V118l-7.3,7.5l7.3,7.5v-5.4l1,0C-2127,127.6-2120.7,123.9-2117.2,118z"/>
				<path class="st3" d="M-2179.7,116.1c-0.2,0.2-0.3,0.5-0.3,0.8v17.3c0,0.3,0.1,0.6,0.3,0.8c0.2,0.2,0.5,0.3,0.8,0.3h29.8
					c0.3,0,0.6-0.1,0.8-0.3c0.2-0.2,0.3-0.5,0.3-0.8v-17.3c0-0.3-0.1-0.6-0.3-0.8c-0.2-0.2-0.5-0.3-0.8-0.3c0,0,0,0,0,0h-29.8
					c0,0,0,0,0,0C-2179.2,115.8-2179.5,115.9-2179.7,116.1z M-2175.8,120h23.5v11h-23.5V120z"/>
			</g>
			<path class="st3" d="M-2237.3,204.4h2.6v-11.8h4.6v-2.2h-11.9v2.2h4.6V204.4z M-2219.4,199.1c0-3.3-2.3-5.5-5.4-5.5
				c-3.2,0-5.5,2.3-5.5,5.5s2.3,5.5,5.9,5.5c1.8,0,3.3-0.6,4.3-1.7l-1.3-1.5c-0.8,0.8-1.7,1.2-2.9,1.2c-1.9,0-3.2-1-3.5-2.6h8.4
				C-2219.4,199.6-2219.4,199.4-2219.4,199.1z M-2224.8,195.6c1.6,0,2.8,1.1,3,2.6h-6.1C-2227.6,196.7-2226.4,195.6-2224.8,195.6z
				 M-2214.6,195.3v-1.6h-2.4v10.7h2.5v-5.2c0-2.2,1.2-3.3,3.1-3.3c0.2,0,0.4,0,0.6,0.1v-2.4
				C-2212.6,193.6-2213.9,194.2-2214.6,195.3z M-2206.3,195.3v-1.6h-2.4v10.7h2.5v-5.2c0-2.2,1.2-3.3,3.1-3.3c0.2,0,0.4,0,0.6,0.1
				v-2.4C-2204.3,193.6-2205.6,194.2-2206.3,195.3z M-2199.2,192c0.9,0,1.6-0.7,1.6-1.6c0-0.8-0.7-1.4-1.6-1.4s-1.6,0.7-1.6,1.5
				S-2200.1,192-2199.2,192z M-2200.4,204.4h2.5v-10.7h-2.5V204.4z M-2188.9,202.1c-0.4,0.3-0.9,0.4-1.4,0.4c-1,0-1.5-0.6-1.5-1.6
				v-5.1h2.9v-2h-2.9v-2.4h-2.5v2.4h-1.8v2h1.8v5.1c0,2.4,1.3,3.6,3.7,3.6c0.9,0,1.8-0.2,2.4-0.7L-2188.9,202.1z M-2181.7,204.6
				c3.3,0,5.7-2.3,5.7-5.5c0-3.2-2.4-5.5-5.7-5.5c-3.3,0-5.7,2.3-5.7,5.5C-2187.4,202.3-2185,204.6-2181.7,204.6z M-2181.7,202.4
				c-1.8,0-3.2-1.3-3.2-3.3s1.4-3.3,3.2-3.3c1.8,0,3.2,1.3,3.2,3.3S-2179.9,202.4-2181.7,202.4z M-2171.2,195.3v-1.6h-2.4v10.7h2.5
				v-5.2c0-2.2,1.2-3.3,3.1-3.3c0.2,0,0.4,0,0.6,0.1v-2.4C-2169.2,193.6-2170.5,194.2-2171.2,195.3z M-2164.1,192
				c0.9,0,1.6-0.7,1.6-1.6c0-0.8-0.7-1.4-1.6-1.4c-0.9,0-1.6,0.7-1.6,1.5S-2165,192-2164.1,192z M-2165.3,204.4h2.5v-10.7h-2.5
				V204.4z M-2155.5,193.6c-1.7,0-3.4,0.4-4.5,1.3l1,1.8c0.8-0.7,2-1.1,3.2-1.1c1.8,0,2.7,0.9,2.7,2.3v0.2h-2.8
				c-3.2,0-4.4,1.4-4.4,3.2c0,1.9,1.5,3.2,4,3.2c1.6,0,2.8-0.5,3.4-1.4v1.3h2.4v-6.3C-2150.6,195.1-2152.4,193.6-2155.5,193.6z
				 M-2155.8,202.8c-1.3,0-2-0.6-2-1.5c0-0.8,0.5-1.4,2.2-1.4h2.6v1.2C-2153.5,202.2-2154.6,202.8-2155.8,202.8z M-2147.4,204.4h2.5
				v-14.8h-2.5V204.4z M-2140.3,192c0.9,0,1.6-0.7,1.6-1.6c0-0.8-0.7-1.4-1.6-1.4s-1.6,0.7-1.6,1.5S-2141.3,192-2140.3,192z
				 M-2141.6,204.4h2.5v-10.7h-2.5V204.4z M-2127.9,189.6v5.5c-0.8-1-2.1-1.4-3.4-1.4c-3.1,0-5.4,2.1-5.4,5.5s2.3,5.5,5.4,5.5
				c1.5,0,2.7-0.5,3.5-1.5v1.4h2.4v-14.8H-2127.9z M-2131,202.4c-1.8,0-3.2-1.3-3.2-3.3s1.4-3.3,3.2-3.3c1.8,0,3.2,1.3,3.2,3.3
				S-2129.2,202.4-2131,202.4z M-2118,193.6c-1.7,0-3.4,0.4-4.5,1.3l1,1.8c0.8-0.7,2-1.1,3.2-1.1c1.8,0,2.7,0.9,2.7,2.3v0.2h-2.8
				c-3.2,0-4.4,1.4-4.4,3.2c0,1.9,1.5,3.2,4,3.2c1.6,0,2.8-0.5,3.4-1.4v1.3h2.4v-6.3C-2113.2,195.1-2114.9,193.6-2118,193.6z
				 M-2118.4,202.8c-1.3,0-2-0.6-2-1.5c0-0.8,0.5-1.4,2.2-1.4h2.6v1.2C-2116.1,202.2-2117.1,202.8-2118.4,202.8z M-2101.9,189.6v5.5
				c-0.8-1-2.1-1.4-3.4-1.4c-3.1,0-5.4,2.1-5.4,5.5s2.3,5.5,5.4,5.5c1.5,0,2.7-0.5,3.5-1.5v1.4h2.4v-14.8H-2101.9z M-2105,202.4
				c-1.8,0-3.2-1.3-3.2-3.3s1.4-3.3,3.2-3.3c1.8,0,3.2,1.3,3.2,3.3S-2103.2,202.4-2105,202.4z M-2086.1,199.1c0-3.3-2.3-5.5-5.4-5.5
				c-3.2,0-5.5,2.3-5.5,5.5s2.3,5.5,5.9,5.5c1.8,0,3.3-0.6,4.3-1.7l-1.3-1.5c-0.8,0.8-1.7,1.2-2.9,1.2c-1.9,0-3.2-1-3.5-2.6h8.4
				C-2086.1,199.6-2086.1,199.4-2086.1,199.1z M-2091.5,195.6c1.6,0,2.8,1.1,3,2.6h-6.1C-2094.3,196.7-2093.1,195.6-2091.5,195.6z"
				/>
		</g>
	</g>
	<g id="empoderamento-button_00000102507708414616158750000001706970507763850898_">
		<g id="background_00000062886412332857193700000003971689353010288291_">
			<polygon class="st0" points="-2535.8,75.8 -2535.8,204.2 -2424.5,268.5 -2313.2,204.2 -2313.2,75.8 -2424.5,11.5 			"/>
			<polygon class="st1" points="-2535.8,204.2 -2424.5,268.5 -2313.2,204.2 -2313.2,75.8 			"/>
		</g>
		<g id="content_00000020367680575084961400000004828929029257042617_">
			<path class="st3" d="M-2508.6,202.4v-3.9h6.8v-2.1h-6.8v-3.6h7.6v-2.2h-10.2v14h10.5v-2.2H-2508.6z M-2484.5,193.8
				c-1.7,0-3.1,0.7-4,1.8c-0.7-1.2-2-1.8-3.6-1.8c-1.5,0-2.7,0.5-3.5,1.5v-1.4h-2.4v10.7h2.5v-5.4c0-2.1,1.1-3.2,2.8-3.2
				c1.5,0,2.4,0.9,2.4,2.8v5.8h2.5v-5.4c0-2.1,1.1-3.2,2.8-3.2c1.5,0,2.4,0.9,2.4,2.8v5.8h2.5v-6.1
				C-2480.1,195.2-2481.9,193.8-2484.5,193.8z M-2471,193.8c-1.5,0-2.7,0.5-3.5,1.5v-1.4h-2.4v14.6h2.5v-5.2c0.9,1,2.1,1.4,3.4,1.4
				c3.1,0,5.4-2.2,5.4-5.5C-2465.6,195.9-2467.9,193.8-2471,193.8z M-2471.3,202.6c-1.8,0-3.2-1.3-3.2-3.3c0-2,1.4-3.3,3.2-3.3
				c1.8,0,3.2,1.3,3.2,3.3C-2468.1,201.3-2469.5,202.6-2471.3,202.6z M-2458.4,204.7c3.3,0,5.7-2.3,5.7-5.5s-2.4-5.5-5.7-5.5
				c-3.3,0-5.7,2.3-5.7,5.5S-2461.7,204.7-2458.4,204.7z M-2458.4,202.6c-1.8,0-3.2-1.3-3.2-3.3c0-2,1.4-3.3,3.2-3.3
				c1.8,0,3.2,1.3,3.2,3.3C-2455.3,201.3-2456.6,202.6-2458.4,202.6z M-2442.4,189.7v5.5c-0.8-1-2.1-1.4-3.4-1.4
				c-3.1,0-5.4,2.1-5.4,5.5c0,3.3,2.3,5.5,5.4,5.5c1.5,0,2.7-0.5,3.5-1.5v1.4h2.4v-14.8H-2442.4z M-2445.5,202.6
				c-1.8,0-3.2-1.3-3.2-3.3c0-2,1.4-3.3,3.2-3.3c1.8,0,3.2,1.3,3.2,3.3C-2442.3,201.3-2443.7,202.6-2445.5,202.6z M-2426.6,199.3
				c0-3.3-2.3-5.5-5.4-5.5c-3.2,0-5.5,2.3-5.5,5.5c0,3.2,2.3,5.5,5.9,5.5c1.8,0,3.3-0.6,4.3-1.7l-1.3-1.5c-0.8,0.8-1.7,1.2-2.9,1.2
				c-1.9,0-3.2-1-3.5-2.6h8.4C-2426.6,199.8-2426.6,199.5-2426.6,199.3z M-2432,195.8c1.6,0,2.8,1.1,3,2.6h-6.1
				C-2434.8,196.8-2433.6,195.8-2432,195.8z M-2421.8,195.4v-1.6h-2.4v10.7h2.5v-5.2c0-2.2,1.2-3.3,3.1-3.3c0.2,0,0.4,0,0.6,0.1
				v-2.4C-2419.8,193.8-2421.1,194.3-2421.8,195.4z M-2411.8,193.8c-1.7,0-3.4,0.4-4.5,1.3l1,1.8c0.8-0.7,2-1.1,3.2-1.1
				c1.8,0,2.7,0.9,2.7,2.3v0.2h-2.8c-3.2,0-4.4,1.4-4.4,3.2c0,1.9,1.5,3.2,4,3.2c1.6,0,2.8-0.5,3.4-1.4v1.3h2.4v-6.3
				C-2407,195.2-2408.8,193.8-2411.8,193.8z M-2412.2,202.9c-1.3,0-2-0.6-2-1.5c0-0.8,0.5-1.4,2.2-1.4h2.6v1.2
				C-2409.9,202.3-2411,202.9-2412.2,202.9z M-2390.3,193.8c-1.7,0-3.1,0.7-4,1.8c-0.7-1.2-2-1.8-3.6-1.8c-1.5,0-2.7,0.5-3.5,1.5
				v-1.4h-2.4v10.7h2.5v-5.4c0-2.1,1.1-3.2,2.8-3.2c1.5,0,2.4,0.9,2.4,2.8v5.8h2.5v-5.4c0-2.1,1.1-3.2,2.8-3.2
				c1.5,0,2.4,0.9,2.4,2.8v5.8h2.5v-6.1C-2385.9,195.2-2387.7,193.8-2390.3,193.8z M-2372.6,199.3c0-3.3-2.3-5.5-5.4-5.5
				c-3.2,0-5.5,2.3-5.5,5.5c0,3.2,2.3,5.5,5.9,5.5c1.8,0,3.3-0.6,4.3-1.7l-1.3-1.5c-0.8,0.8-1.7,1.2-2.9,1.2c-1.9,0-3.2-1-3.5-2.6
				h8.4C-2372.6,199.8-2372.6,199.5-2372.6,199.3z M-2378,195.8c1.6,0,2.8,1.1,3,2.6h-6.1C-2380.8,196.8-2379.6,195.8-2378,195.8z
				 M-2364.1,193.8c-1.6,0-2.9,0.5-3.7,1.5v-1.4h-2.4v10.7h2.5v-5.4c0-2.1,1.2-3.2,3-3.2c1.6,0,2.5,0.9,2.5,2.8v5.8h2.5v-6.1
				C-2359.7,195.2-2361.6,193.8-2364.1,193.8z M-2350.8,202.2c-0.4,0.3-0.9,0.4-1.4,0.4c-1,0-1.5-0.6-1.5-1.6V196h2.9v-2h-2.9v-2.4
				h-2.5v2.4h-1.8v2h1.8v5.1c0,2.4,1.3,3.6,3.7,3.6c0.9,0,1.8-0.2,2.4-0.7L-2350.8,202.2z M-2343.6,204.7c3.3,0,5.7-2.3,5.7-5.5
				s-2.4-5.5-5.7-5.5c-3.3,0-5.7,2.3-5.7,5.5S-2346.8,204.7-2343.6,204.7z M-2343.6,202.6c-1.8,0-3.2-1.3-3.2-3.3
				c0-2,1.4-3.3,3.2-3.3c1.8,0,3.2,1.3,3.2,3.3C-2340.4,201.3-2341.7,202.6-2343.6,202.6z"/>
			<path class="st4" d="M-2410.4,71.8v-4.7c0-0.9,0.7-1.6,1.6-1.6c0.9,0,1.6,0.7,1.6,1.6v4.7c0,0.9-0.7,1.6-1.6,1.6
				C-2409.7,73.4-2410.4,72.7-2410.4,71.8z M-2472.2,131.4L-2472.2,131.4c-1-0.2-1.8-0.8-2.4-1.6c-0.6-0.9-0.6-2-0.2-3
				c0.7-1.4,1.5-2.7,2.5-3.9c0.8-1,1.6-2.1,2.3-3.2c0.1-0.3,0.3-0.5,0.5-0.8h0l0-0.1l0,0c1.1-1.9,2.2-3.9,2-5.4
				c-0.9-4.5-0.4-9.2,1.6-13.4h0c6.4-14,19.1-17.4,24.3-18.3c1.8-0.3,3.6-0.5,5.4-0.5l3.1,3.1c-0.5,0-1.1,0-1.6,0h0
				c-2.1,0-4.3,0.2-6.4,0.5c-4.7,0.8-16.1,3.9-21.9,16.5c-1.7,3.6-2.2,7.6-1.3,11.5l0,0c0.5,2.7-1,5.3-2.3,7.6l0,0
				c-0.2,0.3-0.3,0.6-0.5,0.8c-0.7,1.3-1.6,2.5-2.5,3.6c-0.8,0.9-1.5,2-2.1,3.1c0,0,0,0.1,0,0.1c0.2,0.1,4.9,2,5.6,2.6
				c0,0-1,3.2-1.7,4.7c-0.3,0.5-0.5,1.1-0.6,1.6c0.2,0,0.5,0,0.7,0h0c1,0,2.4,0,2.7,1.5c0.1,0.9-0.2,1.7-0.9,2.3
				c0.7,0.1,1.3,0.6,1.6,1.2c0.4,1,0.3,2.2,0.1,3.8c-0.3,1.5-0.3,3.1,0,4.6c0.2,0.6,0.6,1.1,1.1,1.5c0.7,0.5,1.6,0.7,2.5,0.6
				c5.9-0.6,11.6-2.6,16.6-5.7h0l0.2-0.1c3.2-1.9,4.3-3.4,4.2-4.2c-0.1-0.9,0.6-1.6,1.4-1.7c0.9-0.1,1.6,0.6,1.7,1.4v0
				c0.2,2.1-1.2,4.1-4.1,6.1c0.5,5.5,0.2,9.9-2.4,14.2h27.4c-1.9-2.5-2.8-5.8-2.7-9.8c0-0.8,0.7-1.5,1.6-1.5c0,0,0,0,0,0
				c0.9,0,1.5,0.7,1.5,1.6h0c-0.1,4.6,1.3,8,4.3,10c0.6,0.4,0.8,1.1,0.6,1.8c-0.2,0.7-0.8,1.1-1.5,1.1h-34.4c-0.6,0-1.2-0.4-1.4-0.9
				c-0.3-0.6-0.2-1.2,0.2-1.7v0c3.3-3.8,4-7.8,3.7-12.9c-5.2,3-10.9,4.8-16.8,5.5l0,0c-0.2,0-0.5,0-0.7,0c-1.4,0-2.8-0.4-4-1.2
				c-1.1-0.8-1.9-1.9-2.2-3.1c-0.4-1.9-0.4-3.9-0.1-5.8l0-0.1c0.1-0.5,0.1-1.2,0.2-1.7c-0.7-0.1-2.6-0.5-2.6-2.3
				c0-0.5,0.1-1,0.4-1.4c-0.3-0.1-0.7-0.2-1-0.4c-2-1.5-0.9-3.9-0.2-5.5c0.3-0.6,0.5-1.2,0.7-1.9
				C-2470.7,131.9-2472.1,131.4-2472.2,131.4z M-2407.7,131.1v12.4c0,0.9-0.7,1.6-1.6,1.6s-1.6-0.7-1.6-1.6v-12.4
				c0-0.9,0.7-1.6,1.6-1.6S-2407.7,130.3-2407.7,131.1z M-2415.6,85.2c-0.9-0.5-1.8-0.8-2.8-0.8h-1.1c-1.4,0-2.8,0.6-3.8,1.6
				c-1,1-1.6,2.4-1.6,3.8v5.9h-0.1v0c-1.2,0-2.4,0.5-3.2,1.4c-0.8,0.9-1.3,2-1.3,3.2v17.4c0,2.2,0.9,4.4,2.6,5.9l6.7,5.8
				c0.2,0.2,0.3,0.5,0.3,0.8l0,13.9c0,0.4,0.2,0.8,0.5,1.1c0.3,0.3,0.7,0.5,1.1,0.5h0c0.9,0,1.6-0.7,1.6-1.6l0-13.9
				c0.1-1.2-0.5-2.4-1.4-3.2l-6.7-5.8c-1-0.9-1.6-2.2-1.6-3.5v-17.4c0-0.8,0.6-1.5,1.4-1.5h12.1c0.8,0,1.6,0.3,2.2,0.9
				c0.6,0.6,1,1.4,1,2.2c0.1,1-0.3,1.9-0.9,2.6c-0.6,0.6-1.4,1-2.2,1h-5.8c-0.9,0-1.6,0.7-1.6,1.6v5.5c0,0.9,0.7,1.6,1.6,1.6h4.5
				c1.1,0,2,1,1.9,2.1v4.3c0,0.9,0.7,1.6,1.6,1.6s1.6-0.7,1.6-1.6v-4.3c0-1.4-0.5-2.7-1.5-3.7c-0.9-1-2.3-1.5-3.6-1.6h-2.9v-2.4h4.3
				c1.7,0,3.3-0.7,4.5-2c0.8-0.9,1.4-1.9,1.6-3.1c0.5,0.9,1.2,1.7,2,2.2c0.9,0.5,1.9,0.8,2.9,0.8h0.9c1.1,0,2.3-0.4,3.2-1
				c0.9,1.4,2.4,2.2,4,2.2h0.2c0.5,0,1-0.1,1.5-0.2v12.3c0,1-0.4,2-1,2.7l-6,6.5c-0.7,0.7-1,1.7-1,2.6v12.6c0,0.9,0.7,1.6,1.6,1.6
				s1.6-0.7,1.6-1.6v-12.6c0-0.2,0.1-0.4,0.2-0.5l6-6.5c1.2-1.3,1.8-3.1,1.8-4.9v-15.7c0.1-0.4,0.2-0.8,0.2-1.2v-9.4
				c0-1.3-0.5-2.5-1.4-3.4c-0.9-0.9-2.1-1.4-3.4-1.4h-0.2c-0.6,0-1.2,0.1-1.7,0.3c-0.2-1.3-0.8-2.5-1.8-3.4c-1-0.9-2.3-1.4-3.6-1.4
				h-0.9c-1,0-2,0.3-2.9,0.8c-0.5-0.9-1.2-1.7-2.1-2.3c-0.9-0.5-1.9-0.8-2.9-0.8h-1c-1,0-2,0.3-2.9,0.8
				C-2414.5,83.5-2415.2,84.2-2415.6,85.2L-2415.6,85.2z M-2421.9,89.8c0-1.3,1-2.3,2.3-2.3h1.1c1,0,1.9,0.7,2.2,1.7v6.5l-5.6,0
				V89.8z M-2393.5,92c0.9,0,1.6,0.7,1.6,1.6v9.2c-0.1,0.2-0.2,0.4-0.2,0.7v0.2c-0.3,0.6-0.8,1-1.5,1h-0.2c-0.9,0-1.6-0.7-1.6-1.6
				v-9.4c0-0.9,0.7-1.6,1.6-1.6H-2393.5z M-2401.8,87.5h0.9c1.3,0,2.4,1.1,2.4,2.4v11.2c0,1.3-1.1,2.4-2.4,2.4h-0.9
				c-1.3,0-2.4-1.1-2.4-2.4v-1.3c0.1-0.3,0.1-0.7,0.1-1v-9.5C-2403.8,88.2-2402.9,87.5-2401.8,87.5L-2401.8,87.5z M-2407.2,87.7
				l-0.1,11.4c-0.5-1-1.4-1.9-2.3-2.5c-1-0.6-2.1-0.9-3.3-0.9h-0.1l-0.1-8c0-1.4,1.1-2.5,2.5-2.5h1
				C-2408.3,85.2-2407.2,86.3-2407.2,87.7L-2407.2,87.7z M-2428.5,80.2l-3.6-3.6c-0.3-0.3-0.7-0.5-1.1-0.5c-0.4,0-0.8,0.2-1.1,0.5
				c-0.3,0.3-0.5,0.7-0.5,1.1c0,0.4,0.2,0.8,0.5,1.1l3.6,3.6h0c0.6,0.6,1.6,0.6,2.2,0C-2427.9,81.8-2427.9,80.8-2428.5,80.2
				L-2428.5,80.2z M-2443.3,100.6c0-0.9,0.7-1.6,1.6-1.6h5.2c0.9,0,1.6,0.7,1.6,1.6s-0.7,1.6-1.6,1.6h-5.2
				C-2442.6,102.1-2443.3,101.4-2443.3,100.6z M-2376.6,98.4h-4.7c-0.9,0-1.6,0.7-1.6,1.6s0.7,1.6,1.6,1.6h4.7
				c0.9,0,1.6-0.7,1.6-1.6S-2375.8,98.4-2376.6,98.4z M-2386.8,75.8c0.4,0,0.8,0.2,1.1,0.5c0.3,0.3,0.5,0.7,0.5,1.1
				c0,0.4-0.2,0.8-0.5,1.1l-3.6,3.6c-0.3,0.3-0.7,0.5-1.1,0.5c-0.4,0-0.8-0.2-1.1-0.5c-0.3-0.3-0.5-0.7-0.5-1.1
				c0-0.4,0.2-0.8,0.5-1.1v0l3.6-3.6C-2387.6,75.9-2387.2,75.8-2386.8,75.8z"/>
		</g>
	</g>
	<g id="autonomia-button_00000041266692647465450820000001826514679245714077_">
		<g id="background_00000031918396216794043490000005974558805428375476_">
			<polygon class="st0" points="-2795.8,75.8 -2795.8,204.2 -2684.5,268.5 -2573.2,204.2 -2573.2,75.8 -2684.5,11.5 			"/>
			<polygon class="st1" points="-2795.8,204.2 -2684.5,268.5 -2573.2,204.2 -2573.2,75.8 			"/>
		</g>
		<g id="content_00000114762523979270706350000017281819653860692871_">
			<path class="st2" d="M-2687.4,93.3L-2687.4,93.3c0-6.8-5.5-12.3-12.3-12.3c-6.8,0-12.3,5.5-12.3,12.3c0,6.8,5.5,12.3,12.3,12.3
				C-2692.9,105.6-2687.4,100.1-2687.4,93.3z M-2699.6,108.6c-8.4,0-15.3-6.9-15.3-15.3c0-8.5,6.8-15.3,15.3-15.3
				c8.4,0,15.3,6.9,15.3,15.3C-2684.4,101.7-2691.2,108.6-2699.6,108.6z M-2671.7,152.5c0.9,2.3,2.8,4.1,5.2,5.2
				c2.3,0.9,4.9,0.9,7.2,0c2.3-0.9,4.1-2.8,5.2-5.2c0.9-2.3,0.9-4.9,0-7.2c-2-4.8-7.6-7.1-12.4-5.2c-3.6,1.5-5.9,5.1-5.9,8.8
				C-2672.4,150.1-2672.1,151.3-2671.7,152.5z M-2665.4,142.8c3.4-1.4,7.2,0.2,8.6,3.6c0.3,0.8,0.5,1.6,0.5,2.5
				c0,0.9-0.2,1.7-0.5,2.5c-0.7,1.6-2,2.9-3.6,3.6c-1.6,0.7-3.4,0.7-5.1,0c-1.6-0.7-2.9-2-3.6-3.6
				C-2670.4,148-2668.8,144.2-2665.4,142.8L-2665.4,142.8z M-2684.3,144.2c0.3,0.8,0.9,1.4,1.7,1.7l1.5,0.6c-0.2,1.6-0.2,3.2,0,4.8
				l-1.5,0.6c-0.8,0.3-1.4,0.9-1.7,1.7c-0.2,0.4-0.3,0.8-0.3,1.2c0,0.4,0.1,0.9,0.3,1.2l1.1,2.8c0.3,0.8,0.9,1.4,1.7,1.7
				c0.8,0.3,1.6,0.3,2.5,0l1.5-0.6c0.9,1.3,2.2,2.4,3.4,3.4l-0.6,1.5c-0.3,0.8-0.3,1.6,0,2.5c0.3,0.8,0.9,1.4,1.7,1.7l2.8,1.1
				c0.8,0.3,1.6,0.3,2.5,0c0.8-0.3,1.4-0.9,1.7-1.7l0.6-1.5c1.6,0.2,3.2,0.2,4.8,0l0.6,1.5c0.3,0.8,0.9,1.4,1.7,1.7
				c0.8,0.3,1.6,0.3,2.5,0l2.8-1.1c0.8-0.3,1.4-0.9,1.7-1.7c0.3-0.8,0.3-1.6,0-2.5l-0.6-1.5c1.3-0.9,2.4-2.2,3.4-3.4l1.5,0.6
				c0.8,0.3,1.6,0.3,2.5,0c0.8-0.3,1.4-0.9,1.7-1.7l1.1-2.8c0.7-1.6-0.1-3.5-1.7-4.2l-1.5-0.6c0.2-1.6,0.2-3.2,0-4.8l1.5-0.6
				c1.6-0.7,2.4-2.6,1.7-4.2l-1.1-2.8c-0.3-0.8-0.9-1.4-1.7-1.7c-0.8-0.3-1.6-0.3-2.5,0l-1.5,0.6c-0.9-1.3-2.2-2.4-3.4-3.4l0.6-1.5
				c0.3-0.8,0.3-1.6,0-2.5c-0.3-0.8-0.9-1.4-1.7-1.7l-2.8-1.1c-1.6-0.7-3.5,0.1-4.2,1.7l-0.6,1.5c-1.6-0.2-3.2-0.2-4.8,0l-0.6-1.5
				c-0.7-1.6-2.6-2.4-4.2-1.7l-2.8,1.1c-0.4,0.2-0.8,0.5-1.1,0.8v-6.8c0-5.4-4.4-9.8-9.8-9.8h0h-31.4c-5.4,0-9.8,4.4-9.8,9.8v12.9v3
				h3h39.1c-0.1,0.1-0.1,0.2-0.2,0.4l-1.1,2.8C-2684.7,142.4-2684.7,143.3-2684.3,144.2z M-2674.1,138.3c0.8-0.8,1.7-1.5,2.6-2.2
				l0.9-0.7l-1.5-3.6c-0.1-0.2,0-0.4,0.2-0.4l2.8-1.1c0.2-0.1,0.4,0,0.4,0.2l1.5,3.6l1.1-0.3c2-0.4,4-0.4,6,0l1.1,0.3l1.5-3.6
				c0.1-0.2,0.3-0.3,0.4-0.2l2.8,1.1l0.2,0.2c0,0,0,0.1,0,0.1c0,0.1,0,0.1,0,0.2l-1.5,3.6l0.9,0.7c1.7,1.1,3.1,2.6,4.2,4.2l0.7,0.9
				l3.6-1.5c0.1-0.1,0.1,0,0.2,0c0,0,0.1,0,0.1,0c0.1,0,0.2,0.1,0.2,0.2l1.1,2.8c0.1,0.2,0,0.4-0.2,0.4l-3.6,1.5l0.3,1.1
				c0.4,2,0.4,4,0,6l-0.3,1.1l3.6,1.5c0.2,0.1,0.3,0.3,0.2,0.4l-1.1,2.8l-0.2,0.2c0,0-0.1,0-0.1,0c-0.1,0-0.1,0-0.2,0l-3.6-1.5
				l-0.7,0.9c-1.1,1.7-2.6,3.1-4.2,4.2l-0.9,0.7l1.5,3.6c0.1,0.1,0,0.1,0,0.2c0,0,0,0.1,0,0.1c0,0.1-0.1,0.2-0.2,0.2l-2.8,1.1
				c-0.1,0.1-0.1,0-0.2,0c0,0-0.1,0-0.1,0c-0.1,0-0.2-0.1-0.2-0.2l-1.5-3.6l-1.1,0.3c-2,0.4-4,0.4-6,0l-1.1-0.3l-1.5,3.6l-0.2,0.2
				c0,0-0.1,0-0.1,0c-0.1,0-0.1,0-0.2,0l-2.8-1.1l-0.2-0.2c0,0,0-0.1,0-0.1c0-0.1,0-0.1,0-0.2l1.5-3.6l-0.9-0.7
				c-1.7-1.1-3.1-2.6-4.2-4.2l-0.7-0.9l-3.6,1.5c-0.1,0.1-0.1,0-0.2,0c0,0-0.1,0-0.1,0c-0.1,0-0.2-0.1-0.2-0.2l-1.1-2.8
				c-0.1-0.1,0-0.1,0-0.2c0,0,0-0.1,0-0.1c0-0.1,0.1-0.2,0.2-0.2l3.6-1.5l-0.3-1.1c-0.4-2-0.4-4,0-6l0.3-1.1l-3.6-1.5l-0.2-0.2
				c0,0,0-0.1,0-0.1c0-0.1,0-0.1,0-0.2l1.1-2.8c0-0.1,0.1-0.2,0.2-0.2c0,0,0.1,0,0.1,0c0.1,0,0.1,0,0.2,0l3.6,1.5l0.7-0.9
				c0.4-0.7,0.9-1.3,1.5-1.9h0.1V138.3z M-2674.1,134.4L-2674.1,134.4L-2674.1,134.4C-2674.1,134.3-2674.1,134.4-2674.1,134.4z
				 M-2678.3,92.9l6.9,3.9v-2c20.2,0.5,23.7,11.2,19.3,22.7c-0.3,0.8,0.1,1.8,1,2.1c0.7,0.2,1.6-0.1,1.9-0.8
				c5.5-13.6,0.7-26.8-22.1-27.1l0.2-2.1L-2678.3,92.9z M-2698.9,149.3l-2.7-7.6l-4.7,7.1l2.2,0c-3.6,23.8,14.3,25.7,25.1,18.4
				c0.6-0.4,0.8-1.3,0.3-2c-0.5-0.7-1.4-0.8-2.1-0.4c-8.5,5.6-23.1,5.3-20.1-15.8L-2698.9,149.3z M-2677.1,122.6l0,12.9h-8.1
				c0,0,0,0,0,0v-8c0-0.8-0.7-1.5-1.5-1.5c-0.8,0-1.5,0.7-1.5,1.5v8c0,0,0,0,0,0c0,0,0,0,0,0h-23c0,0,0,0,0,0c0,0,0,0,0,0v-8
				c0-0.8-0.7-1.5-1.5-1.5c-0.8,0-1.5,0.7-1.5,1.5v8c0,0,0,0,0,0h-8v-12.9c0-3.8,3.1-6.8,6.8-6.8h31.4
				C-2680.2,115.7-2677.1,118.8-2677.1,122.6L-2677.1,122.6z"/>
			<path class="st3" d="M-2728.9,203.9h2.7l-6.3-14h-2.6l-6.3,14h2.7l1.4-3.2h7L-2728.9,203.9z M-2736.4,198.6l2.6-6.1l2.6,6.1
				H-2736.4z M-2717,193.2v5.4c0,2.1-1.2,3.2-2.9,3.2c-1.6,0-2.5-0.9-2.5-2.9v-5.8h-2.5v6.1c0,3.2,1.9,4.7,4.6,4.7
				c1.4,0,2.6-0.5,3.4-1.5v1.4h2.4v-10.7H-2717z M-2705.5,201.6c-0.4,0.3-0.9,0.4-1.4,0.4c-1,0-1.5-0.6-1.5-1.6v-5.1h2.9v-2h-2.9
				v-2.4h-2.5v2.4h-1.8v2h1.8v5.1c0,2.4,1.3,3.6,3.7,3.6c0.9,0,1.8-0.2,2.4-0.7L-2705.5,201.6z M-2698.3,204.1
				c3.3,0,5.7-2.3,5.7-5.5c0-3.2-2.4-5.5-5.7-5.5c-3.3,0-5.7,2.3-5.7,5.5C-2703.9,201.8-2701.5,204.1-2698.3,204.1z M-2698.3,201.9
				c-1.8,0-3.2-1.3-3.2-3.3s1.4-3.3,3.2-3.3c1.8,0,3.2,1.3,3.2,3.3S-2696.4,201.9-2698.3,201.9z M-2684.1,193.1
				c-1.6,0-2.9,0.5-3.7,1.5v-1.4h-2.4v10.7h2.5v-5.4c0-2.1,1.2-3.2,3-3.2c1.6,0,2.5,0.9,2.5,2.8v5.8h2.5v-6.1
				C-2679.6,194.6-2681.5,193.1-2684.1,193.1z M-2671.6,204.1c3.3,0,5.7-2.3,5.7-5.5c0-3.2-2.4-5.5-5.7-5.5c-3.3,0-5.7,2.3-5.7,5.5
				C-2677.3,201.8-2674.9,204.1-2671.6,204.1z M-2671.6,201.9c-1.8,0-3.2-1.3-3.2-3.3s1.4-3.3,3.2-3.3c1.8,0,3.2,1.3,3.2,3.3
				S-2669.8,201.9-2671.6,201.9z M-2650,193.1c-1.7,0-3.1,0.7-4,1.8c-0.7-1.2-2-1.8-3.6-1.8c-1.5,0-2.7,0.5-3.5,1.5v-1.4h-2.4v10.7
				h2.5v-5.4c0-2.1,1.1-3.2,2.8-3.2c1.5,0,2.4,0.9,2.4,2.8v5.8h2.5v-5.4c0-2.1,1.1-3.2,2.8-3.2c1.5,0,2.4,0.9,2.4,2.8v5.8h2.5v-6.1
				C-2645.6,194.6-2647.4,193.1-2650,193.1z M-2641.2,191.5c0.9,0,1.6-0.7,1.6-1.6c0-0.8-0.7-1.4-1.6-1.4c-0.9,0-1.6,0.7-1.6,1.5
				S-2642.1,191.5-2641.2,191.5z M-2642.4,203.9h2.5v-10.7h-2.5V203.9z M-2632.6,193.1c-1.7,0-3.4,0.4-4.5,1.3l1,1.8
				c0.8-0.7,2-1.1,3.2-1.1c1.8,0,2.7,0.9,2.7,2.3v0.2h-2.8c-3.2,0-4.4,1.4-4.4,3.2c0,1.9,1.5,3.2,4,3.2c1.6,0,2.8-0.5,3.4-1.4v1.3
				h2.4v-6.3C-2627.7,194.6-2629.5,193.1-2632.6,193.1z M-2632.9,202.2c-1.3,0-2-0.6-2-1.5c0-0.8,0.5-1.4,2.2-1.4h2.6v1.2
				C-2630.6,201.7-2631.7,202.2-2632.9,202.2z"/>
		</g>
	</g>
</g>
<g id="Imagem">
	<path class="st5" d="M-1017.9,274.8c-194.8,0-352.7,122.9-352.7,274.5c0,11.1,6.6,28.5,8.3,39.3c23.9-4.3,57.1-10.2,78.4-14
		c-0.3-2.8-4.7-8.5-4.8-11.3c-0.1-2.7-0.2-5.3-0.2-8c0-113.1,121.3-204.9,271-204.9s271,91.7,271,204.9c0,3-4.1,13.6-4.3,16.6
		c21.4,3.6,58.9,9.9,78.7,13.2c0.4-5.7,7.3-30,7.3-35.7C-665.2,397.7-823.1,274.8-1017.9,274.8z"/>
	<path class="st6" d="M-1017.9,254.8c-194.8,0-352.7,122.9-352.7,274.5c0,20.4,2.9,40.2,8.3,59.3l78.4-14c-3.3-12.7-5-25.9-5-39.3
		c0-113.1,121.3-204.9,271-204.9s271,91.7,271,204.9c0,12.5-1.5,24.7-4.3,36.6l78.7,13.2c4.8-18,7.3-36.6,7.3-55.7
		C-665.2,377.7-823.1,254.8-1017.9,254.8z"/>
	<path class="st7" d="M-1017.9,121.1c483.6,0,531.1,348.2,531.8,475.2c0,5.5,0,20,0,20l79.9,13.4c8.7-32.4,13.3-65.9,13.3-100.3
		c0-268.6-279.8-486.3-625-486.3s-625,217.7-625,486.3c0,36.6,5.2,72.3,15.1,106.6l74.7-13.2c0,0,0-13.6,0-20
		C-1554.3,478.5-1509.1,121.1-1017.9,121.1z"/>
	<path class="st8" d="M-1025.1,124.5c354.6,0,539,472.1,539,472.1l79.9,13.1c8.7-31.8,13.3-64.7,13.3-98.4
		c0-263.4-279.8-477-625-477s-625,213.5-625,477c0,35.9,5.2,70.9,15.1,104.6l79.6-13.9C-1548.2,602-1379.6,124.5-1025.1,124.5z"/>
	<g>
		<path class="st9" d="M-670.5,481.6v20c3.5,15.5,5.3,31.4,5.3,47.7c0,6.3,1.9,14.7,0,21.7c-1.4,5.4-2.8,11.2-7.3,14.1
			c47.8,8,131.3,22,186.4,31.2C-486.1,591.6-670.5,488.4-670.5,481.6z"/>
		<path class="st10" d="M-507,385.1c8.8,18.9,15.9,38.3,21.2,58.3C-491.1,423.4-498.2,403.9-507,385.1z"/>
		<path class="st11" d="M-482.5,457l-188,24.7c3.5,15.5,5.3,31.4,5.3,47.7c0,19.1-2.5,37.7-7.3,55.7l186.4,31.2c0-6.4,0-13,0-20
			c4.6-22.1,11.5-43.9,11.5-67C-474.6,504.6-477.3,480.5-482.5,457z"/>
		<path class="st12" d="M-670.5,501.6v-20c-11.7-52.8-11.6-50.7-46-94.9v20C-694.1,435.3-678.2,467.4-670.5,501.6z"/>
		<path class="st13" d="M-716.5,406.7v-20c-34.9-44.8-33.5-43.2-86.6-75.1v20C-768.6,352.2-739.2,377.7-716.5,406.7z"/>
		<path class="st14" d="M-803.1,331.6v-20c-52.3-31.4-49.8-30.6-114.8-45.6v20C-875.8,295.7-837,311.3-803.1,331.6z"/>
		<path class="st15" d="M-670.5,481.6l188-24.7c-11.7-52.8-36-102.3-70.4-146.5l-163.6,76.2C-694.1,415.3-678.2,447.4-670.5,481.6z"
			/>
		<path class="st16" d="M-716.5,386.7l163.6-76.2c-34.9-44.8-80.2-84.2-133.3-116.1l-116.8,117.2
			C-768.6,332.2-739.2,357.7-716.5,386.7z"/>
		<path class="st17" d="M-803.1,311.6l116.8-117.2c-52.3-31.4-112.2-55.6-177.1-70.5L-917.8,266C-875.8,275.7-837,291.3-803.1,311.6
			z"/>
		<path class="st18" d="M-1017.9,274.8c34.8,0,68.3,3.9,100.1,11.2v-20c-54.9-13.2-30.8-139.5-100.1-139.5
			c-60,0-46.7,125.7-100.7,139.7v20C-1086.7,278.8-1052.9,274.8-1017.9,274.8z"/>
		<path class="st19" d="M-1017.9,254.8c34.8,0,68.3,3.9,100.1,11.2l54.5-142.2c-54.9-13.2-85.2-17.4-154.5-17.4
			c-60,0-101.6,3.6-155.5,17.6l54.8,142.1C-1086.7,258.8-1052.9,254.8-1017.9,254.8z"/>
		<path class="st20" d="M-1284.3,369.4v-20l-144.7-76.6c-53,47.6-92.5,104.6-113.9,167.2l184.4,17.6v20
			C-1344.4,437.1-1318.7,400.2-1284.3,369.4z"/>
		<path class="st21" d="M-1118.6,286.2v-20l-54.8-122.1c-92.2,20.9-190.9,68.3-255.5,128.7l144.7,76.6v20
			C-1240.9,330.5-1183.7,301.3-1118.6,286.2z"/>
		<path class="st22" d="M-1284.3,349.4l-144.7-96.6c-53,47.6-92.5,104.6-113.9,167.2l184.4,37.6
			C-1344.4,417.1-1318.7,380.2-1284.3,349.4z"/>
		<path class="st23" d="M-1118.6,266.2l-54.8-142.1c-92.2,20.9-190.9,68.3-255.5,128.7l144.7,96.6
			C-1240.9,310.5-1183.7,281.3-1118.6,266.2z"/>
		<path class="st24" d="M-1370.6,549.3c0-24.8,4.2-48.8,12.1-71.6v-20l-184.4-17.6c-11.9,34.8-14.2,70.8-14.2,108.6
			c0,23.1,4.3,51,8.9,73.1c46.3-8.3,154.2-27.5,185.9-33.1c-0.9-4.8-6.4-10.7-7-15.6C-1370.2,565.2-1370.6,557.3-1370.6,549.3z"/>
		<path class="st25" d="M-1370.6,529.3c0-24.8,4.2-48.8,12.1-71.6l-184.4-37.6c-11.9,34.8-18.3,71.5-18.3,109.2
			c0,25,2.8,49.6,8.2,73.4c0,6.5-0.1,13.2-0.1,20l190.8-34.1C-1367.7,569.5-1370.6,549.6-1370.6,529.3z"/>
	</g>
	<path class="st26" d="M-872.4,547.7v-18.4h-373.1v18.4c0,70.6,83.5,127.9,186.5,127.9C-955.9,675.6-872.4,618.3-872.4,547.7
		L-872.4,547.7z"/>
	<ellipse class="st27" cx="-1017.9" cy="529.3" rx="196.4" ry="127.9"/>
	<path id="SVGID_x5F_00000057135734014223432720000010948407945531335312_x5F_" class="st38" d="M-807.4,529.3
		c0,75.7-94.3,137.1-210.5,137.1s-210.5-61.4-210.5-137.1s94.3-137.1,210.5-137.1S-807.4,453.6-807.4,529.3z"/>
	<text>	<textPath  xlink:href="#SVGID_x5F_00000057135734014223432720000010948407945531335312_x5F_" startOffset="9800%">
<tspan  style="fill:#5B5B5B; font-family:'Montserrat-SemiBold'; font-size:30px; letter-spacing:47.5;">Estilo de vida dos indivduos</tspan>	</textPath>
</text>
	<path id="SVGID_x5F_00000016753447120146963350000007536822263853531321_x5F_" class="st38" d="M-454.4,529.3
		c0,247.1-252.3,447.4-563.5,447.4s-563.5-200.3-563.5-447.4s252.3-447.4,563.5-447.4S-454.4,282.2-454.4,529.3z"/>
	<text>	<textPath  xlink:href="#SVGID_x5F_00000016753447120146963350000007536822263853531321_x5F_" startOffset="9800%">
<tspan  class="st3" style="font-family:'Montserrat-SemiBold'; font-size:30.5847px; letter-spacing:173.7;">Condies socioeconmicas, culturais e ambientais gerais </tspan>	</textPath>
</text>
	<path id="SVGID_x5F_00000029027160659892122150000003379787798264119695_x5F_" class="st38" d="M-735,529.3
		c0,115.5-126.7,209.1-282.9,209.1s-282.9-93.6-282.9-209.1s126.7-209.1,282.9-209.1S-735,413.8-735,529.3z"/>
	<text>	<textPath  xlink:href="#SVGID_x5F_00000029027160659892122150000003379787798264119695_x5F_" startOffset="9800%">
<tspan  style="fill:#662A01; font-family:'Montserrat-SemiBold'; font-size:30px; letter-spacing:107.8;">Redes sociais e comunitrias</tspan>	</textPath>
</text>
	<rect x="-1183" y="485.1" class="st38" width="330.2" height="69.5"/>
	<text transform="matrix(1.0527 0 0 1 -1123.6116 510.6113)"><tspan x="0" y="0" style="fill:#662A01; font-family:'Montserrat-SemiBold'; font-size:30px;">Idade, sexo e </tspan><tspan x="-51.1" y="36" style="fill:#662A01; font-family:'Montserrat-SemiBold'; font-size:30px;">fatores hereditrios</tspan></text>
	<rect x="-1553.1" y="487.5" class="st38" width="173.8" height="84.4"/>
	<text transform="matrix(1.0527 0 0 1 -1529.2776 507.8799)"><tspan x="0" y="0" class="st3" style="font-family:'Montserrat-SemiBold'; font-size:24px;">Produo </tspan><tspan x="-19.5" y="28.8" class="st3" style="font-family:'Montserrat-SemiBold'; font-size:24px;">agrcola e de </tspan><tspan x="-1.6" y="57.6" class="st3" style="font-family:'Montserrat-SemiBold'; font-size:24px;">alimentos</tspan></text>
	<rect x="-1500.5" y="356.3" class="st38" width="173.8" height="26.8"/>
	
		<text transform="matrix(1.0527 0 0 1 -1477.4836 376.7324)" class="st3" style="font-family:'Montserrat-SemiBold'; font-size:24px;">Educao</text>
	<rect x="-1347.2" y="226.3" class="st38" width="173.8" height="55.6"/>
	<text transform="matrix(1.0527 0 0 1 -1345.1672 246.7017)"><tspan x="0" y="0" class="st3" style="font-family:'Montserrat-SemiBold'; font-size:24px;">Ambiente de </tspan><tspan x="28.2" y="28.8" class="st3" style="font-family:'Montserrat-SemiBold'; font-size:24px;">trabalho</tspan></text>
	<rect x="-1104.8" y="144.5" class="st38" width="173.8" height="84.4"/>
	<text transform="matrix(1.0527 0 0 1 -1086.0588 164.9321)"><tspan x="0" y="0" class="st3" style="font-family:'Montserrat-SemiBold'; font-size:24px;">Condies </tspan><tspan x="-10" y="28.8" class="st3" style="font-family:'Montserrat-SemiBold'; font-size:24px;">de vida e de </tspan><tspan x="12.4" y="57.6" class="st3" style="font-family:'Montserrat-SemiBold'; font-size:24px;">trabalho</tspan></text>
	<rect x="-899.5" y="209.7" class="st38" width="173.8" height="26.8"/>
	
		<text transform="matrix(1.0527 0 0 1 -897.2639 230.0698)" class="st3" style="font-family:'Montserrat-SemiBold'; font-size:24px;">Desemprego</text>
	<rect x="-773.1" y="276.2" class="st38" width="173.8" height="55.6"/>
	<text transform="matrix(1.0527 0 0 1 -732.0803 296.6113)"><tspan x="0" y="0" class="st3" style="font-family:'Montserrat-SemiBold'; font-size:24px;">gua e </tspan><tspan x="1" y="28.8" class="st3" style="font-family:'Montserrat-SemiBold'; font-size:24px;">esgoto</tspan></text>
	<rect x="-686.2" y="372.8" class="st38" width="173.8" height="84.4"/>
	<text transform="matrix(1.0527 0 0 1 -653.3859 393.2422)"><tspan x="0" y="0" class="st3" style="font-family:'Montserrat-SemiBold'; font-size:24px;">Servios </tspan><tspan x="-9" y="28.8" class="st3" style="font-family:'Montserrat-SemiBold'; font-size:24px;">sociais de </tspan><tspan x="14" y="57.6" class="st3" style="font-family:'Montserrat-SemiBold'; font-size:24px;">sade</tspan></text>
	<rect x="-660.4" y="526.2" class="st38" width="173.8" height="26.8"/>
	
		<text transform="matrix(1.0527 0 0 1 -639.9279 546.6045)" class="st3" style="font-family:'Montserrat-SemiBold'; font-size:24px;">Habitao</text>
	<g>
		<g>
			<defs>
				<polygon id="SVGID_1_" points="1433.2,79.3 2575.7,79.3 2575.7,716.4 1433.2,716.4 1433.2,79.3 				"/>
			</defs>
			<clipPath id="SVGID_00000037668228497764367240000002619941593209928362_">
				<use xlink:href="#SVGID_1_"  style="overflow:visible;"/>
			</clipPath>
			<g style="clip-path:url(#SVGID_00000037668228497764367240000002619941593209928362_);">
				
					<image style="overflow:visible;" width="521" height="314" xlink:href="FBF249CB.jpg"  transform="matrix(2.1951 0 0 2.0339 1433.1913 79.2906)">
				</image>
			</g>
		</g>
	</g>
	<rect x="331.7" y="474" class="st28" width="600" height="100"/>
	<polygon class="st29" points="931.7,474 331.7,474 351.7,434 911.7,434 	"/>
	<rect x="381.7" y="384" class="st30" width="500" height="100"/>
	<polygon class="st31" points="881.7,384 381.7,384 401.7,344 861.7,344 	"/>
	<rect x="431.7" y="273.1" class="st32" width="400" height="100"/>
	<polygon class="st33" points="831.7,273.1 431.7,273.1 451.7,233.1 811.7,233.1 	"/>
	<rect x="481.7" y="162.6" class="st34" width="300" height="100"/>
	<polygon class="st35" points="781.7,162.6 481.7,162.6 501.7,122.6 761.7,122.6 	"/>
	<rect x="531.7" y="52.6" class="st36" width="200" height="100"/>
	<polygon class="st37" points="731.7,52.6 531.7,52.6 551.7,12.6 711.7,12.6 	"/>
	<rect x="531.4" y="82.9" class="st38" width="200.2" height="46.2"/>
	<text transform="matrix(1.0527 0 0 1 591.7688 99.8987)"><tspan x="0" y="0" class="st3 st39 st40">Nvel 5:</tspan><tspan x="-37.8" y="24" class="st3 st41 st40">Gesto de caso</tspan></text>
	<rect x="515" y="178.6" class="st38" width="233.1" height="70.2"/>
	<text transform="matrix(1.0527 0 0 1 590.7795 195.615)"><tspan x="0" y="0" class="st3 st39 st40">Nvel 4:</tspan><tspan x="-60" y="24" class="st3 st41 st40">Gesto da condio </tspan><tspan x="-7.1" y="48" class="st3 st41 st40">de sade</tspan></text>
	<rect x="440.7" y="300.4" class="st38" width="381.7" height="46.2"/>
	<text transform="matrix(1.0527 0 0 1 591.8 317.3781)"><tspan x="0" y="0" class="st3 st39 st40">Nvel 3:</tspan><tspan x="-109.4" y="24" class="st3 st41 st40">Gesto da condio de sade</tspan></text>
	<rect x="474.4" y="400.8" class="st38" width="314.3" height="70.2"/>
	<text transform="matrix(1.0527 0 0 1 591.8215 417.8279)"><tspan x="0" y="0" class="st3 st39 st40">Nvel 2:</tspan><tspan x="-98.1" y="24" class="st3 st41 st40">Intervenes de preveno </tspan><tspan x="-81.8" y="48" class="st3 st41 st40">das condies de sade</tspan></text>
	<rect x="387.9" y="506.2" class="st38" width="487.4" height="46.2"/>
	<text transform="matrix(1.0527 0 0 1 593.9055 523.2286)"><tspan x="0" y="0" class="st3 st39 st40">Nvel 1:</tspan><tspan x="-147.3" y="24" class="st3 st41 st40">Intervenes de promoo da sade</tspan></text>
	<text transform="matrix(1.0527 0 0 1 482.3293 696.0314)" class="st42 st39 st40">Modelo de ateno crnica</text>
	<text transform="matrix(1.0527 0 0 1 57.5345 696.0314)" class="st42 st39 st40">Modelo da pirmide de riscos</text>
	<text transform="matrix(1.0527 0 0 1 858.4803 696.0314)" class="st42 st39 st40">Modelo da determinao social da sade</text>
	<rect x="10" y="607" class="st38" width="297.4" height="22.3"/>
	<text transform="matrix(1.0527 0 0 1 10.0003 623.9717)" class="st42 st41 st40">Populao total</text>
	<rect x="10" y="386.9" class="st38" width="321.7" height="94.2"/>
	<text transform="matrix(1.0527 0 0 1 9.9997 403.8514)"><tspan x="0" y="0" class="st42 st41 st40">Subpopulao com fatores de </tspan><tspan x="0" y="24" class="st42 st41 st40">risco ligados aos </tspan><tspan x="0" y="48" class="st42 st41 st40">comportamentos e estilo de </tspan><tspan x="0" y="72" class="st42 st41 st40">vidatotal</tspan></text>
	<rect x="10" y="276.4" class="st38" width="321.7" height="94.2"/>
	<text transform="matrix(1.0527 0 0 1 10 293.3778)"><tspan x="0" y="0" class="st42 st41 st40">Subpopulao com condio </tspan><tspan x="0" y="24" class="st42 st41 st40">crnica simples e/ou com </tspan><tspan x="0" y="48" class="st42 st41 st40">fator de risco </tspan><tspan x="0" y="72" class="st42 st41 st40">biopsicolgicototal</tspan></text>
	<rect x="12.2" y="189.5" class="st38" width="321.7" height="46.2"/>
	<text transform="matrix(1.0527 0 0 1 12.2077 206.515)"><tspan x="0" y="0" class="st42 st41 st40">Subpopulao com condio </tspan><tspan x="0" y="24" class="st42 st41 st40">crnica complexa</tspan></text>
	<rect x="10" y="79.5" class="st38" width="321.7" height="46.2"/>
	<text transform="matrix(1.0527 0 0 1 10 96.5151)"><tspan x="0" y="0" class="st42 st41 st40">Subpopulao com condio </tspan><tspan x="0" y="24" class="st42 st41 st40">crnica muito complexatotal</tspan></text>
	<rect x="942.4" y="149.8" class="st38" width="300.2" height="94.2"/>
	<text transform="matrix(1.0527 0 0 1 942.3693 166.7648)"><tspan x="0" y="0" class="st42 st41 st40">Determinantes sociais </tspan><tspan x="0" y="24" class="st42 st41 st40">individuais com condio </tspan><tspan x="0" y="48" class="st42 st41 st40">de sade e/ou fator de risco </tspan><tspan x="0" y="72" class="st42 st41 st40">biopsicologico estabelecido</tspan></text>
	<rect x="1034.9" y="311" class="st38" width="321.7" height="46.2"/>
	<text transform="matrix(1.0527 0 0 1 1034.8511 328.0075)"><tspan x="0" y="0" class="st42 st41 st40">Relao autocuidado / </tspan><tspan x="0" y="24" class="st42 st41 st40">ateno profissional</tspan></text>
	<rect x="950.1" y="455.6" class="st38" width="321.7" height="46.2"/>
	<text transform="matrix(1.0527 0 0 1 950.1062 472.5546)"><tspan x="0" y="0" class="st42 st41 st40">Determinantes sociais da </tspan><tspan x="0" y="24" class="st42 st41 st40">sade proximais</tspan></text>
	<rect x="950.1" y="563.1" class="st38" width="321.7" height="46.2"/>
	<text transform="matrix(1.0527 0 0 1 950.1062 580.1084)"><tspan x="0" y="0" class="st42 st41 st40">Determinantes sociais da </tspan><tspan x="0" y="24" class="st42 st41 st40">sade intermedirias</tspan></text>
	<polyline class="st43" points="881.7,52.6 902,52.6 902,373.1 881.7,373.1 	"/>
</g>
<g id="GUIDE">
</g>
</svg>
