<?xml version="1.0" encoding="utf-8"?>
<!-- Generator: Adobe Illustrator 27.1.1, SVG Export Plug-In . SVG Version: 6.00 Build 0)  -->
<svg version="1.1" id="Layer_1" xmlns="http://www.w3.org/2000/svg" xmlns:xlink="http://www.w3.org/1999/xlink" x="0px" y="0px"
	 viewBox="0 0 589 152" style="enable-background:new 0 0 589 152;" xml:space="preserve">
<style type="text/css">
	.st0{fill:#FFFFFF;}
	.st1{fill-rule:evenodd;clip-rule:evenodd;fill:#0B5DA6;}
	.st2{fill:none;stroke:#000000;stroke-miterlimit:10;}
	.st3{fill:#585856;}
	.st4{fill:none;stroke:#585856;}
</style>
<path class="st0" d="M571.3,124.1c0,7.8-6.4,14.2-14.2,14.2H34c-7.8,0-14.2-6.4-14.2-14.2V33.8c0-7.8,6.4-14.2,14.2-14.2h523.2
	c7.8,0,14.2,6.4,14.2,14.2V124.1z"/>
<path class="st1" d="M74.1,90.2c-3.6,0-6.5-2.6-6.5-5.8V73.5h4.9v11.4c0,1.4,1.3,2.6,2.9,2.6c1.5,0,2.9-1.1,2.9-2.6V73.5h2.3v10.9
	C80.5,87.6,77.6,90.2,74.1,90.2 M60.3,83.6l-3-0.9c-1.8-0.6-3.2-2.5-3.2-4.5c0-2.7,2.1-4.8,4.8-4.8h6v2.1h-4.2
	c-0.8,0-1.5,0.6-1.5,1.5c0,0.5,0.3,1.2,1,1.3l2.9,1c2,0.6,3,2.7,3,5c0,2.9-2.3,5.3-5.2,5.3h-6.3v-2.4h5.4c0.8,0,1.7-0.8,1.7-1.9
	C61.6,84.6,61.1,83.9,60.3,83.6 M88.1,83.6l-3-0.9c-2-0.6-3.3-2.5-3.3-4.5c0-2.7,2.1-4.8,4.8-4.8h6v2.1h-4.2c-0.8,0-1.5,0.6-1.5,1.5
	c0,0.5,0.3,1.2,1,1.3l2.9,1c2,0.6,3.1,2.7,3.1,5c0,2.9-2.4,5.3-5.3,5.3h-6.3v-2.4h5.4c0.8,0,1.7-0.8,1.7-1.9
	C89.3,84.6,88.9,83.9,88.1,83.6"/>
<path class="st1" d="M129.4,89.6h1.9v12.3c-0.2-1.3-0.9-8.8-0.8-11.1C130.2,90.5,129.4,89.6,129.4,89.6 M115,76.5L115,76.5l-2.1-2.1
	c-2.7,0-11.6-0.9-14.4-1.4v15.8c14.1,1.4,21.6,1.8,29.9,1.5h0.1L115,76.5z M115.1,72.1h15.8V56.8h-15.8V72.1z M102.8,73
	c1,0.1,10.3,0.9,10.9,0.9l14.6,14.9h18.8V73H102.8z M129.5,91.1c0,0-8.4,0.6-15.6-0.1c0.2,8.7,1.2,13.2,1.4,14.2h15.7
	C130.2,100.7,129.6,93.2,129.5,91.1"/>
<path class="st2" d="M571.3,124.1c0,7.8-6.4,14.2-14.2,14.2H34c-7.8,0-14.2-6.4-14.2-14.2V33.8c0-7.8,6.4-14.2,14.2-14.2h523.2
	c7.8,0,14.2,6.4,14.2,14.2V124.1z"/>
<path class="st3" d="M230.3,78.4l1.4-17.4c0.3-0.1,0.8-0.1,1.3-0.1c0.6,0,1,0,1.3,0.1l2.9,9c0.2,0.4,0.4,1.1,0.6,2
	c0.2,0.9,0.4,1.5,0.4,1.7h0.1c0.2-1.2,0.6-2.4,1.1-3.7l2.9-9c0.4-0.1,0.8-0.1,1.3-0.1c0.5,0,0.9,0,1.3,0.1l1.4,17.4
	c-0.3,0.1-0.6,0.1-1,0.1c-0.3,0-0.6,0-0.9-0.1l-0.7-10.6c0-0.8-0.1-2.4-0.2-4.8h-0.1l-4,12.6c-0.4,0.1-0.8,0.1-1,0.1
	c-0.3,0-0.6,0-0.9-0.1l-4-12.6h-0.1c0,0.4,0,1.2-0.1,2.4c0,1.2-0.1,2-0.1,2.4l-0.7,10.6c-0.3,0.1-0.6,0.1-1,0.1
	C230.9,78.6,230.6,78.5,230.3,78.4"/>
<path class="st3" d="M250,78.5V61c0.2,0,0.6-0.1,0.9-0.1c0.4,0,0.7,0,1,0.1v17.4c-0.3,0.1-0.6,0.1-1,0.1
	C250.5,78.5,250.2,78.5,250,78.5"/>
<path class="st3" d="M268,61l0.1,0.1v17.4c-0.3,0-0.7,0.1-1.2,0.1c-0.5,0-0.9,0-1.2-0.1l-6.2-11.6c-0.5-1-1.1-2.1-1.7-3.5h-0.1
	c0.1,3.2,0.2,5,0.2,5.5v9.6c-0.4,0-0.7,0.1-0.9,0.1c-0.3,0-0.6,0-0.9-0.1V61c0.3-0.1,0.7-0.1,1.2-0.1c0.5,0,0.9,0,1.2,0.1l6.2,11.6
	c0.4,0.7,1,1.9,1.8,3.6h0.1c-0.1-2.2-0.2-4.1-0.2-5.8v-8.1c0-0.5,0.1-0.8,0.2-1c0.1-0.2,0.4-0.3,0.8-0.3H268z"/>
<path class="st3" d="M272.3,78.5V61c0.2,0,0.5-0.1,0.9-0.1c0.4,0,0.7,0,1,0.1v17.4c-0.3,0.1-0.6,0.1-1,0.1
	C272.9,78.5,272.6,78.5,272.3,78.5"/>
<path class="st3" d="M276.9,76.9c0.1-0.6,0.4-1.1,0.9-1.6c1.7,1.2,3.4,1.8,5.1,1.8c1.2,0,2.2-0.3,2.9-0.8c0.7-0.5,1-1.2,1-2.1
	c0-1.3-0.9-2.4-2.7-3.2l-3-1.3c-2.3-1-3.4-2.4-3.4-4.3c0-0.6,0.1-1.3,0.4-1.8c0.3-0.6,0.7-1.1,1.1-1.5c0.5-0.4,1.1-0.8,1.7-1
	c0.7-0.2,1.4-0.4,2.3-0.4c1.7,0,3.3,0.4,5.1,1.2c0,0.7-0.3,1.2-0.8,1.6c-0.8-0.4-1.6-0.7-2.3-0.9c-0.7-0.2-1.4-0.3-2-0.3
	c-0.5,0-1,0.1-1.5,0.2c-0.4,0.2-0.8,0.3-1.1,0.6c-0.3,0.3-0.6,0.5-0.7,0.9c-0.2,0.3-0.3,0.7-0.3,1c0,0.7,0.2,1.3,0.7,1.7
	c0.4,0.4,1,0.8,1.8,1.1l2.9,1.3c2.5,1.1,3.8,2.6,3.8,4.6c0,1.5-0.5,2.7-1.5,3.6c-1,0.9-2.6,1.4-4.7,1.4
	C280.6,78.8,278.7,78.2,276.9,76.9"/>
<path class="st3" d="M297.6,62.7l-1.4,0v15.8c-0.3,0.1-0.6,0.1-1,0.1c-0.4,0-0.7,0-1-0.1V62.7l-1.4,0h-3.3c0-0.3-0.1-0.6-0.1-0.8
	c0-0.3,0-0.5,0.1-0.9h11.2c0.1,0.2,0.1,0.5,0.1,0.8c0,0.6-0.4,0.9-1.2,0.9H297.6z"/>
<path class="st3" d="M304.8,75.8l0,1c0.6,0,1.1-0.1,1.6-0.1h7c0,0.4,0,0.6-0.1,0.8c-0.1,0.6-0.5,0.9-1.3,0.9h-8
	c-0.3,0-0.6-0.1-0.8-0.3c-0.2-0.2-0.3-0.5-0.3-0.9v-16l0.2-0.2h9.9c0,0.2,0,0.5,0,0.8c0,0.3,0,0.6-0.1,0.9h-8.1l0,1.6v4.5l1.5,0h5.3
	c0,0.3,0.1,0.6,0.1,0.8c0,0.3,0,0.5-0.1,0.8h-5.3c-0.6,0-1.2,0-1.5,0V75.8z M305.8,58.8l4.9-2.8c0.5,0.3,0.8,0.9,1,1.7l-5.2,2.2
	C306.1,59.6,305.9,59.3,305.8,58.8"/>
<path class="st3" d="M316.5,61l5.2-0.1c1.8,0,3.1,0.4,4.1,1.3c1,0.9,1.5,2.1,1.5,3.7c0,1.1-0.3,2.1-0.9,3c-0.6,0.8-1.4,1.4-2.4,1.7
	c0.7,0.2,1.3,0.9,1.7,2.1l1.3,3.4c0.2,0.5,0.4,0.9,0.6,1.2c0.2,0.3,0.4,0.5,0.5,0.7c-0.3,0.4-0.7,0.6-1.4,0.6
	c-0.4,0-0.6-0.1-0.8-0.3c-0.2-0.2-0.4-0.5-0.6-1l-1.5-3.9c-0.3-0.8-0.6-1.3-1-1.7c-0.4-0.4-1-0.6-1.8-0.6h-2.7v7.4
	c-0.3,0-0.6,0.1-1,0.1c-0.4,0-0.7,0-0.9-0.1V61.2L316.5,61z M318.2,62.5v7c0.4,0,0.8,0,1.3,0c0.5,0,1.1,0,1.9,0
	c0.7,0,1.3-0.1,1.8-0.3c0.5-0.2,0.8-0.4,1.1-0.7c0.3-0.3,0.5-0.7,0.6-1.1c0.1-0.4,0.2-0.9,0.2-1.3c0-0.5-0.1-0.9-0.2-1.3
	c-0.1-0.4-0.3-0.8-0.6-1.1c-0.3-0.3-0.7-0.6-1.2-0.7c-0.5-0.2-1.1-0.3-1.8-0.3h-1.8C319,62.6,318.6,62.6,318.2,62.5"/>
<path class="st3" d="M330.5,78.5V61c0.2,0,0.6-0.1,0.9-0.1c0.4,0,0.7,0,1,0.1v17.4c-0.3,0.1-0.6,0.1-1,0.1
	C331.1,78.5,330.8,78.5,330.5,78.5"/>
<path class="st3" d="M338.3,77.3c-1.8-1.6-2.7-4.1-2.7-7.5c0-1.3,0.1-2.6,0.4-3.7c0.3-1.1,0.7-2.1,1.3-2.9c0.6-0.8,1.3-1.4,2.2-1.8
	c0.9-0.4,1.9-0.7,3-0.7c1.2,0,2.2,0.3,3.1,0.7c0.9,0.5,1.6,1.1,2.2,2c0.6,0.8,1,1.8,1.3,2.9c0.3,1.1,0.4,2.2,0.4,3.4
	c0,1.3-0.1,2.6-0.4,3.7c-0.3,1.1-0.7,2.1-1.3,2.9c-0.6,0.8-1.3,1.4-2.2,1.8c-0.9,0.4-1.9,0.7-3,0.7
	C340.7,78.8,339.4,78.3,338.3,77.3 M337.8,67.2c-0.1,0.4-0.1,0.8-0.1,1.3c0,0.4,0,0.9,0,1.3c0,0.8,0,1.6,0.2,2.4
	c0.1,0.9,0.4,1.7,0.7,2.4c0.3,0.7,0.8,1.3,1.4,1.8c0.6,0.5,1.5,0.7,2.5,0.7c0.7,0,1.3-0.1,1.8-0.4c0.5-0.2,0.9-0.6,1.3-0.9
	c0.4-0.4,0.6-0.8,0.9-1.4c0.2-0.5,0.4-1,0.5-1.6c0.1-0.5,0.2-1.1,0.3-1.7c0-0.5,0.1-1.1,0.1-1.5c0-0.8-0.1-1.6-0.2-2.4
	c-0.1-0.9-0.4-1.7-0.7-2.4c-0.3-0.7-0.8-1.3-1.5-1.8c-0.6-0.5-1.4-0.7-2.5-0.7c-0.8,0-1.4,0.1-2,0.4c-0.6,0.3-1,0.7-1.4,1.1
	c-0.3,0.5-0.6,1-0.8,1.5C338.1,66,338,66.6,337.8,67.2"/>
<path class="st3" d="M366.1,76.8c-0.2,0.2-0.5,0.4-0.9,0.5c-0.3,0.2-0.7,0.3-1.1,0.4c-0.4,0.1-0.8,0.2-1.1,0.2
	c-0.4,0.1-0.7,0.1-1,0.1c-0.3,0-0.9,0-1.8,0c-0.9,0-2.1,0-3.6-0.1l-0.1-0.2V60.7l0.1-0.2c1.5,0,3.2-0.1,5.2-0.1
	c1.3,0,2.4,0.2,3.3,0.7c0.9,0.5,1.6,1.1,2.1,1.9c0.5,0.8,0.9,1.7,1.1,2.8c0.2,1.1,0.3,2.2,0.3,3.5c0,0.8,0,1.6-0.1,2.4
	c-0.1,0.7-0.2,1.4-0.4,2c-0.2,0.6-0.5,1.2-0.8,1.7C367,75.9,366.6,76.4,366.1,76.8 M358.4,76.5l3.4,0c1,0,1.8-0.2,2.4-0.6
	c0.6-0.4,1.1-0.9,1.5-1.5c0.3-0.6,0.6-1.3,0.8-2.1c0.2-0.8,0.2-1.6,0.2-2.4c0-1.1-0.1-2.2-0.2-3.1c-0.1-1-0.4-1.8-0.7-2.5
	c-0.4-0.7-0.9-1.2-1.6-1.6c-0.7-0.4-1.5-0.6-2.4-0.6l-3.4,0V76.5z"/>
<path class="st3" d="M380.2,73.5l-1.8,0H375l-1.8,0l-1.5,4.6c-0.2,0.1-0.5,0.1-0.8,0.1c-0.3,0-0.7,0-1-0.1l0-0.1l5.8-17.3
	c0.3-0.1,0.7-0.1,1.1-0.1c0.5,0,0.8,0,1.1,0.1l5.8,17.3c-0.3,0.2-0.6,0.3-1,0.3c-0.4,0-0.7-0.1-0.9-0.2c-0.2-0.1-0.3-0.4-0.4-0.8
	L380.2,73.5z M373.8,71.8l1.5,0h2.9c0,0,0.2,0,0.6,0c0.4,0,0.7,0,0.9,0l-1.6-4.9c-0.6-2-1.1-3.4-1.3-4.3h-0.1
	c-0.3,1.3-0.6,2.3-0.9,3L373.8,71.8z"/>
<path class="st3" d="M310.4,101.9c0.1-0.5,0.2-1,0.5-1.4c0.3-0.5,0.6-0.9,0.9-1.2c1.8,1.1,3.5,1.7,5.2,1.7c0.8,0,1.5-0.2,1.9-0.6
	c0.5-0.4,0.7-0.9,0.7-1.5c0-1-0.7-1.8-2-2.3l-3-1.3c-1.2-0.5-2.1-1.1-2.7-1.9c-0.6-0.8-0.9-1.7-0.9-2.7c0-0.8,0.1-1.5,0.4-2.1
	c0.3-0.6,0.7-1.2,1.3-1.6c0.5-0.5,1.2-0.8,2-1.1c0.8-0.3,1.6-0.4,2.5-0.4c1.9,0,3.7,0.5,5.5,1.4c-0.1,1-0.4,1.9-1.2,2.6
	c-1.7-0.8-3.2-1.2-4.5-1.2c-0.8,0-1.4,0.2-1.9,0.6c-0.4,0.4-0.6,0.8-0.6,1.4c0,0.8,0.6,1.4,1.8,1.9l3,1.3c1.2,0.5,2.2,1.2,2.8,2
	c0.7,0.8,1,1.8,1,2.9c0,0.8-0.1,1.5-0.4,2.1c-0.3,0.7-0.7,1.2-1.2,1.7c-0.5,0.5-1.2,0.8-2.1,1.1c-0.8,0.3-1.8,0.4-2.9,0.4
	C314.3,103.8,312.3,103.1,310.4,101.9"/>
<path class="st3" d="M333.9,99.5l-1.3,0h-3.6l-1.3,0l-1.2,4c-0.4,0.1-0.9,0.1-1.5,0.1c-0.6,0-1.2-0.1-1.6-0.2l-0.1-0.2l5.7-17.2
	c0.6-0.1,1.3-0.1,2-0.1c0.7,0,1.4,0,1.9,0.2l5.6,17.2c-0.5,0.3-1.1,0.4-1.8,0.4s-1.2-0.1-1.5-0.4c-0.3-0.3-0.5-0.8-0.8-1.5
	L333.9,99.5z M328.6,96.8l1.2,0h2.2l1.1,0l-0.8-2.6c-0.6-1.9-1-3.6-1.4-4.9h-0.1c-0.2,0.7-0.5,2.2-1.1,4.3L328.6,96.8z"/>
<path class="st3" d="M353.2,86v11.1c0,2.1-0.6,3.8-1.7,4.9c-1.2,1.1-2.8,1.7-5,1.7c-2.1,0-3.7-0.6-4.9-1.7c-1.2-1.2-1.8-2.8-1.8-4.9
	V86l0.2-0.2h1.3c0.7,0,1.2,0.2,1.5,0.5c0.3,0.3,0.5,0.9,0.5,1.7v9.1c0,2.6,1.1,3.9,3.2,3.9c2.2,0,3.3-1.3,3.3-3.9V86
	c0.5-0.1,1-0.1,1.7-0.1C352.1,85.9,352.7,85.9,353.2,86 M343.6,83.2l5.4-3.3c0.3,0.2,0.6,0.6,0.9,1.1c0.3,0.5,0.4,1,0.5,1.5
	l-5.8,2.4c-0.3-0.1-0.5-0.4-0.7-0.7C343.7,83.8,343.6,83.5,343.6,83.2"/>
<path class="st3" d="M367,102.3c-0.5,0.4-1.2,0.8-2.1,1c-0.9,0.2-1.8,0.3-2.7,0.3c-0.5,0-1.2,0-2.1,0c-1,0-2.2,0-3.7-0.1l-0.2-0.2
	V86.1l0.2-0.2c1,0,2-0.1,3-0.1c1,0,2,0,3,0c1.4,0,2.6,0.2,3.6,0.7c0.9,0.5,1.7,1.1,2.2,1.9c0.6,0.8,0.9,1.8,1.2,2.8
	c0.2,1.1,0.3,2.2,0.3,3.4c0,1.7-0.2,3.2-0.6,4.4C368.8,100.3,368.1,101.4,367,102.3 M365.6,90.6c-0.5-1.4-1.6-2-3.2-2h-1.6
	c-0.5,0-0.9,0-1.2,0v12.3c0.3,0,0.7,0,1.1,0c0.4,0,0.8,0,1.2,0c0.4,0,0.8,0,1.2-0.1c0.4-0.1,0.7-0.1,0.9-0.3
	c0.4-0.2,0.8-0.6,1.1-0.9c0.3-0.4,0.5-0.9,0.6-1.4c0.2-0.5,0.3-1.1,0.3-1.7c0.1-0.6,0.1-1.2,0.1-1.9c0-0.7-0.1-1.4-0.1-2
	C366,91.9,365.8,91.2,365.6,90.6"/>
<path class="st3" d="M375.4,99l0,1.6l1.8,0h6.2c0,0.5,0,1-0.1,1.2c-0.2,1.1-0.9,1.6-2.2,1.6h-7.2c-0.6,0-1.1-0.2-1.4-0.5
	c-0.4-0.4-0.5-0.9-0.5-1.5V86.2l0.2-0.2h10.6c0.1,0.4,0.1,0.9,0.1,1.4c0,0.5-0.1,1-0.3,1.5h-7.3l0,1.8v2.6l1.7,0h4.3
	c0.1,0.4,0.2,0.9,0.2,1.4c0,0.5-0.1,1-0.2,1.4h-6V99z"/>
<rect x="191.2" y="53.2" class="st4" width="0.9" height="56.5"/>
<g>
	<path class="st3" d="M440.8,61.8c-0.1,0.3-0.2,0.6-0.4,0.9c-0.2,0.3-0.4,0.5-0.6,0.6c-0.6-0.5-1.4-1-2.3-1.3
		c-0.9-0.3-1.8-0.5-2.8-0.5c-1,0-2,0.3-2.8,0.8c-0.9,0.5-1.6,1.4-2.1,2.5c-0.5,1.2-0.8,2.8-0.8,4.8c0,2.6,0.5,4.6,1.5,5.9
		s2.5,1.9,4.5,1.9c1,0,2-0.1,2.9-0.4c0.9-0.2,1.6-0.5,2-0.7l1,1.7c-0.6,0.2-1.2,0.4-1.9,0.6c-0.7,0.2-1.5,0.3-2.2,0.4
		c-0.8,0.1-1.5,0.2-2.1,0.2c-1.5,0-2.8-0.3-3.8-0.8s-1.8-1.3-2.4-2.2c-0.6-0.9-1-2-1.2-3.1c-0.2-1.1-0.4-2.3-0.4-3.5
		c0-1.8,0.2-3.3,0.7-4.6c0.4-1.3,1-2.3,1.8-3.1c0.8-0.8,1.6-1.3,2.5-1.7s1.9-0.5,2.9-0.5c1.1,0,2.2,0.2,3.3,0.6
		C439.1,60.6,440,61.2,440.8,61.8z M439.2,69.5c0.6,0,1,0.1,1.2,0.3c0.2,0.2,0.4,0.6,0.4,1.1v0.4h-4.9c-0.1,0-0.2,0-0.4,0
		c-0.2,0-0.3-0.1-0.4-0.2s-0.2-0.3-0.2-0.6c0-0.2,0-0.3,0.1-0.5c0-0.2,0.1-0.3,0.1-0.4H439.2z M438.9,72.9c0-0.6,0-1.2,0-1.6
		c0-0.4,0.1-0.8,0.1-1.1l1.8,0.6v7.2l-2,0V72.9z"/>
</g>
<g>
	<path class="st3" d="M443.3,69.5c0-1.8,0.3-3.4,0.8-4.9c0.5-1.5,1.3-2.7,2.4-3.5s2.5-1.3,4.2-1.3c1.7,0,3.1,0.4,4.2,1.3
		c1.1,0.9,1.9,2.1,2.4,3.5c0.5,1.5,0.8,3.1,0.8,4.9c0,1.8-0.3,3.4-0.8,4.9c-0.5,1.5-1.3,2.7-2.4,3.5c-1.1,0.9-2.5,1.3-4.2,1.3
		c-1.3,0-2.4-0.3-3.3-0.8c-0.9-0.5-1.7-1.2-2.3-2.1c-0.6-0.9-1.1-1.9-1.4-3.1C443.4,72.1,443.3,70.8,443.3,69.5z M445.4,69.5
		c0,0.9,0.1,1.8,0.2,2.8c0.2,0.9,0.4,1.8,0.8,2.6c0.4,0.8,0.9,1.5,1.6,1.9c0.7,0.5,1.6,0.7,2.6,0.7s1.9-0.2,2.6-0.7s1.2-1.1,1.6-1.9
		s0.6-1.7,0.8-2.6c0.2-0.9,0.2-1.9,0.2-2.8s-0.1-1.8-0.2-2.8c-0.2-0.9-0.4-1.8-0.8-2.6s-0.9-1.4-1.6-1.9s-1.6-0.7-2.6-0.7
		s-1.9,0.2-2.6,0.7c-0.7,0.5-1.2,1.1-1.6,1.9c-0.4,0.8-0.7,1.7-0.8,2.6C445.5,67.6,445.4,68.6,445.4,69.5z"/>
</g>
<g>
	<path class="st3" d="M471.1,60.1c0.1,0,0.2,0,0.4-0.1s0.3,0,0.5,0c0.2,0,0.4,0,0.5,0c0.2,0,0.3,0,0.4,0.1l0.1,0.2l-5.7,18.7
		c-0.3,0-0.5,0-0.7,0.1s-0.5,0-0.7,0c-0.4,0-0.7-0.1-0.9-0.2c-0.2-0.2-0.4-0.4-0.5-0.8L459,60.2c0.2-0.1,0.4-0.2,0.6-0.2
		c0.2-0.1,0.4-0.1,0.6-0.1c0.2,0,0.5,0.1,0.7,0.2s0.3,0.4,0.4,0.8l3.3,11.3c0.1,0.4,0.3,0.9,0.4,1.4c0.2,0.5,0.3,1.1,0.5,1.7
		c0.2,0.6,0.3,1.1,0.4,1.5c0,0.1,0.1,0.2,0.1,0.2s0.1,0,0.1,0L471.1,60.1z"/>
</g>
<g>
	<path class="st3" d="M475.2,60.2l0.2-0.2h1.7v1.6c0,0.4,0,0.7,0,0.9c0,0.2,0,0.5,0,0.9v12.8c0,0.2,0,0.3,0,0.5c0,0.2,0,0.3,0,0.5
		v1.7h-0.8c-0.3,0-0.6-0.1-0.8-0.4c-0.2-0.2-0.3-0.6-0.3-1V60.2z M485.9,60.1c0,0.1,0,0.3,0,0.4c0,0.1,0,0.3,0,0.4s0,0.3,0,0.4
		c0,0.2-0.1,0.3-0.1,0.5h-7.1c-0.2,0-0.4,0-0.7,0c-0.3,0-0.5,0-0.8,0c-0.3,0-0.6,0-0.8,0v-1.7H485.9z M484.5,68.5
		c0,0.1,0,0.3,0.1,0.5c0,0.2,0,0.3,0,0.4s0,0.2,0,0.4s0,0.3-0.1,0.5h-5.8c-0.2,0-0.4,0-0.7,0c-0.3,0-0.5,0-0.8,0c-0.3,0-0.6,0-0.8,0
		v-1.7c0.3,0,0.5,0,0.8,0c0.3,0,0.5,0,0.8,0c0.3,0,0.5,0,0.7,0H484.5z M486.4,77.2c0,0.7-0.1,1.2-0.3,1.4c-0.2,0.2-0.5,0.4-1,0.4
		h-8.6v-1.6c0.3,0,0.7-0.1,1.1-0.1c0.4,0,0.8,0,1.3,0H486.4z"/>
</g>
<g>
	<path class="st3" d="M501.2,65.4c0,0.8-0.1,1.6-0.4,2.3c-0.3,0.7-0.7,1.3-1.3,1.7c-0.5,0.5-1.2,0.8-1.9,1c0.4,0.1,0.8,0.4,1.1,0.8
		c0.3,0.4,0.6,0.9,0.8,1.4l1.5,3.8c0.2,0.6,0.4,1.1,0.6,1.3s0.3,0.5,0.6,0.6c-0.1,0.2-0.3,0.4-0.6,0.5c-0.3,0.1-0.5,0.2-0.8,0.2
		c-0.4,0-0.7-0.1-0.9-0.3c-0.2-0.2-0.4-0.6-0.5-1l-1.6-4.3c-0.3-0.7-0.6-1.3-1-1.8c-0.4-0.5-1.1-0.7-2-0.7h-3.8v-1.7
		c0.4,0,0.9,0,1.4,0c0.5,0,1.1,0,1.6,0c0.5,0,1,0,1.5,0c1,0,1.8-0.2,2.4-0.6s0.9-0.9,1.2-1.4c0.2-0.6,0.3-1.2,0.3-1.7
		c0-0.6-0.1-1.2-0.3-1.8c-0.2-0.6-0.6-1-1.2-1.4s-1.3-0.6-2.4-0.6c-0.3,0-0.7,0-1.1,0s-0.9,0-1.4,0c-0.5,0-0.9,0-1.2,0v17.3
		c-0.1,0-0.3,0-0.5,0.1c-0.2,0-0.4,0-0.6,0c-0.2,0-0.3,0-0.5,0c-0.2,0-0.3,0-0.4-0.1V60.2l0.2-0.2c1,0,1.9,0,2.8-0.1
		c0.9,0,1.8,0,2.7,0c1.3,0,2.4,0.2,3.2,0.7c0.9,0.4,1.6,1.1,2,1.9C501,63.3,501.2,64.3,501.2,65.4z"/>
</g>
<g>
	<path class="st3" d="M504.8,60.1c0.2,0,0.4,0,0.6-0.1s0.4,0,0.6,0c0.2,0,0.4,0,0.7,0s0.4,0,0.6,0.1l-0.6,2.4h-0.2
		c0,0.6,0,1.2,0.1,1.8s0.1,1.3,0.1,2s0,1.4,0,2v10.6c-0.2,0-0.3,0-0.5,0.1c-0.2,0-0.3,0-0.4,0s-0.3,0-0.4,0c-0.2,0-0.3,0-0.5-0.1
		V60.1z M508.5,66.2c-0.4-0.7-0.7-1.3-1-1.9s-0.6-1.2-0.9-1.9l-1-1.2l1.6-1.2l6.8,12.7c0.4,0.7,0.7,1.3,1,2c0.3,0.7,0.6,1.3,0.9,1.9
		l1,1l-1.6,1.4L508.5,66.2z M517.8,60.1v18.8c-0.2,0-0.3,0-0.5,0.1c-0.2,0-0.4,0-0.7,0c-0.3,0-0.5,0-0.7,0c-0.2,0-0.4,0-0.6-0.1
		l0.6-2.3h0.2c0-0.7-0.1-1.3-0.1-2.1c0-0.7,0-1.4-0.1-2.1s0-1.4,0-2v-9.1c0-0.4,0.1-0.8,0.2-1c0.1-0.2,0.4-0.3,0.8-0.3h0.7
		L517.8,60.1z"/>
</g>
<g>
	<path class="st3" d="M521,69.5c0-1.8,0.3-3.4,0.8-4.9c0.5-1.5,1.3-2.7,2.4-3.5s2.5-1.3,4.2-1.3c1.7,0,3.1,0.4,4.2,1.3
		c1.1,0.9,1.9,2.1,2.4,3.5c0.5,1.5,0.8,3.1,0.8,4.9c0,1.8-0.3,3.4-0.8,4.9c-0.5,1.5-1.3,2.7-2.4,3.5c-1.1,0.9-2.5,1.3-4.2,1.3
		c-1.3,0-2.4-0.3-3.3-0.8c-0.9-0.5-1.7-1.2-2.3-2.1c-0.6-0.9-1.1-1.9-1.4-3.1C521.2,72.1,521,70.8,521,69.5z M523.1,69.5
		c0,0.9,0.1,1.8,0.2,2.8c0.2,0.9,0.4,1.8,0.8,2.6c0.4,0.8,0.9,1.5,1.6,1.9c0.7,0.5,1.6,0.7,2.6,0.7s1.9-0.2,2.6-0.7s1.2-1.1,1.6-1.9
		s0.6-1.7,0.8-2.6c0.2-0.9,0.2-1.9,0.2-2.8s-0.1-1.8-0.2-2.8c-0.2-0.9-0.4-1.8-0.8-2.6s-0.9-1.4-1.6-1.9s-1.6-0.7-2.6-0.7
		s-1.9,0.2-2.6,0.7c-0.7,0.5-1.2,1.1-1.6,1.9c-0.4,0.8-0.7,1.7-0.8,2.6C523.2,67.6,523.1,68.6,523.1,69.5z"/>
</g>
<g>
	<path class="st3" d="M436.8,104.5c-0.3,0.1-0.6,0.1-0.9,0.1c-0.3,0-0.6,0-0.9,0c-0.3,0-0.5,0-0.9,0s-0.6,0-0.9-0.1V85.8l0.2-0.2
		h3.3v1.4c0,0.7,0,1.5,0,2.2c0,0.8,0,1.5,0,2.2V104.5z M444.8,85.7c0.1,0.2,0.1,0.4,0.1,0.7c0,0.3,0,0.5,0,0.7c0,0.6-0.2,1-0.5,1.3
		s-0.8,0.4-1.5,0.4h-3.8c-0.7,0-1.4,0-2,0c-0.6,0-1.2,0-1.8,0v-2.9H444.8z M443.2,93.6c0.1,0.2,0.1,0.5,0.1,0.7s0,0.5,0,0.7
		c0,0.2,0,0.4,0,0.7s-0.1,0.5-0.1,0.8h-5.5c-0.4,0-0.7,0-1.2,0c-0.4,0-0.8,0-1.1,0v-2.8c0.3,0,0.7,0,1.1,0c0.4,0,0.8,0,1.2,0H443.2z
		"/>
</g>
<g>
	<path class="st3" d="M446.7,85.8l0.2-0.2h3.3v2.9c0,0.4,0,0.7,0,1s0,0.6,0,1v9.5c0,0.3,0,0.5,0,0.8c0,0.2,0,0.5,0,0.8v2.9h-1.4
		c-0.6,0-1.1-0.2-1.5-0.6c-0.4-0.4-0.5-0.9-0.5-1.5V85.8z M458.3,85.7c0.1,0.3,0.1,0.5,0.1,0.7s0,0.5,0,0.7c0,0.2,0,0.4-0.1,0.7
		c0,0.3-0.1,0.6-0.2,0.8H452c-0.2,0-0.5,0-0.9,0c-0.4,0-0.7,0-1.1,0c-0.4,0-0.7,0-1,0v-2.9H458.3z M456.8,93.6
		c0.1,0.2,0.1,0.5,0.1,0.7c0,0.3,0,0.5,0,0.7c0,0.2,0,0.4,0,0.7c0,0.3-0.1,0.5-0.1,0.7H452c-0.2,0-0.5,0-0.9,0s-0.7,0-1.1,0
		s-0.7,0-1,0v-2.8c0.3,0,0.6,0,1,0s0.8,0,1.1,0c0.4,0,0.7,0,0.9,0H456.8z M458.9,101.6c0,1-0.2,1.8-0.5,2.2s-0.9,0.7-1.9,0.7H449
		v-2.8c0.5,0,1-0.1,1.5-0.1c0.5,0,1,0,1.6,0H458.9z"/>
	<path class="st3" d="M475.9,95.1c0,1.1-0.1,2.1-0.2,3.1c-0.1,1-0.4,1.9-0.9,2.8c-0.4,0.9-1.1,1.6-1.9,2.3c-0.4,0.3-0.9,0.6-1.5,0.8
		c-0.6,0.2-1.2,0.4-1.8,0.4s-1.2,0.1-1.6,0.1c-0.8,0-1.5,0-2.2,0c-0.7,0-1.4,0-2,0s-1.4,0-2.2-0.1l-0.2-0.2V85.8l0.2-0.2
		c0.8,0,1.5-0.1,2.2-0.1s1.4,0,2,0c0.7,0,1.4,0,2.2,0c0.5,0,1,0,1.7,0.1s1.2,0.2,1.8,0.4c0.6,0.2,1.1,0.5,1.5,0.8
		c0.8,0.7,1.5,1.5,1.9,2.3s0.7,1.8,0.9,2.8C475.8,93,475.9,94,475.9,95.1z M472.3,95.1c0-0.8,0-1.6-0.1-2.4
		c-0.1-0.8-0.3-1.5-0.6-2.2s-0.7-1.2-1.3-1.6c-0.6-0.4-1.3-0.6-2.3-0.6c-0.5,0-1,0-1.5,0c-0.5,0-1,0-1.6,0v13.6c0.6,0,1.1,0,1.6,0
		c0.5,0,1,0,1.5,0c0.9,0,1.7-0.2,2.3-0.6c0.6-0.4,1-0.9,1.3-1.6c0.3-0.7,0.5-1.4,0.6-2.2C472.2,96.7,472.3,95.9,472.3,95.1z"/>
	<path class="st3" d="M478.4,85.8l0.2-0.2h3.3v2.9c0,0.4,0,0.7,0,1s0,0.6,0,1v9.5c0,0.3,0,0.5,0,0.8c0,0.2,0,0.5,0,0.8v2.9h-1.4
		c-0.6,0-1.1-0.2-1.5-0.6c-0.4-0.4-0.5-0.9-0.5-1.5V85.8z M490,85.7c0.1,0.3,0.1,0.5,0.1,0.7s0,0.5,0,0.7c0,0.2,0,0.4-0.1,0.7
		c0,0.3-0.1,0.6-0.2,0.8h-6.2c-0.2,0-0.5,0-0.9,0c-0.4,0-0.7,0-1.1,0c-0.4,0-0.7,0-1,0v-2.9H490z M488.5,93.6
		c0.1,0.2,0.1,0.5,0.1,0.7c0,0.3,0,0.5,0,0.7c0,0.2,0,0.4,0,0.7c0,0.3-0.1,0.5-0.1,0.7h-4.8c-0.2,0-0.5,0-0.9,0s-0.7,0-1.1,0
		s-0.7,0-1,0v-2.8c0.3,0,0.6,0,1,0s0.8,0,1.1,0c0.4,0,0.7,0,0.9,0H488.5z M490.6,101.6c0,1-0.2,1.8-0.5,2.2s-0.9,0.7-1.9,0.7h-7.6
		v-2.8c0.5,0,1-0.1,1.5-0.1c0.5,0,1,0,1.6,0H490.6z"/>
	<path class="st3" d="M505.9,91.3c0,0.9-0.2,1.6-0.5,2.3s-0.7,1.3-1.3,1.7s-1.1,0.8-1.7,1c0.5,0.2,0.9,0.5,1.2,0.9
		c0.3,0.4,0.6,0.9,0.8,1.5l1.1,2.9c0.2,0.5,0.4,0.9,0.6,1.2c0.2,0.3,0.4,0.6,0.7,0.8c-0.2,0.3-0.6,0.6-1,0.8s-0.9,0.3-1.3,0.3
		c-0.7,0-1.1-0.2-1.4-0.5c-0.3-0.3-0.6-0.9-0.8-1.6l-1.2-3.4c-0.2-0.6-0.5-1.1-0.8-1.4s-1-0.6-1.8-0.6h-3.3v-2.7c0.4,0,0.8,0,1.4,0
		s1,0,1.5,0c0.5,0,0.9,0,1.2,0c0.8,0,1.5-0.1,1.9-0.4s0.7-0.7,0.9-1.2c0.2-0.5,0.2-1,0.2-1.5c0-0.5-0.1-1-0.2-1.5
		c-0.2-0.5-0.5-0.8-0.9-1.1c-0.4-0.3-1.1-0.4-1.9-0.4c-0.2,0-0.5,0-0.8,0s-0.6,0-0.9,0c-0.3,0-0.6,0-0.9,0v16.3
		c-0.3,0.1-0.6,0.1-0.9,0.1s-0.6,0-0.9,0c-0.2,0-0.5,0-0.8,0s-0.6,0-0.9-0.1V85.8l0.2-0.2c1.1,0,2.2-0.1,3.2-0.1c1,0,2,0,3,0
		c1.3,0,2.4,0.2,3.4,0.6c1,0.4,1.7,1.1,2.3,1.9S505.9,90,505.9,91.3z"/>
	<path class="st3" d="M513,85.7c0.3,0,0.6-0.1,1-0.1c0.4,0,0.7,0,1,0s0.6,0,1,0c0.4,0,0.7,0.1,1,0.1l6.1,18.6
		c-0.2,0.1-0.6,0.2-0.9,0.3c-0.4,0.1-0.7,0.1-1.1,0.1c-0.6,0-1-0.1-1.3-0.4s-0.6-0.8-0.8-1.5l-2.6-8.6c-0.2-0.8-0.5-1.7-0.8-2.6
		s-0.5-1.8-0.7-2.6h-0.2c-0.1,0.7-0.3,1.4-0.6,2.3s-0.4,1.6-0.6,2.2l-3.4,11c-0.2,0.1-0.4,0.1-0.7,0.1s-0.5,0-0.8,0
		c-0.3,0-0.6,0-0.9-0.1c-0.3,0-0.6-0.1-0.8-0.2l-0.1-0.2L513,85.7z M512.9,100.2c-0.1,0-0.3,0-0.5,0s-0.5,0-0.7,0s-0.4,0-0.5,0h-1.7
		l1.1-2.8h1.5c0.1,0,0.3,0,0.5,0s0.4,0,0.6,0c0.2,0,0.4,0,0.5,0h2.5c0.1,0,0.3,0,0.5,0c0.2,0,0.4,0,0.6,0s0.4,0,0.5,0h1.6l0.9,2.8
		h-1.7c-0.1,0-0.3,0-0.5,0c-0.2,0-0.5,0-0.7,0c-0.2,0-0.4,0-0.5,0H512.9z"/>
</g>
<g>
	<path class="st3" d="M528.3,104.6h-1.5c-0.6,0-1.1-0.2-1.5-0.6c-0.4-0.4-0.6-0.9-0.6-1.6V85.7l0.2-0.2h1.3c0.7,0,1.2,0.2,1.5,0.5
		c0.3,0.4,0.5,0.9,0.5,1.7V104.6z M536,101.5c0,1.2-0.2,2-0.5,2.4c-0.4,0.4-1,0.7-1.8,0.7h-6.8l-1.8-2.6c1-0.2,2-0.3,3-0.4
		c1-0.1,2-0.1,2.8-0.1H536z"/>
</g>
</svg>
