<?xml version="1.0" encoding="UTF-8"?>
<svg id="infografico1" data-name="infografico1" xmlns="http://www.w3.org/2000/svg" viewBox="0 0 1280 720">
 
  <polygon points="809.85 586.58 639.85 292.58 469.85 586.58 278.21 255.15 321.49 230.12 469.85 486.69 639.85 192.69 809.85 486.69 958.21 230.12 1001.49 255.15 809.85 586.58" fill="#eef2f6"/>
  
  <g id="infografico1-item1" tabindex="0" class="popover-top svg-item" role="button" data-toggle="popover" data-placement="top" data-trigger="focus" data-html="true" title="Intrassetorialidade" data-content="colocar a saúde na agenda de prioridades dos políticos e dirigentes em todos os níveis e setores, chamando-lhes a atenção para as consequências que suas decisões podem ocasionar no campo da saúde e aceitarem suas responsabilidades pelas políticas com a saúde”. (WHO,1986, on-line).">
    <g class="background" data-name="background">
      <polygon points="188.85 178.43 188.85 306.83 299.85 371.13 410.85 306.83 410.85 178.43 299.85 114.13 188.85 178.43" fill="#fd8d3d" fill-rule="evenodd"/>
      <polygon points="188.85 306.83 299.85 371.13 410.85 306.83 410.85 178.43 188.85 306.83" fill="#f96702" fill-rule="evenodd"/>
    </g>
    <g class="content">
      <path d="M283.77,240.56h16.55v-8.28h8.28v-16.55h-8.28v-8.28h-16.55v8.28h-8.28v16.55h8.28v8.28Zm-4.14-12.41v-8.28h8.28v-8.28h8.28v8.28h8.28v8.28h-8.28v8.28h-8.28v-8.28h-8.28Z" fill="#fff"/>
      <path d="M281.7,257.12c-1.14,0-2.07,.93-2.07,2.07s.93,2.07,2.07,2.07h20.69c1.14,0,2.07-.93,2.07-2.07s-.93-2.07-2.07-2.07h-20.69Z" fill="#fff"/>
      <path d="M273.42,269.53h37.24c1.14,0,2.07-.93,2.07-2.07s-.93-2.07-2.07-2.07h-37.24c-1.14,0-2.07,.93-2.07,2.07s.93,2.07,2.07,2.07Z" fill="#fff"/>
      <path d="M273.42,277.81h37.24c1.14,0,2.07-.93,2.07-2.07s-.93-2.07-2.07-2.07h-37.24c-1.14,0-2.07,.93-2.07,2.07s.93,2.07,2.07,2.07Z" fill="#fff"/>
      <path d="M337.56,182.63h-91.03v120h91.03v-12.41h12.41v-107.59h-12.41Zm-4.14,115.86h-82.76v-111.72h82.76v111.72Zm12.41-12.41h-8.28v-16.55h8.28v16.55Zm0-20.69h-8.28v-16.55h8.28v16.55Zm0-20.69h-8.28v-16.55h8.28v16.55Zm0-20.69h-8.28v-16.55h8.28v16.55Zm0-20.69h-8.28v-16.55h8.28v16.55Z" fill="#fff"/>
    </g>
  </g>
  <g id="infografico1-item2" tabindex="0" class="popover-top svg-item" role="button" data-toggle="popover" data-placement="top" data-trigger="focus" data-html="true" title="Intrassetorialidade" data-content="Exercício permanente da desfragmentação das ações e serviços ofertados por um setor, visando à construção e articulação de redes cooperativas e resolutivas.">
    <g class="background">
      <polygon points="358.85 472.43 358.85 600.83 469.85 665.13 580.85 600.83 580.85 472.43 469.85 408.13 358.85 472.43" fill="#fd8d3d" fill-rule="evenodd"/>
      <polygon points="358.85 600.83 469.85 665.13 580.85 600.83 580.85 472.43 358.85 600.83" fill="#f96702" fill-rule="evenodd"/>
    </g>
    <g class="content">
      <path d="M529.64,556.84c-.53,1.21-1.49,2.14-2.71,2.61l-6.88,2.69c-.58,.23-1.18,.34-1.79,.34-.67,0-1.34-.14-1.98-.42-.94-.41-1.7-1.09-2.23-1.94l-7.82,3.33c.25,1.52,.02,3.12-.77,4.55-.93,1.69-2.46,2.9-4.32,3.43-.02,0-.04,0-.06,.01,.7,1.88,.62,4.04-.42,5.91-1.3,2.36-3.75,3.7-6.27,3.7-.52,0-1.05-.06-1.56-.18,.06,1.27-.21,2.56-.86,3.74-1.3,2.36-3.75,3.7-6.27,3.7-.31,0-.61-.02-.92-.06,.1,1.32-.17,2.69-.86,3.93-1.3,2.36-3.75,3.7-6.27,3.7-1.16,0-2.34-.28-3.43-.88l-2.47-1.36c-.91,1.27-2.21,2.2-3.73,2.67-.69,.21-1.39,.31-2.09,.31-1.16,0-2.3-.28-3.35-.84-1.64-.88-2.79-2.31-3.37-3.94-.3,.14-.61,.26-.94,.36-.69,.21-1.39,.31-2.09,.31-1.16,0-2.3-.28-3.35-.84-1.48-.79-2.57-2.04-3.19-3.48-.48,.28-.99,.5-1.53,.66-.69,.21-1.39,.31-2.09,.31-1.16,0-2.3-.28-3.35-.84-1.68-.9-2.9-2.4-3.46-4.23-.34-1.12-.4-2.28-.19-3.4-.14,0-.28,.02-.42,.02-1.16,0-2.3-.28-3.35-.84-1.68-.9-2.9-2.4-3.46-4.23-.55-1.83-.37-3.76,.53-5.44l1.8-3.37c-.47-1.04-.68-2.18-.88-3.29-.38-2.07-.65-3.08-1.52-3.42-.64-.25-2.58-1.1-6.21-2.73-.94,1.2-2.38,1.88-3.88,1.88-.68,0-1.38-.14-2.04-.45l-6.72-3.07c-2.47-1.13-3.56-4.06-2.43-6.53l13.8-30.2c1.13-2.47,4.06-3.56,6.53-2.43l6.72,3.07c2.47,1.13,3.56,4.06,2.43,6.53l-.42,.91,6.08,2.8s.09,.04,.13,.07c2.42,1.36,4.93,.77,8.1,.02,4.14-.98,9.24-2.18,15.21,1.34,8.21-5.08,14.51-2.51,19.17-.61,3.39,1.38,5.57,2.18,7.67,1.08l5.77-3.09-.13-.33c-.99-2.53,.26-5.39,2.79-6.38l6.88-2.69c2.53-.99,5.39,.26,6.38,2.79l12.1,30.92c.48,1.23,.45,2.56-.08,3.77h0Zm-106.88-1.97l13.8-30.2c.27-.58,0-1.29-.58-1.56l-6.72-3.07c-.28-.13-.6-.14-.9-.03s-.53,.33-.66,.61l-13.8,30.2c-.27,.58,0,1.29,.58,1.56l6.72,3.07c.58,.26,1.29,0,1.56-.58h0Zm16.88,21.96c.87-.26,1.57-.84,2-1.63,0,0,3.35-6.25,3.35-6.26,.86-1.62,.23-3.72-1.39-4.58-1.61-.86-3.72-.24-4.59,1.39,0,0-3.34,6.24-3.34,6.25-.87,1.62-.23,3.72,1.39,4.59,.79,.42,1.71,.51,2.58,.25h0Zm9.42,6.82s4.53-8.46,4.53-8.47c.86-1.61,.23-3.72-1.39-4.58-1.6-.85-3.7-.25-4.58,1.38l-4.54,8.48c-.42,.79-.51,1.71-.25,2.58,.26,.87,.85,1.58,1.64,2.01,.79,.42,1.71,.51,2.58,.25,.87-.27,1.58-.85,2.01-1.64h0Zm10.15,3.34s3.66-6.84,3.66-6.85c.86-1.62,.23-3.72-1.39-4.58-1.62-.87-3.72-.23-4.59,1.39l-3.66,6.85c-.88,1.65-.26,3.7,1.39,4.59,.79,.42,1.71,.51,2.58,.25,.87-.27,1.58-.85,2.01-1.64h0Zm9.74,4.11s3.2-5.99,3.2-5.99c.86-1.6,.22-3.73-1.39-4.58-1.62-.87-3.72-.23-4.59,1.39l-3.2,5.99c-.88,1.65-.26,3.7,1.39,4.58,.79,.42,1.71,.51,2.58,.25,.87-.26,1.58-.85,2.01-1.64h0Zm10.61-5.14l-3.24-1.78s-.03-.02-.05-.03c-.08,.95-.36,1.87-.81,2.73l-1.87,3.51,2.45,1.35c1.64,.9,3.7,.3,4.6-1.33,.85-1.54,.36-3.47-1.08-4.44h0Zm21.25-24.37l-18.2-10.37c-3.11-1.77-6.98-.21-11.46,1.61-6.76,2.74-15.17,6.14-22.28-3.66-.31-.43-.43-.98-.32-1.49s.44-.97,.9-1.23c5.4-3.09,9.94-6.48,13.49-10.07,.91-.92,1.83-1.76,2.75-2.53-4-1.79-7.4-.99-10.96-.15-3.47,.82-7.06,1.67-10.74-.36l-6-2.77-10.75,23.52c2.14,.96,5.15,2.3,5.88,2.59,2.69,1.04,3.36,3.63,3.76,5.72,.83-.86,1.87-1.49,3.05-1.85,1.83-.55,3.76-.37,5.44,.53,1.67,.89,2.9,2.39,3.45,4.22,.13,.44,.23,.89,.27,1.34,1.66-.36,3.37-.13,4.87,.68,1.67,.89,2.9,2.39,3.45,4.22,.03,.11,.06,.21,.09,.32,.1-.04,.2-.07,.3-.1,1.83-.55,3.76-.37,5.44,.53,1.67,.89,2.9,2.39,3.45,4.22,.03,.11,.06,.21,.09,.32,.1-.04,.2-.07,.3-.1,1.83-.55,3.76-.37,5.44,.53,.82,.44,1.53,1.02,2.1,1.71l9.45,5.24c1.64,.9,3.7,.3,4.6-1.33,.89-1.62,.29-3.69-1.35-4.61l-11.24-6.32c-.9-.51-1.22-1.65-.71-2.55s1.65-1.22,2.55-.71l14.84,8.28c1.64,.9,3.7,.3,4.6-1.33,.89-1.61,.29-3.66-1.32-4.59-.1-.05-13.36-7.53-13.36-7.53-.9-.51-1.22-1.65-.71-2.56,.51-.9,1.65-1.22,2.56-.71l13.05,7.37c.76,.43,1.66,.53,2.52,.29,.89-.25,1.62-.83,2.06-1.63,.89-1.61,.28-3.68-1.36-4.61h0Zm11.8-4.93l-9.54-24.39-5.4,2.89c-3.77,1.96-7.37,.49-10.84-.93-4.75-1.94-9.65-3.95-16.75,.96-1.48,1.03-2.99,2.31-4.47,3.8-3.36,3.4-7.53,6.61-12.4,9.57,5.02,5.44,10.39,3.27,16.53,.78,4.94-2,10.04-4.06,14.73-1.39l18.2,10.37c.79,.45,1.47,1.04,2.02,1.71l7.92-3.38Zm13.61-2.23s-12.09-30.91-12.1-30.92c-.23-.59-.94-.9-1.52-.67l-6.88,2.69c-.59,.23-.9,.93-.67,1.52l12.1,30.92c.11,.29,.33,.52,.63,.64s.61,.13,.9,.02l6.88-2.69c.29-.11,.52-.33,.64-.63,.13-.29,.14-.61,.02-.9h0Zm-15.3-28.5c-1.44,0-2.61,1.17-2.61,2.61s1.17,2.61,2.61,2.61,2.61-1.17,2.61-2.61-1.17-2.61-2.61-2.61Zm-80.15-2.72c-1.44-.08-2.67,1.02-2.75,2.46-.08,1.44,1.02,2.67,2.46,2.75,1.44,.08,2.67-1.02,2.75-2.46,.08-1.44-1.02-2.67-2.46-2.75Zm.26-12.32c-.93-1.26-1.18-2.77-.72-4.26,1.29-4.15,4.26-7.38,8.04-9.05-1.47-1.5-2.38-3.56-2.38-5.82,0-4.59,3.73-8.32,8.32-8.32s8.32,3.73,8.32,8.32c0,2.26-.91,4.32-2.38,5.82,1.85,.82,3.52,2.02,4.9,3.55,2.1-2.69,4.91-4.78,8.13-6.01-2.26-1.93-3.71-4.79-3.71-7.99,0-5.79,4.71-10.49,10.49-10.49s10.49,4.71,10.49,10.49c0,3.2-1.44,6.07-3.71,8,3.22,1.23,6.03,3.32,8.13,6.01,1.38-1.53,3.05-2.73,4.9-3.55-1.47-1.5-2.38-3.56-2.38-5.82,0-4.59,3.73-8.32,8.32-8.32s8.32,3.73,8.32,8.32c0,2.26-.91,4.32-2.38,5.82,3.78,1.67,6.75,4.9,8.04,9.05,.46,1.49,.21,3-.72,4.26-.93,1.26-2.29,1.95-3.86,1.95h-16.34v1.57c0,3.55-2.89,6.43-6.43,6.43h-24.79c-3.55,0-6.43-2.89-6.43-6.43v-1.57h-16.34c-1.56,0-2.93-.69-3.86-1.95h0Zm64.78-14.56h0c2.52,0,4.57-2.05,4.57-4.57s-2.05-4.57-4.57-4.57-4.57,2.05-4.57,4.57c0,2.52,2.05,4.57,4.57,4.57h0Zm-8.74,8.16c.7,1.43,1.22,2.97,1.54,4.59h16.61c.36,0,.63-.13,.84-.42s.26-.58,.16-.92c-1.42-4.58-5.59-7.66-10.39-7.66h0c-3.5,0-6.7,1.64-8.74,4.41h0Zm-17.02-10.62h0c3.72,0,6.74-3.03,6.74-6.74s-3.03-6.74-6.74-6.74-6.74,3.03-6.74,6.74,3.02,6.74,6.74,6.74h0Zm-15.07,17.19v3.34c0,1.48,1.2,2.68,2.68,2.68h24.79c1.48,0,2.68-1.2,2.68-2.68v-3.34c-.87-7.67-7.33-13.44-15.07-13.44h0c-7.74,0-14.2,5.77-15.07,13.44h0Zm-10.69-14.73h0c2.52,0,4.57-2.05,4.57-4.57s-2.05-4.57-4.57-4.57-4.57,2.05-4.57,4.57c0,2.52,2.05,4.57,4.57,4.57h0Zm-10.24,12.33c.21,.29,.48,.42,.84,.42h16.61c.32-1.62,.84-3.16,1.54-4.59-2.05-2.78-5.24-4.41-8.74-4.41h0c-4.8,0-8.98,3.08-10.39,7.66-.11,.34-.06,.64,.16,.92h0Z" fill="#fff"/>
    </g>
  </g>
  <g id="infografico1-item3" tabindex="0" class="popover-top svg-item" role="button" data-toggle="popover" data-placement="top" data-trigger="focus" data-html="true" title="Intrassetorialidade" data-content="Exercício permanente da desfragmentação das ações e serviços ofertados por um setor, visando à construção e articulação de redes cooperativas e resolutivas.">
    <g class="background" data-name="background">
      <polygon points="529.17 179.4 529.17 307.8 640.47 372.1 751.77 307.8 751.77 179.4 640.47 115.1 529.17 179.4" fill="#fd8d3d" fill-rule="evenodd"/>
      <polygon points="528.55 306.83 639.85 371.13 751.15 306.83 751.15 178.43 528.55 306.83" fill="#f96702" fill-rule="evenodd"/>
    </g>
    <g class="content">
      <path d="M621.18,293.18c-4.78,0-8.66-3.89-8.66-8.66v-3.36h-25.55c-2.02,0-3.79-.89-4.99-2.52-1.2-1.63-1.53-3.58-.93-5.51,1.8-5.81,6-10.54,11.52-12.98l1.32-.58-1.01-1.03c-2.12-2.17-3.29-5.03-3.29-8.05,0-6.35,5.16-11.51,11.51-11.51s11.51,5.16,11.51,11.51c0,3.02-1.17,5.88-3.29,8.05l-1.01,1.03,1.32,.58c2.68,1.18,5.04,2.9,7.02,5.09l.8,.88,.73-.94c3.07-3.92,7.14-6.93,11.79-8.71l1.58-.6-1.29-1.09c-3.32-2.82-5.22-6.92-5.22-11.25,0-8.14,6.63-14.77,14.77-14.77s14.77,6.63,14.77,14.77c0,4.33-1.9,8.43-5.22,11.25l-1.28,1.09,1.58,.6c4.65,1.78,8.72,4.79,11.79,8.71l.73,.94,.8-.88c1.98-2.19,4.34-3.91,7.02-5.09l1.32-.58-1.01-1.03c-2.12-2.17-3.29-5.03-3.29-8.05,0-6.35,5.16-11.51,11.51-11.51s11.51,5.16,11.51,11.51c0,3.02-1.17,5.88-3.29,8.05l-1.01,1.03,1.32,.58c5.52,2.44,9.72,7.17,11.52,12.98,.6,1.93,.27,3.88-.93,5.51-1.2,1.63-2.97,2.52-4.99,2.52h-25.55v3.36c0,4.78-3.89,8.66-8.66,8.66h-37.25Zm18.62-34.89c-12.12,0-22.28,9.07-23.64,21.09v.06s0,5.08,0,5.08c0,2.77,2.26,5.03,5.03,5.03h37.25c2.77,0,5.03-2.26,5.03-5.03v-5.14c-1.37-12.02-11.53-21.08-23.65-21.08h-.01Zm38.72,3.7c-5.57,0-10.65,2.57-13.94,7.04l-.36,.49,.27,.54c1.03,2.11,1.78,4.35,2.24,6.66l.16,.81h25.77c.86,0,1.56-.35,2.06-1.04,.51-.69,.64-1.46,.39-2.28-2.26-7.3-8.92-12.21-16.57-12.21h0Zm-77.42,0c-7.65,0-14.31,4.91-16.57,12.21-.26,.82-.13,1.58,.38,2.28,.51,.69,1.2,1.04,2.06,1.04h25.77l.16-.81c.45-2.3,1.21-4.54,2.24-6.66l.27-.54-.36-.49c-3.3-4.47-8.38-7.04-13.94-7.04h0Zm77.42-19.38c-4.34,0-7.87,3.53-7.87,7.87,0,4.34,3.53,7.87,7.87,7.87,4.34,0,7.87-3.53,7.87-7.87s-3.53-7.87-7.87-7.87Zm-77.42,0c-4.34,0-7.87,3.53-7.87,7.87,0,4.34,3.53,7.87,7.87,7.87,4.34,0,7.87-3.53,7.87-7.87s-3.53-7.87-7.87-7.87Zm38.71-10.22c-6.14,0-11.13,5-11.13,11.13s4.99,11.13,11.13,11.13c6.15,0,11.14-5,11.14-11.13s-4.99-11.13-11.13-11.13Z" fill="#fff"/>
      <path d="M634.54,196.4c.07,0,.14,0,.21,0,2.18-.18,4.41-.25,6.61-.19,1.42,.03,2.58-1.08,2.61-2.48,.04-1.41-1.08-2.58-2.48-2.61-2.37-.06-4.79,0-7.16,.21-1.4,.12-2.44,1.35-2.33,2.75,.11,1.33,1.23,2.34,2.54,2.34Z" fill="#fff"/>
      <path d="M698.29,242.9c.27,1.18,1.32,1.99,2.48,1.99,.19,0,.37-.02,.56-.06,1.37-.31,2.24-1.67,1.93-3.05-.52-2.32-1.18-4.64-1.96-6.89-.46-1.33-1.91-2.04-3.24-1.58-1.33,.46-2.04,1.91-1.58,3.24,.72,2.07,1.32,4.21,1.81,6.35Z" fill="#fff"/>
      <path d="M614.61,201.47c.34,0,.69-.07,1.03-.22,2.01-.89,4.09-1.67,6.18-2.32,1.34-.42,2.09-1.85,1.67-3.19-.42-1.34-1.85-2.09-3.2-1.67-2.27,.71-4.53,1.56-6.71,2.52-1.29,.57-1.87,2.07-1.3,3.36,.42,.95,1.35,1.52,2.33,1.52Z" fill="#fff"/>
      <path d="M690.82,224.64c.48,.78,1.32,1.21,2.17,1.21,.46,0,.92-.12,1.34-.38,1.2-.74,1.57-2.31,.83-3.51-1.25-2.02-2.63-4-4.1-5.88-.87-1.11-2.47-1.3-3.58-.44-1.11,.87-1.3,2.47-.44,3.58,1.35,1.73,2.62,3.55,3.78,5.42Z" fill="#fff"/>
      <path d="M672.5,205.88c1.84,1.2,3.63,2.51,5.33,3.91,.47,.39,1.05,.58,1.62,.58,.74,0,1.47-.32,1.97-.93,.89-1.09,.74-2.69-.35-3.59-1.84-1.51-3.78-2.94-5.78-4.24-1.18-.77-2.76-.44-3.53,.74-.77,1.18-.44,2.76,.74,3.53Z" fill="#fff"/>
      <path d="M654.42,197.98c2.13,.53,4.25,1.19,6.31,1.96,.29,.11,.59,.16,.89,.16,1.03,0,2.01-.63,2.39-1.66,.49-1.32-.18-2.79-1.5-3.28-2.23-.83-4.54-1.55-6.85-2.13-1.36-.34-2.75,.49-3.09,1.85-.34,1.37,.49,2.75,1.85,3.09Z" fill="#fff"/>
      <path d="M704.85,255.99c0-1.4-1.15-2.54-2.55-2.54h0c-1.41,0-2.54,1.15-2.54,2.56v.13c0,2.2-.12,4.42-.36,6.6-.15,1.4,.86,2.66,2.26,2.81,.09,.01,.19,.02,.28,.02,1.28,0,2.39-.97,2.53-2.27,.26-2.36,.39-4.76,.39-7.16v-.14Z" fill="#fff"/>
      <path d="M580.67,266.07c-.36-2.16-.6-4.37-.73-6.56-.08-1.41-1.28-2.48-2.69-2.4-1.41,.08-2.48,1.28-2.4,2.69,.13,2.38,.4,4.78,.79,7.12,.21,1.25,1.29,2.13,2.51,2.13,.14,0,.28-.01,.42-.04,1.39-.23,2.33-1.54,2.09-2.93Z" fill="#fff"/>
      <path d="M597.41,212.76c.62,0,1.24-.22,1.73-.68,1.61-1.49,3.33-2.91,5.09-4.21,1.13-.84,1.37-2.43,.54-3.56-.84-1.13-2.43-1.37-3.56-.54-1.91,1.41-3.77,2.95-5.52,4.56-1.03,.95-1.1,2.57-.14,3.6,.5,.54,1.19,.82,1.87,.82Z" fill="#fff"/>
      <path d="M577.72,248.43c.14,.02,.28,.03,.42,.03,1.23,0,2.31-.89,2.51-2.14,.36-2.17,.84-4.33,1.43-6.44,.38-1.36-.41-2.76-1.76-3.14-1.36-.38-2.76,.41-3.14,1.76-.64,2.29-1.17,4.65-1.55,7-.23,1.39,.71,2.7,2.1,2.93Z" fill="#fff"/>
      <path d="M583.58,228.69c.39,.21,.8,.31,1.21,.31,.91,0,1.78-.48,2.24-1.34,1.04-1.93,2.21-3.82,3.46-5.63,.8-1.16,.51-2.74-.64-3.55-1.16-.8-2.74-.51-3.55,.64-1.36,1.96-2.62,4.01-3.75,6.11-.67,1.24-.21,2.78,1.03,3.45Z" fill="#fff"/>
    </g>
  </g>
  <g id="infografico1-item4" tabindex="0" class="popover-top svg-item" role="button" data-toggle="popover" data-placement="top" data-trigger="focus" data-html="true" title="Intrassetorialidade" data-content="Exercício permanente da desfragmentação das ações e serviços ofertados por um setor, visando à construção e articulação de redes cooperativas e resolutivas.">
    <g class="background" data-name="class=&amp;quot;background&amp;quot;">
      <polygon points="698.58 473.17 698.58 601.57 809.58 665.87 920.58 601.57 920.58 473.17 809.58 408.87 698.58 473.17" fill="#fd8d3d" fill-rule="evenodd"/>
      <polygon points="698.58 601.57 809.58 665.87 920.58 601.57 920.58 473.17 698.58 601.57" fill="#f96702" fill-rule="evenodd"/>
    </g>
    <g class="content">
      <path d="M775.8,504.76c7.31,0,13.12-5.81,13.12-13.12s-5.81-13.12-13.12-13.12-13.12,5.81-13.12,13.12,5.81,13.12,13.12,13.12Zm0-22.5c5.25,0,9.37,4.12,9.37,9.37s-4.12,9.37-9.37,9.37-9.37-4.12-9.37-9.37,4.12-9.37,9.37-9.37Zm-1.87,78.75h3.75v33.75h-3.75v-33.75Zm0-37.5h3.75v3.75h-3.75v-3.75Zm0,7.5h3.75v3.75h-3.75v-3.75Zm22.31-18.56c2.44,2.44,3.94,5.81,3.94,9.19v35.62h-9.37v37.5h-3.75v-45h3.75v3.75h5.62v-31.87c0-2.44-.94-4.87-2.81-6.56-1.69-1.87-4.12-2.81-6.56-2.81h-3l-8.25,8.25-8.25-8.25h-3c-2.44,0-4.87,.94-6.56,2.81-1.87,1.69-2.81,4.12-2.81,6.56v31.87h5.62v-3.75h3.75v45h-3.75v-37.5h-9.37v-35.62c0-3.56,1.31-6.75,3.94-9.19,2.44-2.62,5.62-3.94,9.19-3.94h4.5l6.75,6.75,6.75-6.75h4.5c3.56,0,6.75,1.31,9.19,3.94Zm75.19-15.56l-4.31-12.75h-1.31v-5.62h-3.75v5.62h-1.31l-4.31,12.75v90.37h1.87v3.75c0,.94,.37,1.87,1.12,2.62s1.69,1.12,2.62,1.12h3.75c.94,0,1.87-.37,2.62-1.12s1.12-1.69,1.12-2.62v-3.75h1.87v-90.37Zm-8.06-9h1.12l3.19,9.75v3.37h-7.5v-3.37l3.19-9.75Zm-3.19,91.87h7.5v3.75h-7.5v-3.75Zm0-3.75v-61.87h7.5v61.87h-7.5Zm0-65.62v-5.62h7.5v5.62h-7.5Zm5.62,80.62h-3.75v-3.75h3.75v3.75Zm-61.87-93.75h11.25v-11.25h-11.25v11.25Zm3.75-7.5h3.75v3.75h-3.75v-3.75Zm-3.75,22.5h11.25v-11.25h-11.25v11.25Zm3.75-7.5h3.75v3.75h-3.75v-3.75Zm-3.75,22.5h11.25v-11.25h-11.25v11.25Zm3.75-7.5h3.75v3.75h-3.75v-3.75Zm-3.75,22.5h11.25v-11.25h-11.25v11.25Zm3.75-7.5h3.75v3.75h-3.75v-3.75Zm-3.75,22.5h11.25v-11.25h-11.25v11.25Zm3.75-7.5h3.75v3.75h-3.75v-3.75Zm-3.75,22.5h11.25v-11.25h-11.25v11.25Zm3.75-7.5h3.75v3.75h-3.75v-3.75Zm-3.75,22.5h11.25v-11.25h-11.25v11.25Zm3.75-7.5h3.75v3.75h-3.75v-3.75Zm30-90h-18.75v-3.75h18.75v3.75Zm-18.75,3.75h33.75v3.75h-33.75v-3.75Zm18.75,11.25h-18.75v-3.75h18.75v3.75Zm-18.75,3.75h33.75v3.75h-33.75v-3.75Zm18.75,11.25h-18.75v-3.75h18.75v3.75Zm-18.75,3.75h33.75v3.75h-33.75v-3.75Zm18.75,11.25h-18.75v-3.75h18.75v3.75Zm-18.75,3.75h33.75v3.75h-33.75v-3.75Zm18.75,11.25h-18.75v-3.75h18.75v3.75Zm-18.75,3.75h33.75v3.75h-33.75v-3.75Zm18.75,11.25h-18.75v-3.75h18.75v3.75Zm-18.75,3.75h33.75v3.75h-33.75v-3.75Zm18.75,11.25h-18.75v-3.75h18.75v3.75Zm-18.75,3.75h33.75v3.75h-33.75v-3.75Zm-11.25-101.25h-3.75v-3.75h3.75v3.75Zm3.75-3.75h3.75v3.75h-3.75v-3.75Zm11.25,3.75h-3.75v-3.75h3.75v3.75Z" fill="#fff"/>
    </g>
  </g>  
  <g id="infografico1-item5" tabindex="0" class="popover-top svg-item" role="button" data-toggle="popover" data-placement="top" data-trigger="focus" data-html="true" title="Intrassetorialidade" data-content="Exercício permanente da desfragmentação das ações e serviços ofertados por um setor, visando à construção e articulação de redes cooperativas e resolutivas.">
    <g class="background" data-name="background">
      <polygon points="868.55 178.43 868.55 306.83 979.85 371.13 1091.15 306.83 1091.15 178.43 979.85 114.13 868.55 178.43" fill="#fd8d3d" fill-rule="evenodd"/>
      <polygon points="868.55 306.83 979.85 371.13 1091.15 306.83 1091.15 178.43 868.55 306.83" fill="#f96702" fill-rule="evenodd"/>
    </g>
    <g class="content">
      <path d="M1039.83,252.18h0c-.2-1.23-.94-2.3-2.02-2.91-2.93-1.81-9.64-3.32-16.13-.08-2.7,1.35-5.42,2.97-7.95,4.53-.06-.12-.12-.23-.2-.34-.85-1.26-2.45-1.88-4.77-1.88-2.87,0-8.18,2.81-15.36,6.84-2.17,1.29-4.41,2.45-6.71,3.49-1.5-.18-2.96-.32-4.56-.47-2.43-.23-5.2-.49-8.89-.94h0c-1.27-.47-2.49-1.1-3.61-1.86-8.27-4.92-17.41-8.22-26.91-9.71-14.77-2.54-21.05,.33-21.36,.49-.46,.21-.82,.59-1,1.06-.17,.47-.15,1,.07,1.46,.22,.46,.61,.81,1.09,.97,.48,.16,1,.13,1.45-.1,.06,0,5.72-2.49,19.11-.18,9.08,1.43,17.8,4.58,25.69,9.28,2.2,1.25,3.64,2.08,4.98,2.26,3.75,.51,6.57,.77,9.03,1,4.05,.3,8.07,.9,12.03,1.79,7.02,1.59,11.62,4.42,12.97,7.96,.69,1.84,.43,3.89-.69,5.5l-1.42,.94c-2.9,.6-9.47-1.28-13.28-2.38h0c-2.61-.88-5.29-1.51-8.02-1.88-8.07-.3-16.14,.29-24.08,1.77-.5,.09-.94,.37-1.22,.79-.28,.42-.39,.93-.29,1.43,.1,.5,.4,.93,.82,1.2,.42,.27,.94,.37,1.43,.25,7.63-1.41,15.4-1.98,23.15-1.71,2.43,.36,4.83,.93,7.17,1.71,3,.86,6.04,1.73,8.81,2.22-9.51,5.76-18.3,10.16-22.43,10.16-8.12,0-41.88-16.38-54.21-22.68-.92-.43-2.01-.06-2.47,.84-.46,.9-.12,2.01,.77,2.5,1.88,.94,45.24,23.09,55.93,23.09,5.46,0,17.4-6.25,29.32-13.85h0c1.11-.28,2.09-.91,2.81-1.8,14.1-9.28,27.5-19.94,29.11-23.72,.44-.93,.67-1.95,.68-2.98,.87-1.17,1.28-2.62,1.15-4.08Zm-45.17,11.08l-1.69-.39,2.25-1.26c4.27-2.38,11.42-6.36,13.53-6.36,.58-.07,1.17,.03,1.7,.28-.05-.05-.08-.12-.09-.2,0-.03,0-.06,0-.08l.52,.21c-1.73,1.07-3.35,2.06-4.69,2.81-2.03,1.1-8.8,4.22-10.82,5.14l-.7-.15Zm39.91-5.5h-.03c-1.22,2.81-11.73,11.25-23.64,19.35h0c.03-1.23-.19-2.46-.63-3.61-.66-1.67-1.7-3.17-3.02-4.39,5.83-3.22,9.19-5.42,11.71-7.06h0c2.61-1.86,5.45-3.38,8.44-4.54,5.26-2.03,7.26-1.55,7.5-1.33,.05,.55-.07,1.1-.34,1.59Zm-8.49-3.75c-3.24,1.25-6.31,2.9-9.14,4.91-2.67,1.74-6.32,4.14-12.98,7.75h0c-1.05-.6-2.14-1.13-3.26-1.58,2.71-1.26,5.93-2.81,7.29-3.53,1.67-.94,3.62-2.12,5.69-3.41,3-1.86,6.4-3.97,9.68-5.61h0c5.07-2.53,10.32-1.4,12.48-.08,.06,.04,.12,.08,.17,.13-2.16-.76-5.47-.29-9.93,1.42Z" fill="#fff"/>
      <path d="M974.83,246.77l2.14,1.57c.32,.24,.71,.37,1.12,.37h0c.41,0,.81-.12,1.13-.36l2.38-1.77c10.66-7.87,30.5-22.52,30.5-41.9,0-5.46-2.47-10.62-6.73-14.04-4.25-3.42-9.83-4.72-15.15-3.55-5.33,1.17-9.84,4.7-12.26,9.59-2.42-4.89-6.93-8.41-12.26-9.58-5.33-1.17-10.9,.13-15.15,3.54-4.25,3.41-6.73,8.57-6.74,14.02,0,19.52,20.18,34.23,31.01,42.13Zm-23.08-52.21c2.67-2.67,6.3-4.18,10.08-4.18h0c3.78,0,7.41,1.51,10.08,4.19,2.67,2.68,4.17,6.3,4.17,10.09,0,1.04,.84,1.88,1.88,1.88s1.88-.84,1.88-1.88c0-5.09,2.72-9.8,7.13-12.35,4.41-2.55,9.85-2.55,14.26,0,4.41,2.55,7.13,7.25,7.13,12.35,0,17.49-18.86,31.39-28.99,38.89l-1.29,.94-1.04-.76c-10.32-7.5-29.46-21.47-29.46-39.09,0-3.78,1.51-7.4,4.18-10.08Z" fill="#fff"/>
      <path d="M973.5,237.03h8.91v-8.63h8.63v-8.91h-8.63v-8.63h-8.91v8.63h-8.63v8.91h8.63v8.63Zm-6.05-11.2v-3.76h8.63v-8.63h3.76v8.63h8.63v3.76h-8.63v8.63h-3.76v-8.63h-8.63Z" fill="#fff"/>
    </g>
  </g>

  <g class="text-label">
    <g isolation="isolate">
      <path d="M49.54,402.16v2.18h-11.05v-14h10.76v2.18h-8.02v3.64h7.12v2.14h-7.12v3.86h8.32Z" fill="#313233"/>
      <path d="M55.25,393.1v.64h3.1v2h-3.01v8.6h-2.63v-8.6h-1.85v-2h1.85v-.68c0-2.24,1.41-3.7,4.02-3.7,.91,0,1.79,.18,2.38,.58l-.74,1.88c-.4-.26-.91-.44-1.45-.44-1.09,0-1.66,.58-1.66,1.72Z" fill="#313233"/>
      <path d="M70.47,399.8h-8.82c.32,1.56,1.68,2.56,3.64,2.56,1.26,0,2.25-.38,3.05-1.16l1.41,1.54c-1.01,1.14-2.59,1.74-4.53,1.74-3.77,0-6.21-2.3-6.21-5.48s2.46-5.46,5.81-5.46,5.69,2.18,5.69,5.52c0,.2-.02,.5-.04,.74Zm-8.84-1.66h6.38c-.21-1.54-1.45-2.6-3.18-2.6s-2.95,1.04-3.2,2.6Z" fill="#313233"/>
      <path d="M79.8,403.76c-.63,.48-1.58,.72-2.53,.72-2.46,0-3.87-1.24-3.87-3.6v-5.14h-1.85v-2h1.85v-2.44h2.63v2.44h3.01v2h-3.01v5.08c0,1.04,.55,1.6,1.56,1.6,.55,0,1.07-.14,1.47-.44l.74,1.78Z" fill="#313233"/>
      <path d="M81.61,390.4c0-.84,.72-1.5,1.68-1.5s1.68,.62,1.68,1.44c0,.88-.69,1.56-1.68,1.56s-1.68-.66-1.68-1.5Zm.36,3.26h2.63v10.68h-2.63v-10.68Z" fill="#313233"/>
      <path d="M98.58,393.66l-4.82,10.68h-2.72l-4.82-10.68h2.74l3.5,7.92,3.6-7.92h2.53Z" fill="#313233"/>
      <path d="M109.27,398.08v6.26h-2.48v-1.3c-.63,.92-1.85,1.44-3.54,1.44-2.57,0-4.19-1.34-4.19-3.2s1.26-3.18,4.67-3.18h2.91v-.16c0-1.46-.93-2.32-2.8-2.32-1.26,0-2.57,.4-3.41,1.06l-1.03-1.82c1.2-.88,2.95-1.32,4.76-1.32,3.24,0,5.12,1.46,5.12,4.54Zm-2.63,2.92v-1.24h-2.72c-1.79,0-2.27,.64-2.27,1.42,0,.9,.8,1.48,2.15,1.48s2.4-.56,2.84-1.66Z" fill="#313233"/>
      <path d="M119.15,393.54v2.38c-.23-.04-.42-.06-.61-.06-2,0-3.26,1.12-3.26,3.3v5.18h-2.63v-10.68h2.51v1.56c.76-1.12,2.13-1.68,4-1.68Z" fill="#313233"/>
      <path d="M126.37,399c0-3.2,2.53-5.46,5.98-5.46s6,2.26,6,5.46-2.51,5.48-6,5.48-5.98-2.28-5.98-5.48Zm9.33,0c0-2.04-1.43-3.34-3.35-3.34s-3.33,1.3-3.33,3.34,1.43,3.34,3.33,3.34,3.35-1.3,3.35-3.34Z" fill="#313233"/>
      <path d="M145.76,399c0-3.2,2.53-5.46,6.09-5.46,2.19,0,3.94,.86,4.8,2.48l-2.02,1.12c-.67-1.02-1.68-1.48-2.8-1.48-1.94,0-3.41,1.28-3.41,3.34s1.47,3.34,3.41,3.34c1.12,0,2.13-.46,2.8-1.48l2.02,1.12c-.86,1.6-2.61,2.5-4.8,2.5-3.56,0-6.09-2.28-6.09-5.48Z" fill="#313233"/>
      <path d="M157.82,399c0-3.2,2.53-5.46,5.98-5.46s6,2.26,6,5.46-2.51,5.48-6,5.48-5.98-2.28-5.98-5.48Zm9.33,0c0-2.04-1.43-3.34-3.35-3.34s-3.33,1.3-3.33,3.34,1.43,3.34,3.33,3.34,3.35-1.3,3.35-3.34Z" fill="#313233"/>
      <path d="M183.4,398.22v6.12h-2.63v-5.8c0-1.9-.99-2.82-2.67-2.82-1.87,0-3.14,1.08-3.14,3.22v5.4h-2.63v-10.68h2.51v1.38c.86-.98,2.23-1.5,3.87-1.5,2.7,0,4.7,1.46,4.7,4.68Z" fill="#313233"/>
      <path d="M183.06,407.74l.76-1.86c.4,.28,.95,.42,1.54,.42,.97,0,1.52-.56,1.52-1.7v-10.94h2.63v10.88c0,2.34-1.41,3.82-3.92,3.82-.97,0-1.92-.18-2.53-.62Zm3.43-17.34c0-.84,.72-1.5,1.68-1.5s1.68,.62,1.68,1.44c0,.88-.69,1.56-1.68,1.56s-1.68-.66-1.68-1.5Z" fill="#313233"/>
      <path d="M203.85,393.66v10.68h-2.51v-1.36c-.84,.98-2.17,1.5-3.62,1.5-2.88,0-4.84-1.5-4.84-4.72v-6.1h2.63v5.76c0,1.94,.97,2.86,2.63,2.86,1.83,0,3.07-1.08,3.07-3.22v-5.4h2.63Z" fill="#313233"/>
      <path d="M218.37,398.22v6.12h-2.63v-5.8c0-1.9-.99-2.82-2.67-2.82-1.87,0-3.14,1.08-3.14,3.22v5.4h-2.63v-10.68h2.51v1.38c.86-.98,2.23-1.5,3.87-1.5,2.7,0,4.7,1.46,4.7,4.68Z" fill="#313233"/>
      <path d="M228.48,403.76c-.63,.48-1.58,.72-2.53,.72-2.46,0-3.87-1.24-3.87-3.6v-5.14h-1.85v-2h1.85v-2.44h2.63v2.44h3.01v2h-3.01v5.08c0,1.04,.55,1.6,1.56,1.6,.55,0,1.07-.14,1.47-.44l.74,1.78Z" fill="#313233"/>
      <path d="M229.34,399c0-3.2,2.53-5.46,5.98-5.46s6,2.26,6,5.46-2.51,5.48-6,5.48-5.98-2.28-5.98-5.48Zm9.33,0c0-2.04-1.43-3.34-3.35-3.34s-3.33,1.3-3.33,3.34,1.43,3.34,3.33,3.34,3.35-1.3,3.35-3.34Z" fill="#313233"/>
      <path d="M260.67,389.5v14.84h-2.53v-1.38c-.88,1.02-2.19,1.52-3.73,1.52-3.26,0-5.69-2.16-5.69-5.48s2.42-5.46,5.69-5.46c1.45,0,2.74,.46,3.62,1.44v-5.48h2.63Zm-2.59,9.5c0-2.04-1.45-3.34-3.35-3.34s-3.35,1.3-3.35,3.34,1.45,3.34,3.35,3.34,3.35-1.3,3.35-3.34Z" fill="#313233"/>
      <path d="M274.65,399.8h-8.82c.32,1.56,1.68,2.56,3.64,2.56,1.26,0,2.25-.38,3.05-1.16l1.41,1.54c-1.01,1.14-2.59,1.74-4.53,1.74-3.77,0-6.21-2.3-6.21-5.48s2.46-5.46,5.81-5.46,5.69,2.18,5.69,5.52c0,.2-.02,.5-.04,.74Zm-8.84-1.66h6.38c-.21-1.54-1.45-2.6-3.18-2.6s-2.95,1.04-3.2,2.6Z" fill="#313233"/>
      <path d="M101.04,423c0,3.32-2.42,5.48-5.71,5.48-1.43,0-2.7-.46-3.6-1.44v5.18h-2.63v-14.56h2.51v1.4c.88-1.02,2.19-1.52,3.73-1.52,3.29,0,5.71,2.16,5.71,5.46Zm-2.67,0c0-2.04-1.43-3.34-3.33-3.34s-3.35,1.3-3.35,3.34,1.45,3.34,3.35,3.34,3.33-1.3,3.33-3.34Z" fill="#313233"/>
      <path d="M102.62,423c0-3.2,2.53-5.46,5.98-5.46s6,2.26,6,5.46-2.51,5.48-6,5.48-5.98-2.28-5.98-5.48Zm9.33,0c0-2.04-1.43-3.34-3.35-3.34s-3.33,1.3-3.33,3.34,1.43,3.34,3.33,3.34,3.35-1.3,3.35-3.34Z" fill="#313233"/>
      <path d="M117.13,413.5h2.63v14.84h-2.63v-14.84Z" fill="#313233"/>
      <path d="M125.61,413.46h3.1l-3.66,2.74h-2.27l2.84-2.74Zm-2.4,4.2h2.63v10.68h-2.63v-10.68Z" fill="#313233"/>
      <path d="M136.05,427.76c-.63,.48-1.58,.72-2.53,.72-2.46,0-3.87-1.24-3.87-3.6v-5.14h-1.85v-2h1.85v-2.44h2.63v2.44h3.01v2h-3.01v5.08c0,1.04,.55,1.6,1.56,1.6,.55,0,1.07-.14,1.47-.44l.74,1.78Z" fill="#313233"/>
      <path d="M137.86,414.4c0-.84,.72-1.5,1.68-1.5s1.68,.62,1.68,1.44c0,.88-.69,1.56-1.68,1.56s-1.68-.66-1.68-1.5Zm.36,3.26h2.63v10.68h-2.63v-10.68Z" fill="#313233"/>
      <path d="M143.38,423c0-3.2,2.53-5.46,6.09-5.46,2.19,0,3.94,.86,4.8,2.48l-2.02,1.12c-.67-1.02-1.68-1.48-2.8-1.48-1.94,0-3.41,1.28-3.41,3.34s1.47,3.34,3.41,3.34c1.12,0,2.13-.46,2.8-1.48l2.02,1.12c-.86,1.6-2.61,2.5-4.8,2.5-3.56,0-6.09-2.28-6.09-5.48Z" fill="#313233"/>
      <path d="M165.95,422.08v6.26h-2.48v-1.3c-.63,.92-1.85,1.44-3.54,1.44-2.57,0-4.19-1.34-4.19-3.2s1.26-3.18,4.67-3.18h2.91v-.16c0-1.46-.93-2.32-2.8-2.32-1.26,0-2.57,.4-3.41,1.06l-1.03-1.82c1.2-.88,2.95-1.32,4.76-1.32,3.24,0,5.12,1.46,5.12,4.54Zm-2.63,2.92v-1.24h-2.72c-1.79,0-2.27,.64-2.27,1.42,0,.9,.8,1.48,2.15,1.48s2.4-.56,2.84-1.66Z" fill="#313233"/>
      <path d="M168.03,427.28l1.01-1.9c.99,.62,2.51,1.06,3.92,1.06,1.66,0,2.36-.44,2.36-1.18,0-2.04-6.95-.12-6.95-4.38,0-2.02,1.92-3.34,4.95-3.34,1.5,0,3.2,.34,4.21,.92l-1.01,1.9c-1.07-.6-2.15-.8-3.22-.8-1.6,0-2.36,.5-2.36,1.2,0,2.16,6.95,.24,6.95,4.42,0,2-1.94,3.3-5.1,3.3-1.87,0-3.75-.52-4.76-1.2Z" fill="#313233"/>
      <path d="M197.91,423c0,3.32-2.42,5.48-5.71,5.48-1.43,0-2.7-.46-3.6-1.44v5.18h-2.63v-14.56h2.51v1.4c.88-1.02,2.19-1.52,3.73-1.52,3.29,0,5.71,2.16,5.71,5.46Zm-2.67,0c0-2.04-1.43-3.34-3.33-3.34s-3.35,1.3-3.35,3.34,1.45,3.34,3.35,3.34,3.33-1.3,3.33-3.34Z" fill="#313233"/>
      <path d="M211.3,417.66v10.68h-2.51v-1.36c-.84,.98-2.17,1.5-3.62,1.5-2.89,0-4.84-1.5-4.84-4.72v-6.1h2.63v5.76c0,1.94,.97,2.86,2.63,2.86,1.83,0,3.07-1.08,3.07-3.22v-5.4h2.63Zm-4.99-1.46h-2.27l2.84-2.74h3.1l-3.66,2.74Z" fill="#313233"/>
      <path d="M226.69,423c0,3.32-2.42,5.48-5.71,5.48-1.54,0-2.84-.5-3.73-1.52v1.38h-2.51v-14.84h2.63v5.46c.91-.96,2.17-1.42,3.6-1.42,3.29,0,5.71,2.14,5.71,5.46Zm-2.67,0c0-2.04-1.43-3.34-3.33-3.34s-3.35,1.3-3.35,3.34,1.45,3.34,3.35,3.34,3.33-1.3,3.33-3.34Z" fill="#313233"/>
      <path d="M229.2,413.5h2.63v14.84h-2.63v-14.84Z" fill="#313233"/>
      <path d="M234.92,414.4c0-.84,.72-1.5,1.68-1.5s1.68,.62,1.68,1.44c0,.88-.69,1.56-1.68,1.56s-1.68-.66-1.68-1.5Zm.36,3.26h2.63v10.68h-2.63v-10.68Z" fill="#313233"/>
      <path d="M240.44,423c0-3.2,2.53-5.46,6.09-5.46,2.19,0,3.94,.86,4.8,2.48l-2.02,1.12c-.67-1.02-1.68-1.48-2.8-1.48-1.94,0-3.41,1.28-3.41,3.34s1.47,3.34,3.41,3.34c1.12,0,2.13-.46,2.8-1.48l2.02,1.12c-.86,1.6-2.61,2.5-4.8,2.5-3.56,0-6.09-2.28-6.09-5.48Z" fill="#313233"/>
      <path d="M263.01,422.08v6.26h-2.48v-1.3c-.63,.92-1.85,1.44-3.54,1.44-2.57,0-4.19-1.34-4.19-3.2s1.26-3.18,4.67-3.18h2.91v-.16c0-1.46-.93-2.32-2.8-2.32-1.26,0-2.57,.4-3.41,1.06l-1.03-1.82c1.2-.88,2.95-1.32,4.76-1.32,3.24,0,5.12,1.46,5.12,4.54Zm-2.63,2.92v-1.24h-2.72c-1.79,0-2.27,.64-2.27,1.42,0,.9,.8,1.48,2.15,1.48s2.4-.56,2.84-1.66Z" fill="#313233"/>
      <path d="M265.09,427.28l1.01-1.9c.99,.62,2.51,1.06,3.92,1.06,1.66,0,2.36-.44,2.36-1.18,0-2.04-6.95-.12-6.95-4.38,0-2.02,1.92-3.34,4.95-3.34,1.5,0,3.2,.34,4.21,.92l-1.01,1.9c-1.07-.6-2.15-.8-3.22-.8-1.6,0-2.36,.5-2.36,1.2,0,2.16,6.95,.24,6.95,4.42,0,2-1.94,3.3-5.1,3.3-1.87,0-3.75-.52-4.76-1.2Z" fill="#313233"/>
      <path d="M17.48,451.28l1.01-1.9c.99,.62,2.51,1.06,3.92,1.06,1.66,0,2.36-.44,2.36-1.18,0-2.04-6.95-.12-6.95-4.38,0-2.02,1.92-3.34,4.95-3.34,1.5,0,3.2,.34,4.21,.92l-1.01,1.9c-1.07-.6-2.15-.8-3.22-.8-1.6,0-2.36,.5-2.36,1.2,0,2.16,6.95,.24,6.95,4.42,0,2-1.94,3.3-5.1,3.3-1.87,0-3.75-.52-4.76-1.2Z" fill="#313233"/>
      <path d="M39.02,446.08v6.26h-2.48v-1.3c-.63,.92-1.85,1.44-3.54,1.44-2.57,0-4.19-1.34-4.19-3.2s1.26-3.18,4.67-3.18h2.91v-.16c0-1.46-.93-2.32-2.8-2.32-1.26,0-2.57,.4-3.41,1.06l-1.03-1.82c1.2-.88,2.95-1.32,4.76-1.32,3.24,0,5.12,1.46,5.12,4.54Zm-2.63,2.92v-1.24h-2.72c-1.79,0-2.27,.64-2.27,1.42,0,.9,.8,1.48,2.15,1.48s2.4-.56,2.84-1.66Z" fill="#313233"/>
      <path d="M53.27,441.66v10.68h-2.51v-1.36c-.84,.98-2.17,1.5-3.62,1.5-2.88,0-4.84-1.5-4.84-4.72v-6.1h2.63v5.76c0,1.94,.97,2.86,2.63,2.86,1.83,0,3.07-1.08,3.07-3.22v-5.4h2.63Z" fill="#313233"/>
      <path d="M67.73,437.5v14.84h-2.53v-1.38c-.88,1.02-2.19,1.52-3.73,1.52-3.26,0-5.69-2.16-5.69-5.48s2.42-5.46,5.69-5.46c1.45,0,2.74,.46,3.62,1.44v-5.48h2.63Zm-2.59,9.5c0-2.04-1.45-3.34-3.35-3.34s-3.35,1.3-3.35,3.34,1.45,3.34,3.35,3.34,3.35-1.3,3.35-3.34Z" fill="#313233"/>
      <path d="M80.6,446.08v6.26h-2.48v-1.3c-.63,.92-1.85,1.44-3.54,1.44-2.57,0-4.19-1.34-4.19-3.2s1.26-3.18,4.67-3.18h2.91v-.16c0-1.46-.93-2.32-2.8-2.32-1.26,0-2.57,.4-3.41,1.06l-1.03-1.82c1.2-.88,2.95-1.32,4.76-1.32,3.24,0,5.12,1.46,5.12,4.54Zm-2.63,2.92v-1.24h-2.72c-1.79,0-2.27,.64-2.27,1.42,0,.9,.8,1.48,2.15,1.48s2.4-.56,2.84-1.66Zm-1.75-8.8h-2.27l2.84-2.74h3.1l-3.66,2.74Z" fill="#313233"/>
      <path d="M94.28,441.66l-4.82,10.68h-2.72l-4.82-10.68h2.74l3.5,7.92,3.6-7.92h2.53Z" fill="#313233"/>
      <path d="M106.14,447.8h-8.82c.32,1.56,1.68,2.56,3.64,2.56,1.26,0,2.25-.38,3.05-1.16l1.41,1.54c-1.01,1.14-2.59,1.74-4.53,1.74-3.77,0-6.21-2.3-6.21-5.48s2.46-5.46,5.81-5.46,5.69,2.18,5.69,5.52c0,.2-.02,.5-.04,.74Zm-8.84-1.66h6.38c-.21-1.54-1.45-2.6-3.18-2.6s-2.95,1.04-3.2,2.6Z" fill="#313233"/>
      <path d="M108.35,438.4c0-.84,.72-1.5,1.68-1.5s1.68,.62,1.68,1.44c0,.88-.69,1.56-1.68,1.56s-1.68-.66-1.68-1.5Zm.36,3.26h2.63v10.68h-2.63v-10.68Z" fill="#313233"/>
      <path d="M113.5,451.28l1.01-1.9c.99,.62,2.51,1.06,3.92,1.06,1.66,0,2.36-.44,2.36-1.18,0-2.04-6.95-.12-6.95-4.38,0-2.02,1.92-3.34,4.95-3.34,1.5,0,3.2,.34,4.21,.92l-1.01,1.9c-1.07-.6-2.15-.8-3.22-.8-1.6,0-2.36,.5-2.36,1.2,0,2.16,6.95,.24,6.95,4.42,0,2-1.94,3.3-5.1,3.3-1.87,0-3.75-.52-4.76-1.2Z" fill="#313233"/>
      <path d="M130.51,447c0-3.2,2.53-5.46,6.09-5.46,2.19,0,3.94,.86,4.8,2.48l-2.02,1.12c-.67-1.02-1.68-1.48-2.8-1.48-1.94,0-3.41,1.28-3.41,3.34s1.47,3.34,3.41,3.34c1.12,0,2.13-.46,2.8-1.48l2.02,1.12c-.86,1.6-2.61,2.5-4.8,2.5-3.56,0-6.09-2.28-6.09-5.48Z" fill="#313233"/>
      <path d="M142.58,447c0-3.2,2.53-5.46,5.98-5.46s6,2.26,6,5.46-2.51,5.48-6,5.48-5.98-2.28-5.98-5.48Zm9.33,0c0-2.04-1.43-3.34-3.35-3.34s-3.33,1.3-3.33,3.34,1.43,3.34,3.33,3.34,3.35-1.3,3.35-3.34Z" fill="#313233"/>
      <path d="M168.16,446.22v6.12h-2.63v-5.8c0-1.9-.99-2.82-2.67-2.82-1.87,0-3.14,1.08-3.14,3.22v5.4h-2.63v-10.68h2.51v1.38c.86-.98,2.23-1.5,3.87-1.5,2.7,0,4.7,1.46,4.7,4.68Z" fill="#313233"/>
      <path d="M182.6,441.66v14.56h-2.63v-5.18c-.91,.98-2.17,1.44-3.6,1.44-3.29,0-5.69-2.16-5.69-5.48s2.4-5.46,5.69-5.46c1.54,0,2.84,.5,3.73,1.52v-1.4h2.51Zm-2.59,5.34c0-2.04-1.43-3.34-3.35-3.34s-3.33,1.3-3.33,3.34,1.43,3.34,3.33,3.34,3.35-1.3,3.35-3.34Z" fill="#313233"/>
      <path d="M196.94,441.66v10.68h-2.51v-1.36c-.84,.98-2.17,1.5-3.62,1.5-2.88,0-4.84-1.5-4.84-4.72v-6.1h2.63v5.76c0,1.94,.97,2.86,2.63,2.86,1.83,0,3.07-1.08,3.07-3.22v-5.4h2.63Z" fill="#313233"/>
      <path d="M200.03,438.4c0-.84,.72-1.5,1.68-1.5s1.68,.62,1.68,1.44c0,.88-.69,1.56-1.68,1.56s-1.68-.66-1.68-1.5Zm.36,3.26h2.63v10.68h-2.63v-10.68Z" fill="#313233"/>
      <path d="M205.19,451.28l1.01-1.9c.99,.62,2.51,1.06,3.92,1.06,1.66,0,2.36-.44,2.36-1.18,0-2.04-6.95-.12-6.95-4.38,0-2.02,1.92-3.34,4.95-3.34,1.5,0,3.2,.34,4.21,.92l-1.01,1.9c-1.07-.6-2.15-.8-3.22-.8-1.6,0-2.36,.5-2.36,1.2,0,2.16,6.95,.24,6.95,4.42,0,2-1.94,3.3-5.1,3.3-1.87,0-3.75-.52-4.76-1.2Z" fill="#313233"/>
      <path d="M224.08,451.76c-.63,.48-1.58,.72-2.53,.72-2.46,0-3.87-1.24-3.87-3.6v-5.14h-1.85v-2h1.85v-2.44h2.63v2.44h3.01v2h-3.01v5.08c0,1.04,.55,1.6,1.56,1.6,.55,0,1.07-.14,1.47-.44l.74,1.78Z" fill="#313233"/>
      <path d="M235.66,446.08v6.26h-2.48v-1.3c-.63,.92-1.85,1.44-3.54,1.44-2.57,0-4.19-1.34-4.19-3.2s1.26-3.18,4.67-3.18h2.91v-.16c0-1.46-.93-2.32-2.8-2.32-1.26,0-2.57,.4-3.41,1.06l-1.03-1.82c1.2-.88,2.95-1.32,4.76-1.32,3.24,0,5.12,1.46,5.12,4.54Zm-2.63,2.92v-1.24h-2.72c-1.79,0-2.27,.64-2.27,1.42,0,.9,.8,1.48,2.15,1.48s2.4-.56,2.84-1.66Z" fill="#313233"/>
      <path d="M250.14,437.5v14.84h-2.53v-1.38c-.88,1.02-2.19,1.52-3.73,1.52-3.26,0-5.69-2.16-5.69-5.48s2.42-5.46,5.69-5.46c1.45,0,2.74,.46,3.62,1.44v-5.48h2.63Zm-2.59,9.5c0-2.04-1.45-3.34-3.35-3.34s-3.35,1.3-3.35,3.34,1.45,3.34,3.35,3.34,3.35-1.3,3.35-3.34Z" fill="#313233"/>
      <path d="M263.01,446.08v6.26h-2.48v-1.3c-.63,.92-1.85,1.44-3.54,1.44-2.57,0-4.19-1.34-4.19-3.2s1.26-3.18,4.67-3.18h2.91v-.16c0-1.46-.93-2.32-2.8-2.32-1.26,0-2.57,.4-3.41,1.06l-1.03-1.82c1.2-.88,2.95-1.32,4.76-1.32,3.24,0,5.12,1.46,5.12,4.54Zm-2.63,2.92v-1.24h-2.72c-1.79,0-2.27,.64-2.27,1.42,0,.9,.8,1.48,2.15,1.48s2.4-.56,2.84-1.66Z" fill="#313233"/>
      <path d="M265.09,451.28l1.01-1.9c.99,.62,2.51,1.06,3.92,1.06,1.66,0,2.36-.44,2.36-1.18,0-2.04-6.95-.12-6.95-4.38,0-2.02,1.92-3.34,4.95-3.34,1.5,0,3.2,.34,4.21,.92l-1.01,1.9c-1.07-.6-2.15-.8-3.22-.8-1.6,0-2.36,.5-2.36,1.2,0,2.16,6.95,.24,6.95,4.42,0,2-1.94,3.3-5.1,3.3-1.87,0-3.75-.52-4.76-1.2Z" fill="#313233"/>
      <path d="M122.48,471c0,3.32-2.42,5.48-5.71,5.48-1.43,0-2.7-.46-3.6-1.44v5.18h-2.63v-14.56h2.51v1.4c.88-1.02,2.19-1.52,3.73-1.52,3.29,0,5.71,2.16,5.71,5.46Zm-2.67,0c0-2.04-1.43-3.34-3.33-3.34s-3.35,1.3-3.35,3.34,1.45,3.34,3.35,3.34,3.33-1.3,3.33-3.34Z" fill="#313233"/>
      <path d="M135.51,471.8h-8.82c.32,1.56,1.68,2.56,3.64,2.56,1.26,0,2.25-.38,3.05-1.16l1.41,1.54c-1.01,1.14-2.59,1.74-4.53,1.74-3.77,0-6.21-2.3-6.21-5.48s2.46-5.46,5.81-5.46,5.69,2.18,5.69,5.52c0,.2-.02,.5-.04,.74Zm-8.84-1.66h6.38c-.21-1.54-1.45-2.6-3.18-2.6s-2.95,1.04-3.2,2.6Z" fill="#313233"/>
      <path d="M138.07,461.5h2.63v14.84h-2.63v-14.84Z" fill="#313233"/>
      <path d="M153.57,470.08v6.26h-2.48v-1.3c-.63,.92-1.85,1.44-3.54,1.44-2.57,0-4.19-1.34-4.19-3.2s1.26-3.18,4.67-3.18h2.91v-.16c0-1.46-.93-2.32-2.8-2.32-1.26,0-2.57,.4-3.41,1.06l-1.03-1.82c1.2-.88,2.95-1.32,4.76-1.32,3.24,0,5.12,1.46,5.12,4.54Zm-2.63,2.92v-1.24h-2.72c-1.79,0-2.27,.64-2.27,1.42,0,.9,.8,1.48,2.15,1.48s2.4-.56,2.84-1.66Z" fill="#313233"/>
      <path d="M174.69,471c0,3.32-2.42,5.48-5.71,5.48-1.43,0-2.7-.46-3.6-1.44v5.18h-2.63v-14.56h2.51v1.4c.88-1.02,2.19-1.52,3.73-1.52,3.29,0,5.71,2.16,5.71,5.46Zm-2.67,0c0-2.04-1.43-3.34-3.33-3.34s-3.35,1.3-3.35,3.34,1.45,3.34,3.35,3.34,3.33-1.3,3.33-3.34Z" fill="#313233"/>
      <path d="M176.27,471c0-3.2,2.53-5.46,5.98-5.46s6,2.26,6,5.46-2.51,5.48-6,5.48-5.98-2.28-5.98-5.48Zm9.33,0c0-2.04-1.43-3.34-3.35-3.34s-3.33,1.3-3.33,3.34,1.43,3.34,3.33,3.34,3.35-1.3,3.35-3.34Z" fill="#313233"/>
      <path d="M202.71,471c0,3.32-2.42,5.48-5.71,5.48-1.43,0-2.7-.46-3.6-1.44v5.18h-2.63v-14.56h2.51v1.4c.88-1.02,2.19-1.52,3.73-1.52,3.29,0,5.71,2.16,5.71,5.46Zm-2.67,0c0-2.04-1.43-3.34-3.33-3.34s-3.35,1.3-3.35,3.34,1.45,3.34,3.35,3.34,3.33-1.3,3.33-3.34Z" fill="#313233"/>
      <path d="M216.1,465.66v10.68h-2.51v-1.36c-.84,.98-2.17,1.5-3.62,1.5-2.89,0-4.84-1.5-4.84-4.72v-6.1h2.63v5.76c0,1.94,.97,2.86,2.63,2.86,1.83,0,3.07-1.08,3.07-3.22v-5.4h2.63Z" fill="#313233"/>
      <path d="M219.55,461.5h2.63v14.84h-2.63v-14.84Z" fill="#313233"/>
      <path d="M235.05,470.08v6.26h-2.48v-1.3c-.63,.92-1.85,1.44-3.54,1.44-2.57,0-4.19-1.34-4.19-3.2s1.26-3.18,4.67-3.18h2.91v-.16c0-1.46-.93-2.32-2.8-2.32-1.26,0-2.57,.4-3.41,1.06l-1.03-1.82c1.2-.88,2.95-1.32,4.76-1.32,3.24,0,5.12,1.46,5.12,4.54Zm-2.63,2.92v-1.24h-2.72c-1.79,0-2.27,.64-2.27,1.42,0,.9,.8,1.48,2.15,1.48s2.4-.56,2.84-1.66Z" fill="#313233"/>
      <path d="M246.46,472.86l2.02,1.12c-.84,1.56-2.53,2.46-4.63,2.5l-.23,.84c1.24,.14,1.83,.82,1.83,1.68,0,1.16-1.14,1.9-2.86,1.9-.76,0-1.41-.14-1.94-.42l.48-1.18c.44,.22,.91,.32,1.43,.32,.78,0,1.12-.28,1.12-.72,0-.38-.32-.66-1.12-.66h-.65l.53-1.86c-2.89-.46-4.84-2.56-4.84-5.38,0-3.2,2.53-5.46,6.09-5.46,2.19,0,3.94,.86,4.8,2.48l-2.02,1.12c-.67-1.02-1.68-1.48-2.8-1.48-1.94,0-3.41,1.28-3.41,3.34s1.47,3.34,3.41,3.34c1.12,0,2.13-.46,2.8-1.48Z" fill="#313233"/>
      <path d="M260.17,470.08v6.26h-2.48v-1.3c-.63,.92-1.85,1.44-3.54,1.44-2.57,0-4.19-1.34-4.19-3.2s1.26-3.18,4.67-3.18h2.91v-.16c0-1.46-.93-2.32-2.8-2.32-1.26,0-2.57,.4-3.41,1.06l-1.03-1.82c1.2-.88,2.95-1.32,4.76-1.32,3.24,0,5.12,1.46,5.12,4.54Zm-7.26-6h-1.41c.04-1.64,.93-2.68,2.27-2.68s2.11,1.32,2.86,1.32c.59,0,.99-.42,1.03-1.14h1.41c-.04,1.56-.93,2.62-2.27,2.62s-2.11-1.32-2.86-1.32c-.59,0-.99,.44-1.03,1.2Zm4.63,8.92v-1.24h-2.72c-1.79,0-2.27,.64-2.27,1.42,0,.9,.8,1.48,2.15,1.48s2.4-.56,2.84-1.66Z" fill="#313233"/>
      <path d="M262.71,471c0-3.2,2.53-5.46,5.98-5.46s6,2.26,6,5.46-2.51,5.48-6,5.48-5.98-2.28-5.98-5.48Zm9.33,0c0-2.04-1.43-3.34-3.35-3.34s-3.33,1.3-3.33,3.34,1.43,3.34,3.33,3.34,3.35-1.3,3.35-3.34Z" fill="#313233"/>
    </g>
    <g isolation="isolate">
      <path d="M161.31,602.42c0-4.18,3.37-7.2,7.9-7.2,2.4,0,4.46,.82,5.83,2.34l-1.77,1.58c-1.07-1.1-2.4-1.64-3.94-1.64-3.05,0-5.26,2.04-5.26,4.92s2.21,4.92,5.26,4.92c1.54,0,2.86-.54,3.94-1.66l1.77,1.6c-1.37,1.52-3.43,2.34-5.85,2.34-4.51,0-7.88-3.02-7.88-7.2Z" fill="#313233"/>
      <path d="M183.92,598.62v2.38c-.23-.04-.42-.06-.61-.06-2,0-3.26,1.12-3.26,3.3v5.18h-2.63v-10.68h2.51v1.56c.76-1.12,2.13-1.68,4-1.68Z" fill="#313233"/>
      <path d="M185.79,595.48c0-.84,.72-1.5,1.68-1.5s1.68,.62,1.68,1.44c0,.88-.69,1.56-1.68,1.56s-1.68-.66-1.68-1.5Zm.36,3.26h2.63v10.68h-2.63v-10.68Z" fill="#313233"/>
      <path d="M201.65,603.16v6.26h-2.49v-1.3c-.63,.92-1.85,1.44-3.54,1.44-2.57,0-4.19-1.34-4.19-3.2s1.26-3.18,4.67-3.18h2.91v-.16c0-1.46-.93-2.32-2.8-2.32-1.26,0-2.57,.4-3.41,1.06l-1.03-1.82c1.2-.88,2.95-1.32,4.76-1.32,3.24,0,5.12,1.46,5.12,4.54Zm-2.63,2.92v-1.24h-2.72c-1.79,0-2.27,.64-2.27,1.42,0,.9,.8,1.48,2.15,1.48s2.4-.56,2.84-1.66Z" fill="#313233"/>
      <path d="M211.52,598.62v2.38c-.23-.04-.42-.06-.61-.06-2,0-3.26,1.12-3.26,3.3v5.18h-2.63v-10.68h2.51v1.56c.76-1.12,2.13-1.68,4-1.68Z" fill="#313233"/>
      <path d="M229.08,603.16v6.26h-2.48v-1.3c-.63,.92-1.85,1.44-3.54,1.44-2.57,0-4.19-1.34-4.19-3.2s1.26-3.18,4.67-3.18h2.91v-.16c0-1.46-.93-2.32-2.8-2.32-1.26,0-2.57,.4-3.41,1.06l-1.03-1.82c1.2-.88,2.95-1.32,4.76-1.32,3.24,0,5.12,1.46,5.12,4.54Zm-2.63,2.92v-1.24h-2.72c-1.79,0-2.27,.64-2.27,1.42,0,.9,.8,1.48,2.15,1.48s2.4-.56,2.84-1.66Z" fill="#313233"/>
      <path d="M251.25,603.3v6.12h-2.63v-5.8c0-1.9-.93-2.82-2.53-2.82-1.73,0-2.93,1.08-2.93,3.2v5.42h-2.63v-5.8c0-1.9-.93-2.82-2.53-2.82-1.75,0-2.93,1.08-2.93,3.2v5.42h-2.63v-10.68h2.51v1.36c.84-.96,2.15-1.48,3.69-1.48,1.64,0,3.01,.58,3.79,1.78,.91-1.1,2.42-1.78,4.21-1.78,2.72,0,4.61,1.46,4.61,4.68Z" fill="#313233"/>
      <path d="M266.56,604.08c0,3.32-2.42,5.48-5.71,5.48-1.54,0-2.84-.5-3.73-1.52v1.38h-2.51v-14.84h2.63v5.46c.91-.96,2.17-1.42,3.6-1.42,3.29,0,5.71,2.14,5.71,5.46Zm-2.67,0c0-2.04-1.43-3.34-3.33-3.34s-3.35,1.3-3.35,3.34,1.45,3.34,3.35,3.34,3.33-1.3,3.33-3.34Z" fill="#313233"/>
      <path d="M268.7,595.48c0-.84,.72-1.5,1.68-1.5s1.68,.62,1.68,1.44c0,.88-.69,1.56-1.68,1.56s-1.68-.66-1.68-1.5Zm.36,3.26h2.63v10.68h-2.63v-10.68Z" fill="#313233"/>
      <path d="M285.68,604.88h-8.82c.32,1.56,1.68,2.56,3.64,2.56,1.26,0,2.25-.38,3.05-1.16l1.41,1.54c-1.01,1.14-2.59,1.74-4.53,1.74-3.77,0-6.21-2.3-6.21-5.48s2.46-5.46,5.81-5.46,5.69,2.18,5.69,5.52c0,.2-.02,.5-.04,.74Zm-8.84-1.66h6.38c-.21-1.54-1.45-2.6-3.18-2.6s-2.95,1.04-3.2,2.6Z" fill="#313233"/>
      <path d="M299.32,603.3v6.12h-2.63v-5.8c0-1.9-.99-2.82-2.67-2.82-1.88,0-3.14,1.08-3.14,3.22v5.4h-2.63v-10.68h2.51v1.38c.86-.98,2.23-1.5,3.88-1.5,2.7,0,4.7,1.46,4.7,4.68Z" fill="#313233"/>
      <path d="M309.42,608.85c-.63,.48-1.58,.72-2.53,.72-2.46,0-3.87-1.24-3.87-3.6v-5.14h-1.85v-2h1.85v-2.44h2.63v2.44h3.01v2h-3.01v5.08c0,1.04,.55,1.6,1.56,1.6,.55,0,1.07-.14,1.47-.44l.74,1.78Z" fill="#313233"/>
      <path d="M321.74,604.88h-8.82c.32,1.56,1.68,2.56,3.64,2.56,1.26,0,2.25-.38,3.05-1.16l1.41,1.54c-1.01,1.14-2.59,1.74-4.53,1.74-3.77,0-6.21-2.3-6.21-5.48s2.46-5.46,5.81-5.46,5.69,2.18,5.69,5.52c0,.2-.02,.5-.04,.74Zm-8.84-1.66h6.38c-.21-1.54-1.45-2.6-3.18-2.6s-2.95,1.04-3.2,2.6Z" fill="#313233"/>
      <path d="M323.02,608.37l1.01-1.9c.99,.62,2.51,1.06,3.92,1.06,1.66,0,2.36-.44,2.36-1.18,0-2.04-6.95-.12-6.95-4.38,0-2.02,1.92-3.34,4.95-3.34,1.5,0,3.2,.34,4.21,.92l-1.01,1.9c-1.07-.6-2.15-.8-3.22-.8-1.6,0-2.36,.5-2.36,1.2,0,2.16,6.95,.24,6.95,4.42,0,2-1.94,3.3-5.1,3.3-1.87,0-3.75-.52-4.76-1.2Z" fill="#313233"/>
      <path d="M115.18,628.08c0,3.32-2.42,5.48-5.71,5.48-1.43,0-2.7-.46-3.6-1.44v5.18h-2.63v-14.56h2.51v1.4c.88-1.02,2.19-1.52,3.73-1.52,3.29,0,5.71,2.16,5.71,5.46Zm-2.67,0c0-2.04-1.43-3.34-3.33-3.34s-3.35,1.3-3.35,3.34,1.45,3.34,3.35,3.34,3.33-1.3,3.33-3.34Z" fill="#313233"/>
      <path d="M124.19,622.62v2.38c-.23-.04-.42-.06-.61-.06-2,0-3.26,1.12-3.26,3.3v5.18h-2.63v-10.68h2.51v1.56c.76-1.12,2.13-1.68,4-1.68Z" fill="#313233"/>
      <path d="M125.39,628.08c0-3.2,2.53-5.46,5.98-5.46s6,2.26,6,5.46-2.51,5.48-6,5.48-5.98-2.28-5.98-5.48Zm9.33,0c0-2.04-1.43-3.34-3.35-3.34s-3.33,1.3-3.33,3.34,1.43,3.34,3.33,3.34,3.35-1.3,3.35-3.34Z" fill="#313233"/>
      <path d="M158.7,627.3v6.12h-2.63v-5.8c0-1.9-.93-2.82-2.53-2.82-1.73,0-2.93,1.08-2.93,3.2v5.42h-2.63v-5.8c0-1.9-.93-2.82-2.53-2.82-1.75,0-2.93,1.08-2.93,3.2v5.42h-2.63v-10.68h2.51v1.36c.84-.96,2.15-1.48,3.69-1.48,1.64,0,3.01,.58,3.79,1.78,.91-1.1,2.42-1.78,4.21-1.78,2.72,0,4.61,1.46,4.61,4.68Z" fill="#313233"/>
      <path d="M161.25,628.08c0-3.2,2.53-5.46,5.98-5.46s6,2.26,6,5.46-2.51,5.48-6,5.48-5.98-2.28-5.98-5.48Zm9.33,0c0-2.04-1.43-3.34-3.35-3.34s-3.33,1.3-3.33,3.34,1.43,3.34,3.33,3.34,3.35-1.3,3.35-3.34Z" fill="#313233"/>
      <path d="M182.51,632.85c-.63,.48-1.58,.72-2.53,.72-2.46,0-3.87-1.24-3.87-3.6v-5.14h-1.85v-2h1.85v-2.44h2.63v2.44h3.01v2h-3.01v5.08c0,1.04,.55,1.6,1.56,1.6,.55,0,1.07-.14,1.47-.44l.74,1.78Z" fill="#313233"/>
      <path d="M183.37,628.08c0-3.2,2.53-5.46,5.98-5.46s6,2.26,6,5.46-2.51,5.48-6,5.48-5.98-2.28-5.98-5.48Zm9.33,0c0-2.04-1.43-3.34-3.35-3.34s-3.33,1.3-3.33,3.34,1.43,3.34,3.33,3.34,3.35-1.3,3.35-3.34Z" fill="#313233"/>
      <path d="M204.39,622.62v2.38c-.23-.04-.42-.06-.61-.06-2,0-3.26,1.12-3.26,3.3v5.18h-2.63v-10.68h2.51v1.56c.76-1.12,2.13-1.68,4-1.68Z" fill="#313233"/>
      <path d="M217.04,628.88h-8.82c.32,1.56,1.68,2.56,3.64,2.56,1.26,0,2.25-.38,3.05-1.16l1.41,1.54c-1.01,1.14-2.59,1.74-4.53,1.74-3.77,0-6.21-2.3-6.21-5.48s2.46-5.46,5.81-5.46,5.69,2.18,5.69,5.52c0,.2-.02,.5-.04,.74Zm-8.84-1.66h6.38c-.21-1.54-1.45-2.6-3.18-2.6s-2.95,1.04-3.2,2.6Z" fill="#313233"/>
      <path d="M218.32,632.37l1.01-1.9c.99,.62,2.51,1.06,3.92,1.06,1.66,0,2.36-.44,2.36-1.18,0-2.04-6.95-.12-6.95-4.38,0-2.02,1.92-3.34,4.95-3.34,1.5,0,3.2,.34,4.21,.92l-1.01,1.9c-1.07-.6-2.15-.8-3.22-.8-1.6,0-2.36,.5-2.36,1.2,0,2.16,6.95,.24,6.95,4.42,0,2-1.94,3.3-5.1,3.3-1.87,0-3.75-.52-4.76-1.2Z" fill="#313233"/>
      <path d="M247.27,618.58v14.84h-2.53v-1.38c-.88,1.02-2.19,1.52-3.73,1.52-3.26,0-5.69-2.16-5.69-5.48s2.42-5.46,5.69-5.46c1.45,0,2.74,.46,3.62,1.44v-5.48h2.63Zm-2.59,9.5c0-2.04-1.45-3.34-3.35-3.34s-3.35,1.3-3.35,3.34,1.45,3.34,3.35,3.34,3.35-1.3,3.35-3.34Z" fill="#313233"/>
      <path d="M261.25,628.88h-8.82c.32,1.56,1.68,2.56,3.64,2.56,1.26,0,2.25-.38,3.05-1.16l1.41,1.54c-1.01,1.14-2.59,1.74-4.53,1.74-3.77,0-6.21-2.3-6.21-5.48s2.46-5.46,5.81-5.46,5.69,2.18,5.69,5.52c0,.2-.02,.5-.04,.74Zm-8.84-1.66h6.38c-.21-1.54-1.45-2.6-3.18-2.6s-2.95,1.04-3.2,2.6Z" fill="#313233"/>
      <path d="M268.35,632.37l1.01-1.9c.99,.62,2.51,1.06,3.92,1.06,1.66,0,2.36-.44,2.36-1.18,0-2.04-6.95-.12-6.95-4.38,0-2.02,1.92-3.34,4.95-3.34,1.5,0,3.2,.34,4.21,.92l-1.01,1.9c-1.07-.6-2.15-.8-3.22-.8-1.6,0-2.36,.5-2.36,1.2,0,2.16,6.95,.24,6.95,4.42,0,2-1.94,3.3-5.1,3.3-1.87,0-3.75-.52-4.76-1.2Z" fill="#313233"/>
      <path d="M289.89,627.16v6.26h-2.48v-1.3c-.63,.92-1.85,1.44-3.54,1.44-2.57,0-4.19-1.34-4.19-3.2s1.26-3.18,4.67-3.18h2.91v-.16c0-1.46-.93-2.32-2.8-2.32-1.26,0-2.57,.4-3.41,1.06l-1.03-1.82c1.2-.88,2.95-1.32,4.76-1.32,3.24,0,5.12,1.46,5.12,4.54Zm-2.63,2.92v-1.24h-2.72c-1.79,0-2.27,.64-2.27,1.42,0,.9,.8,1.48,2.15,1.48s2.4-.56,2.84-1.66Z" fill="#313233"/>
      <path d="M304.14,622.74v10.68h-2.51v-1.36c-.84,.98-2.17,1.5-3.62,1.5-2.89,0-4.84-1.5-4.84-4.72v-6.1h2.63v5.76c0,1.94,.97,2.86,2.63,2.86,1.83,0,3.07-1.08,3.07-3.22v-5.4h2.63Zm-4.99-1.46h-2.27l2.84-2.74h3.1l-3.66,2.74Z" fill="#313233"/>
      <path d="M318.6,618.58v14.84h-2.53v-1.38c-.88,1.02-2.19,1.52-3.73,1.52-3.26,0-5.69-2.16-5.69-5.48s2.42-5.46,5.69-5.46c1.45,0,2.74,.46,3.62,1.44v-5.48h2.63Zm-2.59,9.5c0-2.04-1.45-3.34-3.35-3.34s-3.35,1.3-3.35,3.34,1.45,3.34,3.35,3.34,3.35-1.3,3.35-3.34Z" fill="#313233"/>
      <path d="M332.58,628.88h-8.82c.32,1.56,1.68,2.56,3.64,2.56,1.26,0,2.25-.38,3.05-1.16l1.41,1.54c-1.01,1.14-2.59,1.74-4.53,1.74-3.77,0-6.21-2.3-6.21-5.48s2.46-5.46,5.81-5.46,5.69,2.18,5.69,5.52c0,.2-.02,.5-.04,.74Zm-8.84-1.66h6.38c-.21-1.54-1.45-2.6-3.18-2.6s-2.95,1.04-3.2,2.6Z" fill="#313233"/>
    </g>
    <g isolation="isolate">
      <path d="M479.28,32.67v4.26h7.12v2.2h-7.12v5.36h-2.74v-14h10.76v2.18h-8.02Z" fill="#313233"/>
      <path d="M488.46,39.15c0-3.2,2.53-5.46,5.98-5.46s6,2.26,6,5.46-2.51,5.48-6,5.48-5.98-2.28-5.98-5.48Zm9.33,0c0-2.04-1.43-3.34-3.35-3.34s-3.33,1.3-3.33,3.34,1.43,3.34,3.33,3.34,3.35-1.3,3.35-3.34Z" fill="#313233"/>
      <path d="M509.48,33.69v2.38c-.23-.04-.42-.06-.61-.06-2,0-3.26,1.12-3.26,3.3v5.18h-2.63v-10.68h2.51v1.56c.76-1.12,2.13-1.68,4-1.68Z" fill="#313233"/>
      <path d="M518.89,43.91c-.63,.48-1.58,.72-2.53,.72-2.46,0-3.87-1.24-3.87-3.6v-5.14h-1.85v-2h1.85v-2.44h2.63v2.44h3.01v2h-3.01v5.08c0,1.04,.55,1.6,1.56,1.6,.55,0,1.07-.14,1.47-.44l.74,1.78Z" fill="#313233"/>
      <path d="M530.47,38.23v6.26h-2.48v-1.3c-.63,.92-1.85,1.44-3.54,1.44-2.57,0-4.19-1.34-4.19-3.2s1.26-3.18,4.67-3.18h2.91v-.16c0-1.46-.93-2.32-2.8-2.32-1.26,0-2.57,.4-3.41,1.06l-1.03-1.82c1.2-.88,2.95-1.32,4.76-1.32,3.24,0,5.12,1.46,5.12,4.54Zm-2.63,2.92v-1.24h-2.72c-1.79,0-2.27,.64-2.27,1.42,0,.9,.8,1.48,2.15,1.48s2.4-.56,2.84-1.66Z" fill="#313233"/>
      <path d="M533.83,29.65h2.63v14.84h-2.63v-14.84Z" fill="#313233"/>
      <path d="M550.45,39.95h-8.82c.32,1.56,1.68,2.56,3.64,2.56,1.26,0,2.25-.38,3.05-1.16l1.41,1.54c-1.01,1.14-2.59,1.74-4.53,1.74-3.77,0-6.21-2.3-6.21-5.48s2.46-5.46,5.81-5.46,5.69,2.18,5.69,5.52c0,.2-.02,.5-.04,.74Zm-8.84-1.66h6.38c-.21-1.54-1.45-2.6-3.18-2.6s-2.95,1.04-3.2,2.6Z" fill="#313233"/>
      <path d="M552.09,39.15c0-3.2,2.53-5.46,6.09-5.46,2.19,0,3.94,.86,4.8,2.48l-2.02,1.12c-.67-1.02-1.68-1.48-2.8-1.48-1.94,0-3.41,1.28-3.41,3.34s1.47,3.34,3.41,3.34c1.12,0,2.13-.46,2.8-1.48l2.02,1.12c-.86,1.6-2.61,2.5-4.8,2.5-3.56,0-6.09-2.28-6.09-5.48Z" fill="#313233"/>
      <path d="M575.61,39.95h-8.82c.32,1.56,1.68,2.56,3.64,2.56,1.26,0,2.25-.38,3.05-1.16l1.41,1.54c-1.01,1.14-2.59,1.74-4.53,1.74-3.77,0-6.21-2.3-6.21-5.48s2.46-5.46,5.81-5.46,5.69,2.18,5.69,5.52c0,.2-.02,.5-.04,.74Zm-8.84-1.66h6.38c-.21-1.54-1.45-2.6-3.18-2.6s-2.95,1.04-3.2,2.6Z" fill="#313233"/>
      <path d="M584.68,33.69v2.38c-.23-.04-.42-.06-.61-.06-2,0-3.26,1.12-3.26,3.3v5.18h-2.63v-10.68h2.51v1.56c.76-1.12,2.13-1.68,4-1.68Z" fill="#313233"/>
      <path d="M602.24,38.23v6.26h-2.48v-1.3c-.63,.92-1.85,1.44-3.54,1.44-2.57,0-4.19-1.34-4.19-3.2s1.26-3.18,4.67-3.18h2.91v-.16c0-1.46-.93-2.32-2.8-2.32-1.26,0-2.57,.4-3.41,1.06l-1.03-1.82c1.2-.88,2.95-1.32,4.76-1.32,3.24,0,5.12,1.46,5.12,4.54Zm-2.63,2.92v-1.24h-2.72c-1.79,0-2.27,.64-2.27,1.42,0,.9,.8,1.48,2.15,1.48s2.4-.56,2.84-1.66Z" fill="#313233"/>
      <path d="M620.83,38.23v6.26h-2.48v-1.3c-.63,.92-1.85,1.44-3.54,1.44-2.57,0-4.19-1.34-4.19-3.2s1.26-3.18,4.67-3.18h2.91v-.16c0-1.46-.93-2.32-2.8-2.32-1.26,0-2.57,.4-3.41,1.06l-1.03-1.82c1.2-.88,2.95-1.32,4.76-1.32,3.24,0,5.12,1.46,5.12,4.54Zm-2.63,2.92v-1.24h-2.72c-1.79,0-2.27,.64-2.27,1.42,0,.9,.8,1.48,2.15,1.48s2.4-.56,2.84-1.66Z" fill="#313233"/>
      <path d="M632.24,41.01l2.02,1.12c-.84,1.56-2.53,2.46-4.63,2.5l-.23,.84c1.24,.14,1.83,.82,1.83,1.68,0,1.16-1.14,1.9-2.86,1.9-.76,0-1.41-.14-1.94-.42l.48-1.18c.44,.22,.91,.32,1.43,.32,.78,0,1.12-.28,1.12-.72,0-.38-.32-.66-1.12-.66h-.65l.53-1.86c-2.89-.46-4.84-2.56-4.84-5.38,0-3.2,2.53-5.46,6.09-5.46,2.19,0,3.94,.86,4.8,2.48l-2.02,1.12c-.67-1.02-1.68-1.48-2.8-1.48-1.94,0-3.41,1.28-3.41,3.34s1.47,3.34,3.41,3.34c1.12,0,2.13-.46,2.8-1.48Z" fill="#313233"/>
      <path d="M645.95,38.23v6.26h-2.48v-1.3c-.63,.92-1.85,1.44-3.54,1.44-2.57,0-4.19-1.34-4.19-3.2s1.26-3.18,4.67-3.18h2.91v-.16c0-1.46-.93-2.32-2.8-2.32-1.26,0-2.57,.4-3.41,1.06l-1.03-1.82c1.2-.88,2.95-1.32,4.76-1.32,3.24,0,5.12,1.46,5.12,4.54Zm-7.26-6h-1.41c.04-1.64,.93-2.68,2.27-2.68s2.11,1.32,2.86,1.32c.59,0,.99-.42,1.03-1.14h1.41c-.04,1.56-.93,2.62-2.27,2.62s-2.11-1.32-2.86-1.32c-.59,0-.99,.44-1.03,1.2Zm4.63,8.92v-1.24h-2.72c-1.79,0-2.27,.64-2.27,1.42,0,.9,.8,1.48,2.15,1.48s2.4-.56,2.84-1.66Z" fill="#313233"/>
      <path d="M648.49,39.15c0-3.2,2.53-5.46,5.98-5.46s6,2.26,6,5.46-2.51,5.48-6,5.48-5.98-2.28-5.98-5.48Zm9.33,0c0-2.04-1.43-3.34-3.35-3.34s-3.33,1.3-3.33,3.34,1.43,3.34,3.33,3.34,3.35-1.3,3.35-3.34Z" fill="#313233"/>
      <path d="M667.88,39.15c0-3.2,2.53-5.46,6.09-5.46,2.19,0,3.94,.86,4.8,2.48l-2.02,1.12c-.67-1.02-1.68-1.48-2.8-1.48-1.94,0-3.41,1.28-3.41,3.34s1.47,3.34,3.41,3.34c1.12,0,2.13-.46,2.8-1.48l2.02,1.12c-.86,1.6-2.61,2.5-4.8,2.5-3.56,0-6.09-2.28-6.09-5.48Z" fill="#313233"/>
      <path d="M679.95,39.15c0-3.2,2.53-5.46,5.98-5.46s6,2.26,6,5.46-2.51,5.48-6,5.48-5.98-2.28-5.98-5.48Zm9.33,0c0-2.04-1.43-3.34-3.35-3.34s-3.33,1.3-3.33,3.34,1.43,3.34,3.33,3.34,3.35-1.3,3.35-3.34Z" fill="#313233"/>
      <path d="M713.26,38.37v6.12h-2.63v-5.8c0-1.9-.93-2.82-2.53-2.82-1.73,0-2.93,1.08-2.93,3.2v5.42h-2.63v-5.8c0-1.9-.93-2.82-2.53-2.82-1.75,0-2.93,1.08-2.93,3.2v5.42h-2.63v-10.68h2.51v1.36c.84-.96,2.15-1.48,3.69-1.48,1.64,0,3.01,.58,3.79,1.78,.91-1.1,2.42-1.78,4.21-1.78,2.72,0,4.61,1.46,4.61,4.68Z" fill="#313233"/>
      <path d="M727.51,33.81v10.68h-2.51v-1.36c-.84,.98-2.17,1.5-3.62,1.5-2.88,0-4.84-1.5-4.84-4.72v-6.1h2.63v5.76c0,1.94,.97,2.86,2.63,2.86,1.83,0,3.07-1.08,3.07-3.22v-5.4h2.63Z" fill="#313233"/>
      <path d="M742.04,38.37v6.12h-2.63v-5.8c0-1.9-.99-2.82-2.67-2.82-1.87,0-3.14,1.08-3.14,3.22v5.4h-2.63v-10.68h2.51v1.38c.86-.98,2.23-1.5,3.87-1.5,2.7,0,4.7,1.46,4.7,4.68Z" fill="#313233"/>
      <path d="M745.02,30.55c0-.84,.72-1.5,1.68-1.5s1.68,.62,1.68,1.44c0,.88-.69,1.56-1.68,1.56s-1.68-.66-1.68-1.5Zm.36,3.26h2.63v10.68h-2.63v-10.68Z" fill="#313233"/>
      <path d="M758.23,43.91c-.63,.48-1.58,.72-2.53,.72-2.46,0-3.87-1.24-3.87-3.6v-5.14h-1.85v-2h1.85v-2.44h2.63v2.44h3.01v2h-3.01v5.08c0,1.04,.55,1.6,1.56,1.6,.55,0,1.07-.14,1.47-.44l.74,1.78Z" fill="#313233"/>
      <path d="M769.81,38.23v6.26h-2.48v-1.3c-.63,.92-1.85,1.44-3.54,1.44-2.57,0-4.19-1.34-4.19-3.2s1.26-3.18,4.67-3.18h2.91v-.16c0-1.46-.93-2.32-2.8-2.32-1.26,0-2.57,.4-3.41,1.06l-1.03-1.82c1.2-.88,2.95-1.32,4.76-1.32,3.24,0,5.12,1.46,5.12,4.54Zm-2.63,2.92v-1.24h-2.72c-1.79,0-2.27,.64-2.27,1.42,0,.9,.8,1.48,2.15,1.48s2.4-.56,2.84-1.66Zm-1.75-8.8h-2.27l2.84-2.74h3.1l-3.66,2.74Z" fill="#313233"/>
      <path d="M779.68,33.69v2.38c-.23-.04-.42-.06-.61-.06-2,0-3.26,1.12-3.26,3.3v5.18h-2.63v-10.68h2.51v1.56c.76-1.12,2.13-1.68,4-1.68Z" fill="#313233"/>
      <path d="M781.55,30.55c0-.84,.72-1.5,1.68-1.5s1.68,.62,1.68,1.44c0,.88-.69,1.56-1.68,1.56s-1.68-.66-1.68-1.5Zm.36,3.26h2.63v10.68h-2.63v-10.68Z" fill="#313233"/>
      <path d="M797.41,38.23v6.26h-2.48v-1.3c-.63,.92-1.85,1.44-3.54,1.44-2.57,0-4.19-1.34-4.19-3.2s1.26-3.18,4.67-3.18h2.91v-.16c0-1.46-.93-2.32-2.8-2.32-1.26,0-2.57,.4-3.41,1.06l-1.03-1.82c1.2-.88,2.95-1.32,4.76-1.32,3.24,0,5.12,1.46,5.12,4.54Zm-2.63,2.92v-1.24h-2.72c-1.79,0-2.27,.64-2.27,1.42,0,.9,.8,1.48,2.15,1.48s2.4-.56,2.84-1.66Z" fill="#313233"/>
      <path d="M488.23,63.15c0,3.32-2.42,5.48-5.71,5.48-1.43,0-2.7-.46-3.6-1.44v5.18h-2.63v-14.56h2.51v1.4c.88-1.02,2.19-1.52,3.73-1.52,3.29,0,5.71,2.16,5.71,5.46Zm-2.67,0c0-2.04-1.43-3.34-3.33-3.34s-3.35,1.3-3.35,3.34,1.45,3.34,3.35,3.34,3.33-1.3,3.33-3.34Z" fill="#313233"/>
      <path d="M500,62.23v6.26h-2.48v-1.3c-.63,.92-1.85,1.44-3.54,1.44-2.57,0-4.19-1.34-4.19-3.2s1.26-3.18,4.67-3.18h2.91v-.16c0-1.46-.93-2.32-2.8-2.32-1.26,0-2.57,.4-3.41,1.06l-1.03-1.82c1.2-.88,2.95-1.32,4.76-1.32,3.24,0,5.12,1.46,5.12,4.54Zm-2.63,2.92v-1.24h-2.72c-1.79,0-2.27,.64-2.27,1.42,0,.9,.8,1.48,2.15,1.48s2.4-.56,2.84-1.66Z" fill="#313233"/>
      <path d="M509.88,57.69v2.38c-.23-.04-.42-.06-.61-.06-2,0-3.26,1.12-3.26,3.3v5.18h-2.63v-10.68h2.51v1.56c.76-1.12,2.13-1.68,4-1.68Z" fill="#313233"/>
      <path d="M521.46,62.23v6.26h-2.48v-1.3c-.63,.92-1.85,1.44-3.54,1.44-2.57,0-4.19-1.34-4.19-3.2s1.26-3.18,4.67-3.18h2.91v-.16c0-1.46-.93-2.32-2.8-2.32-1.26,0-2.57,.4-3.41,1.06l-1.03-1.82c1.2-.88,2.95-1.32,4.76-1.32,3.24,0,5.12,1.46,5.12,4.54Zm-2.63,2.92v-1.24h-2.72c-1.79,0-2.27,.64-2.27,1.42,0,.9,.8,1.48,2.15,1.48s2.4-.56,2.84-1.66Z" fill="#313233"/>
      <path d="M542.57,63.15c0,3.32-2.42,5.48-5.71,5.48-1.43,0-2.7-.46-3.6-1.44v5.18h-2.63v-14.56h2.51v1.4c.88-1.02,2.19-1.52,3.73-1.52,3.29,0,5.71,2.16,5.71,5.46Zm-2.67,0c0-2.04-1.43-3.34-3.33-3.34s-3.35,1.3-3.35,3.34,1.45,3.34,3.35,3.34,3.33-1.3,3.33-3.34Z" fill="#313233"/>
      <path d="M551.58,57.69v2.38c-.23-.04-.42-.06-.61-.06-2,0-3.26,1.12-3.26,3.3v5.18h-2.63v-10.68h2.51v1.56c.76-1.12,2.13-1.68,4-1.68Z" fill="#313233"/>
      <path d="M552.78,63.15c0-3.2,2.53-5.46,5.98-5.46s6,2.26,6,5.46-2.51,5.48-6,5.48-5.98-2.28-5.98-5.48Zm9.33,0c0-2.04-1.43-3.34-3.35-3.34s-3.33,1.3-3.33,3.34,1.43,3.34,3.33,3.34,3.35-1.3,3.35-3.34Z" fill="#313233"/>
      <path d="M586.09,62.37v6.12h-2.63v-5.8c0-1.9-.93-2.82-2.53-2.82-1.73,0-2.93,1.08-2.93,3.2v5.42h-2.63v-5.8c0-1.9-.93-2.82-2.53-2.82-1.75,0-2.93,1.08-2.93,3.2v5.42h-2.63v-10.68h2.51v1.36c.84-.96,2.15-1.48,3.69-1.48,1.64,0,3.01,.58,3.79,1.78,.91-1.1,2.42-1.78,4.21-1.78,2.72,0,4.61,1.46,4.61,4.68Z" fill="#313233"/>
      <path d="M588.64,63.15c0-3.2,2.53-5.46,5.98-5.46s6,2.26,6,5.46-2.51,5.48-6,5.48-5.98-2.28-5.98-5.48Zm9.33,0c0-2.04-1.43-3.34-3.35-3.34s-3.33,1.3-3.33,3.34,1.43,3.34,3.33,3.34,3.35-1.3,3.35-3.34Z" fill="#313233"/>
      <path d="M611.08,65.01l2.02,1.12c-.84,1.56-2.53,2.46-4.63,2.5l-.23,.84c1.24,.14,1.83,.82,1.83,1.68,0,1.16-1.14,1.9-2.86,1.9-.76,0-1.41-.14-1.94-.42l.48-1.18c.44,.22,.91,.32,1.43,.32,.78,0,1.12-.28,1.12-.72,0-.38-.32-.66-1.12-.66h-.65l.53-1.86c-2.89-.46-4.84-2.56-4.84-5.38,0-3.2,2.53-5.46,6.09-5.46,2.19,0,3.94,.86,4.8,2.48l-2.02,1.12c-.67-1.02-1.68-1.48-2.8-1.48-1.94,0-3.41,1.28-3.41,3.34s1.47,3.34,3.41,3.34c1.12,0,2.13-.46,2.8-1.48Z" fill="#313233"/>
      <path d="M624.79,62.23v6.26h-2.48v-1.3c-.63,.92-1.85,1.44-3.54,1.44-2.57,0-4.19-1.34-4.19-3.2s1.26-3.18,4.67-3.18h2.91v-.16c0-1.46-.93-2.32-2.8-2.32-1.26,0-2.57,.4-3.41,1.06l-1.03-1.82c1.2-.88,2.95-1.32,4.76-1.32,3.24,0,5.12,1.46,5.12,4.54Zm-7.26-6h-1.41c.04-1.64,.93-2.68,2.27-2.68s2.11,1.32,2.86,1.32c.59,0,.99-.42,1.03-1.14h1.41c-.04,1.56-.93,2.62-2.27,2.62s-2.11-1.32-2.86-1.32c-.59,0-.99,.44-1.03,1.2Zm4.63,8.92v-1.24h-2.72c-1.79,0-2.27,.64-2.27,1.42,0,.9,.8,1.48,2.15,1.48s2.4-.56,2.84-1.66Z" fill="#313233"/>
      <path d="M627.33,63.15c0-3.2,2.53-5.46,5.98-5.46s6,2.26,6,5.46-2.51,5.48-6,5.48-5.98-2.28-5.98-5.48Zm9.33,0c0-2.04-1.43-3.34-3.35-3.34s-3.33,1.3-3.33,3.34,1.43,3.34,3.33,3.34,3.35-1.3,3.35-3.34Z" fill="#313233"/>
      <path d="M658.66,53.65v14.84h-2.53v-1.38c-.88,1.02-2.19,1.52-3.73,1.52-3.26,0-5.69-2.16-5.69-5.48s2.42-5.46,5.69-5.46c1.45,0,2.74,.46,3.62,1.44v-5.48h2.63Zm-2.59,9.5c0-2.04-1.45-3.34-3.35-3.34s-3.35,1.3-3.35,3.34,1.45,3.34,3.35,3.34,3.35-1.3,3.35-3.34Z" fill="#313233"/>
      <path d="M671.53,62.23v6.26h-2.48v-1.3c-.63,.92-1.85,1.44-3.54,1.44-2.57,0-4.19-1.34-4.19-3.2s1.26-3.18,4.67-3.18h2.91v-.16c0-1.46-.93-2.32-2.8-2.32-1.26,0-2.57,.4-3.41,1.06l-1.03-1.82c1.2-.88,2.95-1.32,4.76-1.32,3.24,0,5.12,1.46,5.12,4.54Zm-2.63,2.92v-1.24h-2.72c-1.79,0-2.27,.64-2.27,1.42,0,.9,.8,1.48,2.15,1.48s2.4-.56,2.84-1.66Z" fill="#313233"/>
      <path d="M679.42,67.43l1.01-1.9c.99,.62,2.51,1.06,3.92,1.06,1.66,0,2.36-.44,2.36-1.18,0-2.04-6.95-.12-6.95-4.38,0-2.02,1.92-3.34,4.95-3.34,1.5,0,3.2,.34,4.21,.92l-1.01,1.9c-1.07-.6-2.15-.8-3.22-.8-1.6,0-2.36,.5-2.36,1.2,0,2.16,6.95,.24,6.95,4.42,0,2-1.94,3.3-5.1,3.3-1.87,0-3.75-.52-4.76-1.2Z" fill="#313233"/>
      <path d="M700.96,62.23v6.26h-2.48v-1.3c-.63,.92-1.85,1.44-3.54,1.44-2.57,0-4.19-1.34-4.19-3.2s1.26-3.18,4.67-3.18h2.91v-.16c0-1.46-.93-2.32-2.8-2.32-1.26,0-2.57,.4-3.41,1.06l-1.03-1.82c1.2-.88,2.95-1.32,4.76-1.32,3.24,0,5.12,1.46,5.12,4.54Zm-2.63,2.92v-1.24h-2.72c-1.79,0-2.27,.64-2.27,1.42,0,.9,.8,1.48,2.15,1.48s2.4-.56,2.84-1.66Z" fill="#313233"/>
      <path d="M715.21,57.81v10.68h-2.51v-1.36c-.84,.98-2.17,1.5-3.62,1.5-2.89,0-4.84-1.5-4.84-4.72v-6.1h2.63v5.76c0,1.94,.97,2.86,2.63,2.86,1.83,0,3.07-1.08,3.07-3.22v-5.4h2.63Zm-4.99-1.46h-2.27l2.84-2.74h3.1l-3.66,2.74Z" fill="#313233"/>
      <path d="M729.68,53.65v14.84h-2.53v-1.38c-.88,1.02-2.19,1.52-3.73,1.52-3.26,0-5.69-2.16-5.69-5.48s2.42-5.46,5.69-5.46c1.45,0,2.74,.46,3.62,1.44v-5.48h2.63Zm-2.59,9.5c0-2.04-1.45-3.34-3.35-3.34s-3.35,1.3-3.35,3.34,1.45,3.34,3.35,3.34,3.35-1.3,3.35-3.34Z" fill="#313233"/>
      <path d="M743.66,63.95h-8.82c.32,1.56,1.68,2.56,3.64,2.56,1.26,0,2.25-.38,3.05-1.16l1.41,1.54c-1.01,1.14-2.59,1.74-4.53,1.74-3.77,0-6.21-2.3-6.21-5.48s2.46-5.46,5.81-5.46,5.69,2.18,5.69,5.52c0,.2-.02,.5-.04,.74Zm-8.84-1.66h6.38c-.21-1.54-1.45-2.6-3.18-2.6s-2.95,1.04-3.2,2.6Z" fill="#313233"/>
    </g>
    <g isolation="isolate">
      <path d="M973.01,599.97h6.44c4.78,0,8.04,2.8,8.04,7s-3.26,7-8.04,7h-6.44v-14Zm6.32,11.8c3.29,0,5.41-1.9,5.41-4.8s-2.13-4.8-5.41-4.8h-3.58v9.6h3.58Z" fill="#313233"/>
      <path d="M1000.68,609.43h-8.82c.32,1.56,1.68,2.56,3.64,2.56,1.26,0,2.25-.38,3.05-1.16l1.41,1.54c-1.01,1.14-2.59,1.74-4.53,1.74-3.77,0-6.21-2.3-6.21-5.48s2.46-5.46,5.81-5.46,5.69,2.18,5.69,5.52c0,.2-.02,.5-.04,.74Zm-8.84-1.66h6.38c-.21-1.54-1.45-2.6-3.18-2.6s-2.95,1.04-3.2,2.6Z" fill="#313233"/>
      <path d="M1001.96,612.91l1.01-1.9c.99,.62,2.51,1.06,3.92,1.06,1.66,0,2.36-.44,2.36-1.18,0-2.04-6.95-.12-6.95-4.38,0-2.02,1.92-3.34,4.95-3.34,1.5,0,3.2,.34,4.21,.92l-1.01,1.9c-1.07-.6-2.15-.8-3.22-.8-1.6,0-2.36,.5-2.36,1.2,0,2.16,6.95,.24,6.95,4.42,0,2-1.94,3.3-5.1,3.3-1.87,0-3.75-.52-4.76-1.2Z" fill="#313233"/>
      <path d="M1024.62,609.43h-8.82c.32,1.56,1.68,2.56,3.64,2.56,1.26,0,2.25-.38,3.05-1.16l1.41,1.54c-1.01,1.14-2.59,1.74-4.53,1.74-3.77,0-6.21-2.3-6.21-5.48s2.46-5.46,5.81-5.46,5.69,2.18,5.69,5.52c0,.2-.02,.5-.04,.74Zm-8.84-1.66h6.38c-.21-1.54-1.45-2.6-3.18-2.6s-2.95,1.04-3.2,2.6Z" fill="#313233"/>
      <path d="M1038.26,607.85v6.12h-2.63v-5.8c0-1.9-.99-2.82-2.67-2.82-1.87,0-3.14,1.08-3.14,3.22v5.4h-2.63v-10.68h2.51v1.38c.86-.98,2.23-1.5,3.88-1.5,2.7,0,4.7,1.46,4.7,4.68Z" fill="#313233"/>
      <path d="M1051.92,603.29l-4.82,10.68h-2.72l-4.82-10.68h2.74l3.5,7.92,3.6-7.92h2.53Z" fill="#313233"/>
      <path d="M1052.32,608.63c0-3.2,2.53-5.46,5.98-5.46s6,2.26,6,5.46-2.51,5.48-6,5.48-5.98-2.28-5.98-5.48Zm9.33,0c0-2.04-1.43-3.34-3.35-3.34s-3.33,1.3-3.33,3.34,1.43,3.34,3.33,3.34,3.35-1.3,3.35-3.34Z" fill="#313233"/>
      <path d="M1066.83,599.12h2.63v14.84h-2.63v-14.84Z" fill="#313233"/>
      <path d="M1083.44,603.29l-4.82,10.68h-2.72l-4.82-10.68h2.74l3.5,7.92,3.6-7.92h2.53Z" fill="#313233"/>
      <path d="M1095.29,609.43h-8.82c.32,1.56,1.68,2.56,3.64,2.56,1.26,0,2.25-.38,3.05-1.16l1.41,1.54c-1.01,1.14-2.59,1.74-4.53,1.74-3.77,0-6.21-2.3-6.21-5.48s2.46-5.46,5.81-5.46,5.69,2.18,5.69,5.52c0,.2-.02,.5-.04,.74Zm-8.84-1.66h6.38c-.21-1.54-1.45-2.6-3.18-2.6s-2.95,1.04-3.2,2.6Z" fill="#313233"/>
      <path d="M1104.37,603.17v2.38c-.23-.04-.42-.06-.61-.06-2,0-3.26,1.12-3.26,3.3v5.18h-2.63v-10.68h2.51v1.56c.76-1.12,2.13-1.68,4-1.68Z" fill="#313233"/>
      <path d="M971.83,632.63c0-3.2,2.53-5.46,6.08-5.46,2.19,0,3.94,.86,4.8,2.48l-2.02,1.12c-.67-1.02-1.68-1.48-2.8-1.48-1.94,0-3.41,1.28-3.41,3.34s1.47,3.34,3.41,3.34c1.12,0,2.13-.46,2.8-1.48l2.02,1.12c-.86,1.6-2.61,2.5-4.8,2.5-3.56,0-6.08-2.28-6.08-5.48Z" fill="#313233"/>
      <path d="M994.4,631.71v6.26h-2.49v-1.3c-.63,.92-1.85,1.44-3.54,1.44-2.57,0-4.19-1.34-4.19-3.2s1.26-3.18,4.67-3.18h2.91v-.16c0-1.46-.93-2.32-2.8-2.32-1.26,0-2.57,.4-3.41,1.06l-1.03-1.82c1.2-.88,2.95-1.32,4.76-1.32,3.24,0,5.12,1.46,5.12,4.54Zm-2.63,2.92v-1.24h-2.72c-1.79,0-2.27,.64-2.27,1.42,0,.9,.8,1.48,2.15,1.48s2.4-.56,2.84-1.66Z" fill="#313233"/>
      <path d="M1009.71,632.63c0,3.32-2.42,5.48-5.71,5.48-1.43,0-2.7-.46-3.6-1.44v5.18h-2.63v-14.56h2.51v1.4c.88-1.02,2.19-1.52,3.73-1.52,3.29,0,5.71,2.16,5.71,5.46Zm-2.67,0c0-2.04-1.43-3.34-3.33-3.34s-3.35,1.3-3.35,3.34,1.45,3.34,3.35,3.34,3.33-1.3,3.33-3.34Z" fill="#313233"/>
      <path d="M1021.48,631.71v6.26h-2.48v-1.3c-.63,.92-1.85,1.44-3.54,1.44-2.57,0-4.19-1.34-4.19-3.2s1.26-3.18,4.67-3.18h2.91v-.16c0-1.46-.93-2.32-2.8-2.32-1.26,0-2.57,.4-3.41,1.06l-1.03-1.82c1.2-.88,2.95-1.32,4.76-1.32,3.24,0,5.12,1.46,5.12,4.54Zm-2.63,2.92v-1.24h-2.72c-1.79,0-2.27,.64-2.27,1.42,0,.9,.8,1.48,2.15,1.48s2.4-.56,2.84-1.66Z" fill="#313233"/>
      <path d="M1024.02,632.63c0-3.2,2.53-5.46,6.09-5.46,2.19,0,3.94,.86,4.8,2.48l-2.02,1.12c-.67-1.02-1.68-1.48-2.8-1.48-1.94,0-3.41,1.28-3.41,3.34s1.47,3.34,3.41,3.34c1.12,0,2.13-.46,2.8-1.48l2.02,1.12c-.86,1.6-2.61,2.5-4.8,2.5-3.56,0-6.09-2.28-6.09-5.48Z" fill="#313233"/>
      <path d="M1036.83,624.02c0-.84,.72-1.5,1.68-1.5s1.68,.62,1.68,1.44c0,.88-.69,1.56-1.68,1.56s-1.68-.66-1.68-1.5Zm.36,3.26h2.63v10.68h-2.63v-10.68Z" fill="#313233"/>
      <path d="M1054.28,623.12v14.84h-2.53v-1.38c-.88,1.02-2.19,1.52-3.73,1.52-3.26,0-5.68-2.16-5.68-5.48s2.42-5.46,5.68-5.46c1.45,0,2.74,.46,3.62,1.44v-5.48h2.63Zm-2.59,9.5c0-2.04-1.45-3.34-3.35-3.34s-3.35,1.3-3.35,3.34,1.45,3.34,3.35,3.34,3.35-1.3,3.35-3.34Z" fill="#313233"/>
      <path d="M1067.14,631.71v6.26h-2.49v-1.3c-.63,.92-1.85,1.44-3.54,1.44-2.57,0-4.19-1.34-4.19-3.2s1.26-3.18,4.67-3.18h2.91v-.16c0-1.46-.93-2.32-2.8-2.32-1.26,0-2.57,.4-3.41,1.06l-1.03-1.82c1.2-.88,2.95-1.32,4.76-1.32,3.24,0,5.12,1.46,5.12,4.54Zm-2.63,2.92v-1.24h-2.72c-1.79,0-2.27,.64-2.27,1.42,0,.9,.8,1.48,2.15,1.48s2.4-.56,2.84-1.66Z" fill="#313233"/>
      <path d="M1081.63,623.12v14.84h-2.53v-1.38c-.88,1.02-2.19,1.52-3.73,1.52-3.26,0-5.68-2.16-5.68-5.48s2.42-5.46,5.68-5.46c1.45,0,2.74,.46,3.62,1.44v-5.48h2.63Zm-2.59,9.5c0-2.04-1.45-3.34-3.35-3.34s-3.35,1.3-3.35,3.34,1.45,3.34,3.35,3.34,3.35-1.3,3.35-3.34Z" fill="#313233"/>
      <path d="M1095.61,633.43h-8.82c.32,1.56,1.68,2.56,3.64,2.56,1.26,0,2.25-.38,3.05-1.16l1.41,1.54c-1.01,1.14-2.59,1.74-4.53,1.74-3.77,0-6.21-2.3-6.21-5.48s2.46-5.46,5.81-5.46,5.69,2.18,5.69,5.52c0,.2-.02,.5-.04,.74Zm-8.84-1.66h6.38c-.21-1.54-1.45-2.6-3.18-2.6s-2.95,1.04-3.2,2.6Z" fill="#313233"/>
      <path d="M1096.89,636.91l1.01-1.9c.99,.62,2.5,1.06,3.92,1.06,1.66,0,2.36-.44,2.36-1.18,0-2.04-6.95-.12-6.95-4.38,0-2.02,1.92-3.34,4.95-3.34,1.5,0,3.2,.34,4.21,.92l-1.01,1.9c-1.07-.6-2.15-.8-3.22-.8-1.6,0-2.36,.5-2.36,1.2,0,2.16,6.95,.24,6.95,4.42,0,2-1.94,3.3-5.1,3.3-1.87,0-3.75-.52-4.76-1.2Z" fill="#313233"/>
      <path d="M1126.77,632.63c0,3.32-2.42,5.48-5.71,5.48-1.43,0-2.7-.46-3.6-1.44v5.18h-2.63v-14.56h2.51v1.4c.88-1.02,2.19-1.52,3.73-1.52,3.29,0,5.71,2.16,5.71,5.46Zm-2.67,0c0-2.04-1.43-3.34-3.33-3.34s-3.35,1.3-3.35,3.34,1.45,3.34,3.35,3.34,3.33-1.3,3.33-3.34Z" fill="#313233"/>
      <path d="M1139.8,633.43h-8.82c.32,1.56,1.68,2.56,3.64,2.56,1.26,0,2.25-.38,3.05-1.16l1.41,1.54c-1.01,1.14-2.59,1.74-4.53,1.74-3.77,0-6.21-2.3-6.21-5.48s2.46-5.46,5.81-5.46,5.69,2.18,5.69,5.52c0,.2-.02,.5-.04,.74Zm-8.84-1.66h6.38c-.21-1.54-1.45-2.6-3.18-2.6s-2.95,1.04-3.2,2.6Z" fill="#313233"/>
      <path d="M1141.08,636.91l1.01-1.9c.99,.62,2.5,1.06,3.92,1.06,1.66,0,2.36-.44,2.36-1.18,0-2.04-6.95-.12-6.95-4.38,0-2.02,1.92-3.34,4.95-3.34,1.5,0,3.2,.34,4.21,.92l-1.01,1.9c-1.07-.6-2.15-.8-3.22-.8-1.6,0-2.36,.5-2.36,1.2,0,2.16,6.95,.24,6.95,4.42,0,2-1.94,3.3-5.1,3.3-1.87,0-3.75-.52-4.76-1.2Z" fill="#313233"/>
      <path d="M1151.93,636.91l1.01-1.9c.99,.62,2.5,1.06,3.92,1.06,1.66,0,2.36-.44,2.36-1.18,0-2.04-6.95-.12-6.95-4.38,0-2.02,1.92-3.34,4.95-3.34,1.5,0,3.2,.34,4.21,.92l-1.01,1.9c-1.07-.6-2.15-.8-3.22-.8-1.6,0-2.36,.5-2.36,1.2,0,2.16,6.95,.24,6.95,4.42,0,2-1.94,3.3-5.1,3.3-1.87,0-3.75-.52-4.76-1.2Z" fill="#313233"/>
      <path d="M1163.13,632.63c0-3.2,2.53-5.46,5.98-5.46s6,2.26,6,5.46-2.51,5.48-6,5.48-5.98-2.28-5.98-5.48Zm9.33,0c0-2.04-1.43-3.34-3.35-3.34s-3.33,1.3-3.33,3.34,1.43,3.34,3.33,3.34,3.35-1.3,3.35-3.34Z" fill="#313233"/>
      <path d="M1186.9,631.71v6.26h-2.48v-1.3c-.63,.92-1.85,1.44-3.54,1.44-2.57,0-4.19-1.34-4.19-3.2s1.26-3.18,4.67-3.18h2.91v-.16c0-1.46-.93-2.32-2.8-2.32-1.26,0-2.57,.4-3.41,1.06l-1.03-1.82c1.2-.88,2.95-1.32,4.76-1.32,3.24,0,5.12,1.46,5.12,4.54Zm-2.63,2.92v-1.24h-2.72c-1.79,0-2.27,.64-2.27,1.42,0,.9,.8,1.48,2.15,1.48s2.4-.56,2.84-1.66Z" fill="#313233"/>
      <path d="M1189.91,624.02c0-.84,.72-1.5,1.68-1.5s1.68,.62,1.68,1.44c0,.88-.7,1.56-1.68,1.56s-1.68-.66-1.68-1.5Zm.36,3.26h2.63v10.68h-2.63v-10.68Z" fill="#313233"/>
      <path d="M1195.07,636.91l1.01-1.9c.99,.62,2.5,1.06,3.92,1.06,1.66,0,2.36-.44,2.36-1.18,0-2.04-6.95-.12-6.95-4.38,0-2.02,1.92-3.34,4.95-3.34,1.5,0,3.2,.34,4.21,.92l-1.01,1.9c-1.07-.6-2.15-.8-3.22-.8-1.6,0-2.36,.5-2.36,1.2,0,2.16,6.95,.24,6.95,4.42,0,2-1.94,3.3-5.1,3.3-1.87,0-3.75-.52-4.76-1.2Z" fill="#313233"/>
    </g>
    <g isolation="isolate">
      <path d="M1018.88,402.63l-3.01-4.1c-.19,.02-.38,.02-.57,.02h-3.33v4.08h-2.74v-14h6.06c3.87,0,6.27,1.88,6.27,4.98,0,2.12-1.14,3.68-3.14,4.42l3.39,4.6h-2.95Zm-3.71-11.8h-3.2v5.58h3.2c2.4,0,3.64-1.04,3.64-2.8s-1.24-2.78-3.64-2.78Z" fill="#313233"/>
      <path d="M1034.9,398.09h-8.82c.32,1.56,1.68,2.56,3.64,2.56,1.26,0,2.25-.38,3.05-1.16l1.41,1.54c-1.01,1.14-2.59,1.74-4.53,1.74-3.77,0-6.21-2.3-6.21-5.48s2.46-5.46,5.81-5.46,5.69,2.18,5.69,5.52c0,.2-.02,.5-.04,.74Zm-8.84-1.66h6.38c-.21-1.54-1.45-2.6-3.18-2.6s-2.95,1.04-3.2,2.6Z" fill="#313233"/>
      <path d="M1036.54,397.29c0-3.2,2.53-5.46,5.98-5.46s6,2.26,6,5.46-2.51,5.48-6,5.48-5.98-2.28-5.98-5.48Zm9.33,0c0-2.04-1.43-3.34-3.35-3.34s-3.33,1.3-3.33,3.34,1.43,3.34,3.33,3.34,3.35-1.3,3.35-3.34Z" fill="#313233"/>
      <path d="M1057.56,391.83v2.38c-.23-.04-.42-.06-.61-.06-2,0-3.26,1.12-3.26,3.3v5.18h-2.63v-10.68h2.51v1.56c.76-1.12,2.13-1.68,4-1.68Z" fill="#313233"/>
      <path d="M1059.43,388.69c0-.84,.72-1.5,1.68-1.5s1.68,.62,1.68,1.44c0,.88-.69,1.56-1.68,1.56s-1.68-.66-1.68-1.5Zm.36,3.26h2.63v10.68h-2.63v-10.68Z" fill="#313233"/>
      <path d="M1076.4,398.09h-8.82c.32,1.56,1.68,2.56,3.64,2.56,1.26,0,2.25-.38,3.05-1.16l1.41,1.54c-1.01,1.14-2.59,1.74-4.53,1.74-3.77,0-6.21-2.3-6.21-5.48s2.46-5.46,5.81-5.46,5.69,2.18,5.69,5.52c0,.2-.02,.5-.04,.74Zm-8.84-1.66h6.38c-.21-1.54-1.45-2.6-3.18-2.6s-2.95,1.04-3.2,2.6Z" fill="#313233"/>
      <path d="M1090.04,396.51v6.12h-2.63v-5.8c0-1.9-.99-2.82-2.67-2.82-1.88,0-3.14,1.08-3.14,3.22v5.4h-2.63v-10.68h2.51v1.38c.86-.98,2.23-1.5,3.88-1.5,2.7,0,4.7,1.46,4.7,4.68Z" fill="#313233"/>
      <path d="M1100.15,402.05c-.63,.48-1.58,.72-2.53,.72-2.46,0-3.87-1.24-3.87-3.6v-5.14h-1.85v-2h1.85v-2.44h2.63v2.44h3.01v2h-3.01v5.08c0,1.04,.55,1.6,1.56,1.6,.55,0,1.07-.14,1.47-.44l.74,1.78Z" fill="#313233"/>
      <path d="M1111.73,396.37v6.26h-2.49v-1.3c-.63,.92-1.85,1.44-3.54,1.44-2.57,0-4.19-1.34-4.19-3.2s1.26-3.18,4.67-3.18h2.91v-.16c0-1.46-.93-2.32-2.8-2.32-1.26,0-2.57,.4-3.41,1.06l-1.03-1.82c1.2-.88,2.95-1.32,4.76-1.32,3.24,0,5.12,1.46,5.12,4.54Zm-2.63,2.92v-1.24h-2.72c-1.79,0-2.27,.64-2.27,1.42,0,.9,.8,1.48,2.15,1.48s2.4-.56,2.84-1.66Z" fill="#313233"/>
      <path d="M1121.6,391.83v2.38c-.23-.04-.42-.06-.61-.06-2,0-3.26,1.12-3.26,3.3v5.18h-2.63v-10.68h2.51v1.56c.76-1.12,2.13-1.68,4-1.68Z" fill="#313233"/>
      <path d="M1128.82,397.29c0-3.2,2.53-5.46,5.98-5.46s6,2.26,6,5.46-2.51,5.48-6,5.48-5.98-2.28-5.98-5.48Zm9.33,0c0-2.04-1.43-3.34-3.35-3.34s-3.33,1.3-3.33,3.34,1.43,3.34,3.33,3.34,3.35-1.3,3.35-3.34Z" fill="#313233"/>
      <path d="M1142.04,401.57l1.01-1.9c.99,.62,2.51,1.06,3.92,1.06,1.66,0,2.36-.44,2.36-1.18,0-2.04-6.95-.12-6.95-4.38,0-2.02,1.92-3.34,4.95-3.34,1.5,0,3.2,.34,4.21,.92l-1.01,1.9c-1.07-.6-2.15-.8-3.22-.8-1.6,0-2.36,.5-2.36,1.2,0,2.16,6.95,.24,6.95,4.42,0,2-1.94,3.3-5.1,3.3-1.87,0-3.75-.52-4.76-1.2Z" fill="#313233"/>
      <path d="M1007.7,425.57l1.01-1.9c.99,.62,2.51,1.06,3.92,1.06,1.66,0,2.36-.44,2.36-1.18,0-2.04-6.95-.12-6.95-4.38,0-2.02,1.92-3.34,4.95-3.34,1.5,0,3.2,.34,4.21,.92l-1.01,1.9c-1.07-.6-2.15-.8-3.22-.8-1.6,0-2.36,.5-2.36,1.2,0,2.16,6.95,.24,6.95,4.42,0,2-1.94,3.3-5.1,3.3-1.87,0-3.75-.52-4.76-1.2Z" fill="#313233"/>
      <path d="M1030.36,422.09h-8.82c.32,1.56,1.68,2.56,3.64,2.56,1.26,0,2.25-.38,3.05-1.16l1.41,1.54c-1.01,1.14-2.59,1.74-4.53,1.74-3.77,0-6.21-2.3-6.21-5.48s2.46-5.46,5.81-5.46,5.69,2.18,5.69,5.52c0,.2-.02,.5-.04,.74Zm-8.84-1.66h6.38c-.21-1.54-1.45-2.6-3.18-2.6s-2.95,1.04-3.2,2.6Z" fill="#313233"/>
      <path d="M1039.43,415.83v2.38c-.23-.04-.42-.06-.61-.06-2,0-3.26,1.12-3.26,3.3v5.18h-2.63v-10.68h2.51v1.56c.76-1.12,2.13-1.68,4-1.68Z" fill="#313233"/>
      <path d="M1052.61,415.95l-4.82,10.68h-2.72l-4.82-10.68h2.74l3.5,7.92,3.6-7.92h2.53Z" fill="#313233"/>
      <path d="M1053.89,412.69c0-.84,.72-1.5,1.68-1.5s1.68,.62,1.68,1.44c0,.88-.7,1.56-1.68,1.56s-1.68-.66-1.68-1.5Zm.36,3.26h2.63v10.68h-2.63v-10.68Z" fill="#313233"/>
      <path d="M1068.27,423.15l2.02,1.12c-.84,1.56-2.53,2.46-4.63,2.5l-.23,.84c1.24,.14,1.83,.82,1.83,1.68,0,1.16-1.14,1.9-2.86,1.9-.76,0-1.41-.14-1.94-.42l.48-1.18c.44,.22,.91,.32,1.43,.32,.78,0,1.12-.28,1.12-.72,0-.38-.32-.66-1.12-.66h-.65l.53-1.86c-2.89-.46-4.84-2.56-4.84-5.38,0-3.2,2.53-5.46,6.09-5.46,2.19,0,3.94,.86,4.8,2.48l-2.02,1.12c-.67-1.02-1.68-1.48-2.8-1.48-1.94,0-3.41,1.28-3.41,3.34s1.47,3.34,3.41,3.34c1.12,0,2.13-.46,2.8-1.48Z" fill="#313233"/>
      <path d="M1071.47,421.29c0-3.2,2.53-5.46,5.98-5.46s6,2.26,6,5.46-2.51,5.48-6,5.48-5.98-2.28-5.98-5.48Zm9.33,0c0-2.04-1.43-3.34-3.35-3.34s-3.33,1.3-3.33,3.34,1.43,3.34,3.33,3.34,3.35-1.3,3.35-3.34Z" fill="#313233"/>
      <path d="M1084.69,425.57l1.01-1.9c.99,.62,2.51,1.06,3.92,1.06,1.66,0,2.36-.44,2.36-1.18,0-2.04-6.95-.12-6.95-4.38,0-2.02,1.92-3.34,4.95-3.34,1.5,0,3.2,.34,4.21,.92l-1.01,1.9c-1.07-.6-2.15-.8-3.22-.8-1.6,0-2.36,.5-2.36,1.2,0,2.16,6.95,.24,6.95,4.42,0,2-1.94,3.3-5.1,3.3-1.87,0-3.75-.52-4.76-1.2Z" fill="#313233"/>
      <path d="M1113.64,411.79v14.84h-2.53v-1.38c-.88,1.02-2.19,1.52-3.73,1.52-3.26,0-5.69-2.16-5.69-5.48s2.42-5.46,5.69-5.46c1.45,0,2.74,.46,3.62,1.44v-5.48h2.63Zm-2.59,9.5c0-2.04-1.45-3.34-3.35-3.34s-3.35,1.3-3.35,3.34,1.45,3.34,3.35,3.34,3.35-1.3,3.35-3.34Z" fill="#313233"/>
      <path d="M1127.62,422.09h-8.82c.32,1.56,1.68,2.56,3.64,2.56,1.26,0,2.25-.38,3.05-1.16l1.41,1.54c-1.01,1.14-2.59,1.74-4.53,1.74-3.77,0-6.21-2.3-6.21-5.48s2.46-5.46,5.81-5.46,5.69,2.18,5.69,5.52c0,.2-.02,.5-.04,.74Zm-8.84-1.66h6.38c-.21-1.54-1.45-2.6-3.18-2.6s-2.95,1.04-3.2,2.6Z" fill="#313233"/>
      <path d="M1134.72,425.57l1.01-1.9c.99,.62,2.51,1.06,3.92,1.06,1.66,0,2.36-.44,2.36-1.18,0-2.04-6.95-.12-6.95-4.38,0-2.02,1.92-3.34,4.95-3.34,1.5,0,3.2,.34,4.21,.92l-1.01,1.9c-1.07-.6-2.15-.8-3.22-.8-1.6,0-2.36,.5-2.36,1.2,0,2.16,6.95,.24,6.95,4.42,0,2-1.94,3.3-5.1,3.3-1.87,0-3.75-.52-4.76-1.2Z" fill="#313233"/>
      <path d="M1156.26,420.37v6.26h-2.48v-1.3c-.63,.92-1.85,1.44-3.54,1.44-2.57,0-4.19-1.34-4.19-3.2s1.26-3.18,4.67-3.18h2.91v-.16c0-1.46-.93-2.32-2.8-2.32-1.26,0-2.57,.4-3.41,1.06l-1.03-1.82c1.2-.88,2.95-1.32,4.76-1.32,3.24,0,5.12,1.46,5.12,4.54Zm-2.63,2.92v-1.24h-2.72c-1.79,0-2.27,.64-2.27,1.42,0,.9,.8,1.48,2.15,1.48s2.4-.56,2.84-1.66Z" fill="#313233"/>
      <path d="M1170.51,415.95v10.68h-2.51v-1.36c-.84,.98-2.17,1.5-3.62,1.5-2.89,0-4.84-1.5-4.84-4.72v-6.1h2.63v5.76c0,1.94,.97,2.86,2.63,2.86,1.83,0,3.07-1.08,3.07-3.22v-5.4h2.63Zm-4.99-1.46h-2.27l2.84-2.74h3.1l-3.66,2.74Z" fill="#313233"/>
      <path d="M1184.98,411.79v14.84h-2.53v-1.38c-.88,1.02-2.19,1.52-3.73,1.52-3.26,0-5.69-2.16-5.69-5.48s2.42-5.46,5.69-5.46c1.45,0,2.74,.46,3.62,1.44v-5.48h2.63Zm-2.59,9.5c0-2.04-1.45-3.34-3.35-3.34s-3.35,1.3-3.35,3.34,1.45,3.34,3.35,3.34,3.35-1.3,3.35-3.34Z" fill="#313233"/>
      <path d="M1198.96,422.09h-8.82c.32,1.56,1.68,2.56,3.64,2.56,1.26,0,2.25-.38,3.05-1.16l1.41,1.54c-1.01,1.14-2.59,1.74-4.53,1.74-3.77,0-6.21-2.3-6.21-5.48s2.46-5.46,5.81-5.46,5.69,2.18,5.69,5.52c0,.2-.02,.5-.04,.74Zm-8.84-1.66h6.38c-.21-1.54-1.45-2.6-3.18-2.6s-2.95,1.04-3.2,2.6Z" fill="#313233"/>
    </g>
    <line x1="250.66" y1="325.14" x2="214.86" y2="377.09" fill="none" stroke="#f96702" stroke-miterlimit="10" stroke-width="3"/>
    <line x1="275.49" y1="377.09" x2="17.3" y2="377.09" fill="none" stroke="#f96702" stroke-miterlimit="10" stroke-width="3"/>
    <line x1="1030.05" y1="325.14" x2="1065.85" y2="377.09" fill="none" stroke="#f96702" stroke-miterlimit="10" stroke-width="3"/>
    <line x1="1005.22" y1="377.09" x2="1206.57" y2="377.09" fill="none" stroke="#f96702" stroke-miterlimit="10" stroke-width="3"/>
    <polyline points="94.53 647.1 404.53 647.1 440.33 595.14" fill="none" stroke="#f96702" stroke-miterlimit="10" stroke-width="3"/>
    <polyline points="1211.2 647.1 901.2 647.1 865.4 595.14" fill="none" stroke="#f96702" stroke-miterlimit="10" stroke-width="3"/>
    <polyline points="803.87 77.68 475.03 77.68 539.43 77.68 591.33 153.27" fill="none" stroke="#f96702" stroke-miterlimit="10" stroke-width="3"/>
  </g>
</svg>