<?xml version="1.0" encoding="utf-8"?>
<!-- Generator: Adobe Illustrator 26.5.0, SVG Export Plug-In . SVG Version: 6.00 Build 0)  -->
<svg version="1.1" id="Layer_1" xmlns="http://www.w3.org/2000/svg" xmlns:xlink="http://www.w3.org/1999/xlink" x="0px" y="0px"
	 viewBox="0 0 720 720" style="enable-background:new 0 0 720 720;" xml:space="preserve">
<style type="text/css">
	.st0{fill:#E3F7FF;}
	.st1{fill:#0174AD;}
</style>
<g>
	<rect x="-13.6" y="-14.4" class="st0" width="750.6" height="741.4"/>
	<path class="st1" d="M615.7,342.6h-12.3l-56.6-139.4h24.1c8.4,0,15.1-6.7,15.1-15.1c0-8.4-6.7-15.1-15.1-15.1l-160.7,0
		c-6.7-21.8-26.3-38.1-50.4-38.1s-44.2,16.2-50.4,38.1H148.6c-8.4,0-15.1,6.7-15.1,15.1c0,8.4,6.7,15.1,15.1,15.1h24.1l-56.6,139.4
		h-12.3c-6.2,0-10.6,5.6-10.1,11.2c5.6,51,49.3,90.7,101.9,90.7s96.3-39.8,101.9-90.7c0.6-6.2-3.9-11.2-10.1-11.2h-12.3l-57.1-139.4
		h91.3c4.5,14.6,14.6,26.3,28,32.5v303.5H250c-12.3,0-23,10.1-23,23c0,12.9,10.1,23,23,23h219.5c12.3,0,23-10.1,23-23
		c0-12.9-10.1-23-23-23h-86.8v-303c13.4-6.2,23.5-17.9,28-32.5H502l-57.1,138.9h-12.3c-6.2,0-10.6,5.6-10.1,11.2
		c5.6,51,49.3,90.7,101.9,90.7s96.3-39.8,101.9-90.7C626.3,348.2,621.8,342.6,615.7,342.6L615.7,342.6z M149.2,342.6l46.5-114.2
		l46.5,114.2H149.2z M477.3,342.6l46.5-114.2l46.5,114.2H477.3z"/>
</g>
</svg>
