<?xml version="1.0" encoding="utf-8"?>
<!-- Generator: Adobe Illustrator 27.0.1, SVG Export Plug-In . SVG Version: 6.00 Build 0)  -->
<svg version="1.1" id="Layer_1" xmlns="http://www.w3.org/2000/svg" xmlns:xlink="http://www.w3.org/1999/xlink" x="0px" y="0px"
	 viewBox="0 0 700 700" style="enable-background:new 0 0 700 700;" xml:space="preserve">
<style type="text/css">
	.st0{fill:#0174AD;}
</style>
<g>
	<path class="st0" d="M105,271.2h111l59,42.1c1.5,1.1,3.2,1.7,5.1,1.7c1.7,0,3.3-0.5,4.7-1.4c2.9-1.9,4.4-5.3,3.8-8.8l-6.6-33.6
		h15.6c7,0,13.6-2.8,18.6-7.7s7.7-11.6,7.7-18.6V105c0-7-2.8-13.6-7.7-18.6c-4.9-4.9-11.6-7.7-18.6-7.7H105c-7,0-13.6,2.8-18.6,7.7
		c-4.9,4.9-7.7,11.6-7.7,18.6v140c0,7,2.8,13.6,7.7,18.6S98.1,271.2,105,271.2L105,271.2z M96.3,105c0-4.8,3.9-8.8,8.8-8.8h192.5
		c2.3,0,4.5,0.9,6.2,2.6s2.6,3.9,2.6,6.2v140c0,2.3-0.9,4.5-2.6,6.2s-3.9,2.6-6.2,2.6h-26.2c-2.6,0-5.1,1.2-6.7,3.2
		c-1.7,2-2.3,4.7-1.8,7.3l4.4,22.1l-43.2-30.9c-1.5-1.1-3.2-1.7-5.1-1.7H105c-4.8,0-8.8-3.9-8.8-8.8L96.3,105z"/>
	<path class="st0" d="M201.3,140c7.2,0,13.1,5.9,13.1,13.1s-5.9,13.1-13.1,13.1c-4.8,0-8.8,3.9-8.8,8.8v21.9H210v-14.4
		c7.3-2.2,13.5-7,17.5-13.5c3.9-6.5,5.3-14.3,3.8-21.7c-1.5-7.5-5.7-14.1-11.8-18.7c-6.1-4.5-13.7-6.7-21.3-5.9
		c-7.6,0.7-14.6,4.3-19.7,9.9c-5.1,5.6-7.9,13-7.9,20.6h17.5C188.2,145.9,194,140,201.3,140L201.3,140z"/>
	<path class="st0" d="M192.5,210H210v17.5h-17.5V210z"/>
	<path class="st0" d="M615.8,360.1l-145.4-60.6c-4.4-1.8-9.5,0.3-11.4,4.7l-47.8,114.6v-60.1c0-2.3-0.9-4.5-2.6-6.2
		s-3.9-2.6-6.2-2.6H245c-4.8,0-8.8,3.9-8.8,8.8V595c0,7,2.8,13.6,7.7,18.6s11.6,7.7,18.6,7.7h161.9c8.1,0,15.9-3.2,21.7-9
		c5.7-5.7,9-13.5,9-21.7v-3.7l76.7,31.9c7.5,3.1,15.9,3.2,23.4,0.1c7.5-3.1,13.5-9,16.6-16.5l28.6-68.7c0.9-2.1,0.9-4.6,0-6.7
		c-0.9-2.2-2.6-3.9-4.7-4.8l-32.3-13.5l57.1-137.3l0,0C622.4,367.1,620.3,362,615.8,360.1L615.8,360.1z M262.5,603.7
		c-4.8,0-8.8-3.9-8.8-8.8V367.5h140v223.1c0,4.6,1.1,9,3.1,13.1L262.5,603.7z M437.5,590.6c0,7.2-5.9,13.1-13.1,13.1
		s-13.1-5.9-13.1-13.1V525h26.2V590.6z M580.8,535.1l-25.2,60.6c-1.3,3.2-3.9,5.8-7.1,7.1c-5,2.3-10.9,1.2-14.8-2.7
		c-3.9-3.9-5-9.8-2.7-14.8l25.6-60.3L580.8,535.1z M515.2,578.8c-1.7,4.3-2.4,8.8-2.2,13.4L455,568v-51.7c0-2.3-0.9-4.5-2.6-6.2
		s-3.9-2.6-6.2-2.6h-35v-43.1L471.8,319L601,372.9L515.2,578.8z"/>
	<path class="st0" d="M348.5,448.5l-24.8,24.8L299,448.5l-12.3,12.3l24.8,24.8l-24.8,24.8l12.3,12.3l24.8-24.8l24.8,24.8l12.3-12.3
		l-24.8-24.8l24.8-24.8L348.5,448.5z"/>
	<path class="st0" d="M450.2,432.4l13.6,32.4c1.9,4.4,6.9,6.5,11.4,4.7l72.9-30l-6.7-16.1l-64.7,26.2l-10.1-24.2L450.2,432.4z"/>
</g>
</svg>
