<?xml version="1.0" encoding="utf-8"?>
<!-- Generator: Adobe Illustrator 27.0.1, SVG Export Plug-In . SVG Version: 6.00 Build 0)  -->
<svg version="1.1" id="Layer_1" xmlns="http://www.w3.org/2000/svg" xmlns:xlink="http://www.w3.org/1999/xlink" x="0px" y="0px"
	 viewBox="0 0 700 700" style="enable-background:new 0 0 700 700;" xml:space="preserve">
<style type="text/css">
	.st0{fill:#0174AD;}
</style>
<g>
	<path class="st0" d="M519.9,334.4l-15.5-15.5L492,331.3l21.6,21.7l0,0c1.6,1.7,3.9,2.6,6.2,2.6s4.6-0.9,6.2-2.6l49.4-49.5
		l-12.3-12.3L519.9,334.4z"/>
	<path class="st0" d="M196.1,194.2l24.8-24.8l24.8,24.8l12.3-12.3l-24.7-24.8l24.7-24.8L245.6,120l-24.8,24.8L196.1,120l-12.3,12.3
		l24.8,24.8l-24.8,24.8L196.1,194.2z"/>
	<path class="st0" d="M227.5,218.3h61.2v17.5h-61.2L227.5,218.3L227.5,218.3z"/>
	<path class="st0" d="M183.8,253.3h105v17.5h-105L183.8,253.3L183.8,253.3z"/>
	<path class="st0" d="M405.8,357.6c-1.8-19.3-7.1-38.2-15.7-55.7c-1.5-3-4.5-4.9-7.9-4.9h-49.8V139.6c0-2-0.7-4-2-5.6l-43.8-52.5
		c-1.7-2-4.1-3.2-6.7-3.1H148.8c-4.8,0-8.8,3.9-8.8,8.8v210h-36.8c-3.3,0-6.4,1.9-7.9,4.9c-12.7,26-18.2,54.8-16.1,83.6
		c2.1,28.8,11.9,56.5,28.2,80.4c15.6,21.8,27.4,46.1,35,71.8c14.7,53.4,12.2,81.9,12.2,82.2l17.5,1.8c0-1.2,2.9-31.6-12.9-88.6
		c-8.1-27.6-20.7-53.6-37.5-77c-28.6-41.7-33.5-95.3-12.9-141.5h267.9c6.6,14.8,10.6,30.6,11.9,46.7c0.1,1.5,0.7,2.9,1.5,4.1
		l31.1,46.9h-23.3c-4.8,0-8.8,3.9-8.8,8.8v24.8c-1.4-0.1-2.8-0.1-4.2,0c-12.5,0-24.1,6.7-30.3,17.5c-6.2,10.8-6.2,24.2,0,35
		c6.3,10.8,17.8,17.5,30.3,17.5c1.4,0.1,2.8,0.1,4.2,0v17.5c0,3.9-1.5,7.6-4.3,10.3c-2.7,2.7-6.5,4.3-10.3,4.3h-73.2v17.5h25.8v55.4
		h17.5v-55.7h29.9l0,0c8.4,0,16.6-3.4,22.6-9.3c6-5.9,9.4-14,9.6-22.5v-29.7c0-3.1-1.7-6-4.4-7.6c-2.7-1.6-6-1.6-8.8,0
		c-2.6,1.5-5.6,2.3-8.6,2.3c-6.3,0-12-3.3-15.2-8.8s-3.1-12.1,0-17.5s8.9-8.8,15.2-8.8c3.1,0,6.1,0.7,8.8,2.2c2.7,1.6,6,1.6,8.7,0
		c2.7-1.5,4.4-4.4,4.4-7.5V430h30.6c3.2,0,6.2-1.8,7.7-4.6c1.4-2.8,1.3-6.1-0.4-8.8L405.8,357.6z M288.8,111.2l16.3,19.6h-16.3
		V111.2z M315,297.1H157.5V95.8h113.8v43.7c0,2.3,0.9,4.5,2.6,6.2c1.6,1.6,3.9,2.6,6.2,2.6h35v148.8H315z"/>
	<path class="st0" d="M183.8,218.3H210v17.5h-26.2V218.3z"/>
	<path class="st0" d="M533.8,235.8c-23.2,0-45.5,9.2-61.9,25.6s-25.6,38.7-25.6,61.9c-0.1,28.6,13.9,55.3,37.4,71.6l-11.1,49
		c-0.8,3.7,0.8,7.5,4.1,9.4c1.4,0.8,3,1.3,4.6,1.2c2.1,0,4.2-0.8,5.8-2.2l46.7-41.6c31.3,0,60.1-16.7,75.8-43.8s15.6-60.4,0-87.5
		S565,235.8,533.8,235.8L533.8,235.8z M533.8,393.3H531c-2.3-0.1-4.5,0.8-6.1,2.3l-29.1,26.2l6.3-28.5c0.8-3.7-0.8-7.5-4-9.4
		c-10.5-6.2-19.2-15-25.2-25.7c-6-10.6-9.1-22.7-9-34.9c0-18.6,7.4-36.4,20.5-49.5s30.9-20.5,49.5-20.5s36.4,7.4,49.5,20.5
		s20.5,30.9,20.5,49.5s-7.4,36.4-20.5,49.5C570.1,385.9,552.3,393.3,533.8,393.3L533.8,393.3z"/>
</g>
</svg>
