<?xml version="1.0" encoding="utf-8"?>
<!-- Generator: Adobe Illustrator 27.0.1, SVG Export Plug-In . SVG Version: 6.00 Build 0)  -->
<svg version="1.1" id="Layer_1" xmlns="http://www.w3.org/2000/svg" xmlns:xlink="http://www.w3.org/1999/xlink" x="0px" y="0px"
	 viewBox="0 0 700 700" style="enable-background:new 0 0 700 700;" xml:space="preserve">
<style type="text/css">
	.st0{fill:#0174AD;}
</style>
<g>
	<path class="st0" d="M436.5,157.5H279c-4.8,0-8.8,3.9-8.8,8.8v105c0,2.3,0.9,4.5,2.6,6.2s3.9,2.6,6.2,2.6h157.5
		c2.3,0,4.5-0.9,6.2-2.6s2.6-3.9,2.6-6.2v-105c0-2.3-0.9-4.5-2.6-6.2C441,158.4,438.8,157.5,436.5,157.5z M427.7,262.5h-140V175h140
		V262.5z"/>
	<path class="st0" d="M322.7,341.2h122.5v17.5H322.7V341.2z"/>
	<path class="st0" d="M270.2,341.2h35v17.5h-35V341.2z"/>
	<path class="st0" d="M270.2,393.7h175v17.5h-175V393.7z"/>
	<path class="st0" d="M506.5,78.7H209c-4.8,0-8.8,3.9-8.8,8.8v311.9c-6.4,2.2-11.7,6.9-14.7,12.9l-85.5,171
		c-4.1,8.1-3.6,17.8,1.2,25.6c4.8,7.7,13.3,12.4,22.4,12.4h170.8c9.1,0,17.6-4.7,22.4-12.4s5.2-17.4,1.2-25.6l-16-32h248.3
		c13.9,0,27.3-5.5,37.1-15.4c9.8-9.8,15.4-23.2,15.4-37.1V367.5c0-2.3-0.9-4.5-2.6-6.2s-3.9-2.6-6.2-2.6h-78.8V87.5
		c0-2.3-0.9-4.5-2.6-6.2C511,79.7,508.8,78.8,506.5,78.7L506.5,78.7z M302.2,591.1c1.4,2.8,1.3,6.1-0.4,8.8
		c-1.6,2.6-4.4,4.1-7.4,4.1H123.6c-3,0-5.8-1.6-7.4-4.1c-1.6-2.7-1.6-6,0-8.8l85-171.1c1.5-2.9,4.5-4.8,7.8-4.8s6.3,1.8,7.8,4.8
		L302.2,591.1z M293.5,533.7l-61.1-121.4c-3-6.1-8.3-10.7-14.7-12.9V96.2h280v402.5c0,12.9,4.8,25.4,13.4,35H293.5z M585.2,376.2
		v122.5c0,9.3-3.6,18.2-10.2,24.8c-6.6,6.6-15.5,10.3-24.8,10.3s-18.2-3.7-24.8-10.3s-10.3-15.5-10.2-24.9V376.2H585.2z"/>
	<path class="st0" d="M204.6,542.5h8.8l13.1-61.3h-35L204.6,542.5z"/>
	<path class="st0" d="M222.1,573.1c0,7.2-5.9,13.1-13.1,13.1s-13.1-5.9-13.1-13.1S201.7,560,209,560S222.1,565.9,222.1,573.1"/>
</g>
</svg>
