<?xml version="1.0" encoding="utf-8"?>
<!-- Generator: Adobe Illustrator 26.3.1, SVG Export Plug-In . SVG Version: 6.00 Build 0)  -->
<svg version="1.1" id="Camada_1" xmlns="http://www.w3.org/2000/svg" xmlns:xlink="http://www.w3.org/1999/xlink" x="0px" y="0px"
	 viewBox="0 0 1457.26 365.89" style="enable-background:new 0 0 1457.26 365.89;" xml:space="preserve">
<style type="text/css">
	.st0{fill:#585857;}
	.st1{fill:#009741;}
	.st2{fill:#FEC90A;}
	.st3{fill:#293278;}
	.st4{fill:#FFFFFF;}
	.st5{fill:none;}
</style>
<path class="st0" d="M206.24,163.17h-11.09V99.29c0-5.05,0.31-11.22,0.93-18.53h-0.26c-1.07,4.29-2.03,7.37-2.86,9.23l-32.54,73.18
	h-5.45l-32.47-72.64c-0.93-2.13-1.88-5.38-2.86-9.76h-0.26c0.35,3.81,0.53,10.03,0.53,18.66v63.74h-10.76V67.94h14.74l29.21,66.4
	c2.26,5.09,3.72,8.9,4.39,11.42h0.39c1.9-5.23,3.43-9.12,4.58-11.69l29.82-66.14h13.94V163.17z"/>
<polygon class="st0" points="246.42,67.94 246.42,77.5 237.13,77.5 237.13,153.61 246.42,153.61 246.42,163.17 216.68,163.17 
	216.68,153.61 225.97,153.61 225.97,77.5 216.68,77.5 216.68,67.94 "/>
<path class="st0" d="M333.75,163.17h-13.68l-49-75.9c-1.24-1.9-2.26-3.89-3.06-5.97h-0.39c0.36,2.03,0.53,6.39,0.53,13.07v68.8H257
	V67.94h14.48l47.68,74.7c1.98,3.1,3.28,5.22,3.85,6.38h0.26c-0.44-2.75-0.66-7.41-0.66-14.01V67.94h11.15V163.17z"/>
<polygon class="st0" points="374.01,67.94 374.01,77.5 364.71,77.5 364.71,153.61 374.01,153.61 374.01,163.17 344.26,163.17 
	344.26,153.61 353.56,153.61 353.56,77.5 344.26,77.5 344.26,67.94 "/>
<path class="st0" d="M380.13,159.32v-13.15c1.5,1.32,3.3,2.52,5.41,3.59c2.1,1.06,4.32,1.95,6.64,2.68c2.33,0.74,4.66,1.3,7.01,1.7
	c2.35,0.4,4.52,0.6,6.51,0.6c6.86,0,11.99-1.27,15.37-3.82c3.39-2.54,5.07-6.2,5.07-10.99c0-2.57-0.56-4.8-1.68-6.71
	c-1.13-1.9-2.7-3.64-4.69-5.21c-2-1.58-4.34-3.09-7.07-4.52c-2.73-1.43-5.66-2.95-8.8-4.55c-3.33-1.68-6.43-3.39-9.3-5.12
	c-2.88-1.73-5.38-3.63-7.5-5.7c-2.13-2.08-3.8-4.44-5.02-7.07c-1.21-2.63-1.83-5.73-1.83-9.27c0-4.34,0.96-8.11,2.86-11.31
	c1.91-3.22,4.41-5.86,7.51-7.93c3.09-2.08,6.62-3.63,10.58-4.66c3.97-1.02,8.01-1.52,12.12-1.52c9.38,0,16.22,1.13,20.52,3.38v12.56
	c-5.62-3.89-12.83-5.84-21.65-5.84c-2.44,0-4.87,0.26-7.3,0.76c-2.44,0.51-4.6,1.35-6.51,2.49c-1.91,1.16-3.45,2.63-4.64,4.45
	c-1.21,1.82-1.8,4.04-1.8,6.64c0,2.44,0.46,4.54,1.36,6.31c0.91,1.77,2.24,3.39,4.02,4.85c1.76,1.46,3.92,2.88,6.46,4.25
	c2.54,1.37,5.48,2.88,8.8,4.52c3.41,1.68,6.65,3.45,9.7,5.31c3.05,1.86,5.73,3.92,8.04,6.17c2.3,2.26,4.12,4.76,5.48,7.51
	c1.35,2.74,2.03,5.89,2.03,9.43c0,4.69-0.92,8.67-2.76,11.93c-1.84,3.25-4.31,5.89-7.43,7.93c-3.13,2.03-6.73,3.5-10.8,4.41
	s-8.37,1.37-12.88,1.37c-1.51,0-3.37-0.12-5.58-0.37c-2.22-0.24-4.48-0.59-6.77-1.06c-2.3-0.46-4.48-1.04-6.54-1.73
	C383.02,160.92,381.36,160.16,380.13,159.32"/>
<polygon class="st0" points="507.83,78.04 480.33,78.04 480.33,163.17 469.18,163.17 469.18,78.04 441.76,78.04 441.76,67.95 
	507.83,67.95 "/>
<path class="st0" d="M558.44,37.47l-17.4,21.78h-8.43l14.81-21.78H558.44z M568.07,163.17H517.6V67.94h48.34v10.09h-37.18v31.68
	h34.4v10.03h-34.4v33.33h39.31V163.17z"/>
<path class="st0" d="M592.38,78.04v34.54h15.14c2.79,0,5.36-0.42,7.73-1.27c2.38-0.84,4.42-2.05,6.15-3.62
	c1.72-1.57,3.08-3.5,4.04-5.78c0.97-2.28,1.46-4.83,1.46-7.66c0-5.1-1.65-9.07-4.94-11.93c-3.31-2.85-8.07-4.29-14.31-4.29H592.38z
	 M649.49,163.17h-13.28l-15.94-26.69c-1.46-2.49-2.88-4.59-4.25-6.34c-1.37-1.75-2.78-3.19-4.22-4.29
	c-1.43-1.11-2.98-1.92-4.65-2.43c-1.65-0.5-3.52-0.76-5.61-0.76h-9.16v40.5h-11.16V67.94h28.42c4.16,0,8,0.52,11.52,1.56
	c3.52,1.05,6.57,2.63,9.16,4.75c2.6,2.13,4.62,4.77,6.08,7.93c1.47,3.17,2.19,6.87,2.19,11.12c0,3.32-0.49,6.37-1.49,9.13
	c-1,2.76-2.41,5.23-4.24,7.4c-1.84,2.17-4.06,4.02-6.65,5.54c-2.59,1.53-5.51,2.71-8.73,3.55v0.27c1.59,0.7,2.98,1.51,4.15,2.42
	c1.17,0.91,2.29,1.98,3.35,3.22c1.06,1.24,2.11,2.64,3.15,4.21c1.05,1.57,2.2,3.4,3.48,5.48L649.49,163.17z"/>
<polygon class="st0" points="677.86,67.94 677.86,77.5 668.56,77.5 668.56,153.61 677.86,153.61 677.86,163.17 648.11,163.17 
	648.11,153.61 657.4,153.61 657.4,77.5 648.11,77.5 648.11,67.94 "/>
<path class="st0" d="M727.47,76.44c-10.01,0-18.12,3.61-24.37,10.82c-6.24,7.22-9.37,16.69-9.37,28.42
	c0,11.74,3.05,21.18,9.13,28.32c6.09,7.15,14.03,10.72,23.81,10.72c10.45,0,18.68-3.41,24.7-10.22c6.02-6.82,9.03-16.35,9.03-28.61
	c0-12.58-2.92-22.3-8.77-29.15C745.8,79.88,737.73,76.44,727.47,76.44 M726.67,164.76c-13.5,0-24.31-4.45-32.43-13.35
	c-8.13-8.89-12.2-20.47-12.2-34.73c0-15.31,4.14-27.53,12.42-36.65c8.28-9.12,19.55-13.68,33.8-13.68
	c13.15,0,23.74,4.42,31.78,13.28c8.03,8.86,12.04,20.44,12.04,34.73c0,15.54-4.11,27.82-12.35,36.86
	C751.5,160.25,740.48,164.76,726.67,164.76"/>
<path class="st0" d="M828.89,78.04v75.04h14.22c12.48,0,22.19-3.35,29.15-10.03c6.95-6.68,10.43-16.15,10.43-28.42
	c0-24.39-12.97-36.59-38.92-36.59H828.89z M817.73,163.17V67.94h26.3c33.56,0,50.34,15.47,50.34,46.41
	c0,14.71-4.66,26.52-13.97,35.43c-9.32,8.92-21.8,13.38-37.43,13.38H817.73z"/>
<path class="st0" d="M955.4,126.44l-14.94-40.57c-0.5-1.33-0.98-3.45-1.46-6.38h-0.27c-0.44,2.71-0.95,4.83-1.52,6.38l-14.81,40.57
	H955.4z M981.49,163.17h-12.35l-10.09-26.69h-40.37l-9.49,26.69h-12.42l36.52-95.22h11.56L981.49,163.17z"/>
<path class="st0" d="M567.35,294.85V273.6c3.85,3.24,8.04,5.65,12.55,7.27c4.51,1.62,9.07,2.43,13.67,2.43
	c2.71,0,5.06-0.25,7.07-0.73c2.02-0.48,3.7-1.16,5.05-2.03c1.35-0.86,2.36-1.88,3.02-3.06c0.67-1.17,0.99-2.44,0.99-3.82
	c0-1.86-0.53-3.52-1.59-4.98c-1.07-1.46-2.52-2.81-4.35-4.05c-1.84-1.24-4.01-2.44-6.54-3.59c-2.52-1.15-5.25-2.32-8.16-3.51
	c-7.44-3.1-12.99-6.89-16.64-11.36c-3.64-4.47-5.48-9.86-5.48-16.2c0-4.95,1.01-9.22,3-12.78c1.99-3.56,4.7-6.49,8.13-8.8
	c3.44-2.3,7.41-3.99,11.92-5.08c4.52-1.08,9.29-1.63,14.35-1.63c4.96,0,9.35,0.3,13.18,0.91c3.83,0.59,7.36,1.51,10.6,2.75v19.85
	c-1.59-1.1-3.33-2.08-5.21-2.92c-1.89-0.84-3.82-1.54-5.81-2.09c-1.99-0.56-3.98-0.97-5.94-1.24c-1.97-0.26-3.84-0.39-5.62-0.39
	c-2.44,0-4.65,0.23-6.64,0.69c-2,0.47-3.68,1.12-5.05,1.97c-1.37,0.83-2.44,1.84-3.19,3.02c-0.76,1.17-1.13,2.49-1.13,3.94
	c0,1.59,0.42,3.03,1.26,4.29c0.83,1.27,2.03,2.46,3.58,3.59c1.54,1.13,3.43,2.24,5.65,3.32c2.21,1.08,4.71,2.2,7.5,3.35
	c3.8,1.59,7.22,3.29,10.25,5.08c3.04,1.79,5.64,3.82,7.8,6.08c2.17,2.26,3.83,4.84,4.99,7.74c1.15,2.9,1.73,6.27,1.73,10.13
	c0,5.31-1.01,9.77-3.03,13.38c-2.01,3.61-4.75,6.52-8.2,8.76c-3.45,2.24-7.47,3.84-12.05,4.82c-4.59,0.97-9.42,1.46-14.51,1.46
	c-5.22,0-10.19-0.45-14.91-1.33C574.88,297.95,570.8,296.62,567.35,294.85"/>
<path class="st0" d="M691.47,260.86l-10.22-32.01c-0.75-2.38-1.29-5.24-1.59-8.56h-0.53c-0.22,2.79-0.78,5.55-1.66,8.3l-10.36,32.28
	H691.47z M726.53,298.5h-23.37l-6.78-21.18h-33.86l-6.71,21.18h-23.23l34.66-95.22h25.43L726.53,298.5z"/>
<path class="st0" d="M794.6,173l-20.78,21.45h-15.14L775.94,173H794.6z M810.87,257.27c0,28.59-13.32,42.9-39.97,42.9
	c-25.86,0-38.79-13.97-38.79-41.9v-54.98h21.52v55.25c0,15.41,6.02,23.1,18.05,23.1c11.82,0,17.73-7.43,17.73-22.31v-56.04h21.45
	V257.27z"/>
<path class="st0" d="M847.87,220.74v60.36h10.63c9.29,0,16.58-2.79,21.87-8.37c5.29-5.57,7.94-13.17,7.94-22.77
	c0-9.07-2.63-16.21-7.87-21.42c-5.25-5.2-12.61-7.8-22.08-7.8H847.87z M826.42,298.5v-95.22h33.74c33.82,0,50.73,15.47,50.73,46.41
	c0,14.84-4.61,26.68-13.84,35.53c-9.24,8.86-21.54,13.28-36.88,13.28H826.42z"/>
<polygon class="st0" points="978.63,298.5 921.52,298.5 921.52,203.28 976.43,203.28 976.43,220.74 942.97,220.74 942.97,241.92 
	974.11,241.92 974.11,259.32 942.97,259.32 942.97,281.1 978.63,281.1 "/>
<rect x="1071.53" y="66.56" class="st1" width="328.13" height="232.44"/>
<polygon class="st2" points="1235.54,94.28 1099.04,182.76 1235.54,271.24 1372.04,182.76 "/>
<path class="st3" d="M1236.4,125.3c32.15,0,58.22,26.08,58.22,58.22c0,32.15-26.08,58.21-58.22,58.21
	c-32.15,0-58.22-26.07-58.22-58.21C1178.18,151.38,1204.25,125.3,1236.4,125.3"/>
<polygon class="st4" points="1252.02,164.75 1249.79,164.89 1251.5,166.31 1250.96,168.47 1252.83,167.28 1254.71,168.47 
	1254.17,166.31 1255.88,164.89 1253.66,164.75 1252.83,162.68 "/>
<polygon class="st4" points="1249.34,178.52 1247.74,178.62 1248.98,179.64 1248.58,181.19 1249.93,180.34 1251.28,181.19 
	1250.89,179.64 1252.12,178.62 1250.53,178.52 1249.93,177.03 "/>
<polygon class="st4" points="1188.18,171.96 1185.96,172.1 1187.68,173.52 1187.12,175.68 1189,174.49 1190.88,175.68 
	1190.33,173.52 1192.05,172.1 1189.83,171.96 1189,169.89 "/>
<polygon class="st4" points="1213.73,184.62 1211.85,184.74 1213.31,185.94 1212.84,187.76 1214.43,186.76 1216.01,187.76 
	1215.55,185.94 1216.99,184.74 1215.12,184.62 1214.43,182.88 "/>
<polygon class="st4" points="1198.59,193.1 1197.4,193.17 1198.32,193.94 1198.02,195.09 1199.04,194.46 1200.04,195.09 
	1199.75,193.94 1200.68,193.17 1199.48,193.1 1199.04,191.99 "/>
<polygon class="st4" points="1193.26,196.21 1191.04,196.35 1192.76,197.77 1192.21,199.93 1194.08,198.73 1195.97,199.93 
	1195.41,197.77 1197.12,196.35 1194.91,196.21 1194.08,194.14 "/>
<polygon class="st4" points="1186.76,201.39 1184.88,201.5 1186.34,202.7 1185.87,204.52 1187.45,203.52 1189.04,204.52 
	1188.58,202.7 1190.02,201.5 1188.15,201.39 1187.45,199.64 "/>
<polygon class="st4" points="1204.64,201.83 1202.76,201.95 1204.21,203.15 1203.75,204.97 1205.34,203.97 1206.93,204.97 
	1206.46,203.15 1207.9,201.95 1206.03,201.83 1205.34,200.08 "/>
<polygon class="st4" points="1203.49,208.22 1201.88,208.32 1203.12,209.34 1202.72,210.89 1204.07,210.04 1205.42,210.89 
	1205.03,209.34 1206.26,208.32 1204.67,208.22 1204.07,206.73 "/>
<polygon class="st4" points="1211.77,213.84 1209.55,213.98 1211.27,215.4 1210.72,217.56 1212.59,216.36 1214.48,217.56 
	1213.92,215.4 1215.64,213.98 1213.42,213.84 1212.59,211.77 "/>
<polygon class="st4" points="1234.96,228.31 1234.11,228.37 1234.77,228.91 1234.55,229.75 1235.28,229.29 1236.01,229.75 
	1235.79,228.91 1236.45,228.37 1235.59,228.31 1235.28,227.52 "/>
<polygon class="st4" points="1235.45,191.57 1233.57,191.68 1235.02,192.89 1234.56,194.7 1236.14,193.7 1237.73,194.7 
	1237.27,192.89 1238.71,191.68 1236.83,191.57 1236.14,189.82 "/>
<polygon class="st4" points="1240.7,196.48 1238.82,196.6 1240.28,197.8 1239.81,199.62 1241.4,198.62 1242.98,199.62 
	1242.52,197.8 1243.96,196.6 1242.09,196.48 1241.4,194.73 "/>
<polygon class="st4" points="1232.65,201.34 1231.45,201.42 1232.37,202.18 1232.07,203.35 1233.09,202.7 1234.1,203.35 
	1233.8,202.18 1234.73,201.42 1233.54,201.34 1233.09,200.23 "/>
<polygon class="st4" points="1228.67,197.38 1227.07,197.48 1228.3,198.51 1227.91,200.06 1229.25,199.2 1230.61,200.06 
	1230.21,198.51 1231.45,197.48 1229.85,197.38 1229.25,195.89 "/>
<polygon class="st4" points="1234.84,208.71 1232.61,208.85 1234.33,210.27 1233.78,212.44 1235.66,211.24 1237.53,212.44 
	1236.99,210.27 1238.7,208.85 1236.47,208.71 1235.66,206.64 "/>
<polygon class="st4" points="1247.36,215.31 1245.76,215.42 1247,216.44 1246.6,217.99 1247.95,217.14 1249.31,217.99 
	1248.91,216.44 1250.14,215.42 1248.55,215.31 1247.95,213.82 "/>
<polygon class="st4" points="1251.97,222.27 1250.09,222.39 1251.54,223.59 1251.08,225.4 1252.67,224.41 1254.25,225.4 
	1253.78,223.59 1255.22,222.39 1253.35,222.27 1252.67,220.52 "/>
<polygon class="st4" points="1257.31,216.77 1255.71,216.87 1256.95,217.89 1256.55,219.44 1257.9,218.58 1259.26,219.44 
	1258.85,217.89 1260.09,216.87 1258.5,216.77 1257.9,215.28 "/>
<polygon class="st4" points="1264.16,227.04 1262.56,227.14 1263.79,228.16 1263.4,229.71 1264.74,228.86 1266.1,229.71 
	1265.7,228.16 1266.94,227.14 1265.34,227.04 1264.74,225.55 "/>
<polygon class="st4" points="1264.13,220.88 1262.25,220.99 1263.7,222.19 1263.23,224.01 1264.82,223.01 1266.41,224.01 
	1265.94,222.19 1267.38,220.99 1265.51,220.88 1264.82,219.13 "/>
<polygon class="st4" points="1264.07,215.43 1262.47,215.54 1263.7,216.56 1263.32,218.1 1264.66,217.25 1266.02,218.1 
	1265.61,216.56 1266.85,215.54 1265.25,215.43 1264.66,213.94 "/>
<polygon class="st4" points="1269.74,215.49 1268.14,215.59 1269.38,216.62 1268.98,218.16 1270.33,217.31 1271.68,218.16 
	1271.29,216.62 1272.52,215.59 1270.93,215.49 1270.33,214 "/>
<polygon class="st4" points="1275,212.92 1273.12,213.05 1274.58,214.24 1274.11,216.06 1275.7,215.06 1277.29,216.06 
	1276.83,214.24 1278.26,213.05 1276.39,212.92 1275.7,211.18 "/>
<polygon class="st4" points="1277.72,208.37 1275.84,208.49 1277.29,209.68 1276.83,211.5 1278.42,210.5 1280,211.5 1279.54,209.68 
	1280.98,208.49 1279.1,208.37 1278.42,206.62 "/>
<polygon class="st4" points="1275.32,202.55 1273.1,202.69 1274.82,204.11 1274.26,206.27 1276.14,205.07 1278.02,206.27 
	1277.47,204.11 1279.18,202.69 1276.96,202.55 1276.14,200.48 "/>
<polygon class="st4" points="1283.95,203.36 1282.35,203.46 1283.59,204.49 1283.2,206.03 1284.55,205.18 1285.9,206.03 
	1285.5,204.49 1286.73,203.46 1285.14,203.36 1284.55,201.87 "/>
<path class="st4" d="M1182.3,161.97c-0.75,1.89-1.41,3.82-1.97,5.81c6.82-1.04,13.78-1.59,20.87-1.59
	c34.57,0,66.31,12.93,90.89,34.3c0.58-1.93,1.08-3.91,1.47-5.92c-24.66-21.24-56.45-34.08-91.06-34.08
	C1195.65,160.48,1188.9,161,1182.3,161.97"/>
<path class="st1" d="M1189.99,164.02L1189.99,164.02c-0.06-0.63-0.56-1.1-1.2-1.04c-0.64,0.05-1.04,0.61-0.98,1.21v0.01
	c0.06,0.62,0.56,1.1,1.2,1.03C1189.65,165.19,1190.04,164.64,1189.99,164.02 M1186.99,164.3v-0.01c-0.1-1.02,0.64-1.94,1.75-2.03
	c1.12-0.11,1.99,0.64,2.08,1.67v0.01c0.1,1.03-0.64,1.94-1.75,2.04C1187.96,166.09,1187.08,165.33,1186.99,164.3"/>
<path class="st1" d="M1195.34,163.62c0.39-0.01,0.6-0.23,0.59-0.54v-0.01c-0.01-0.34-0.26-0.5-0.65-0.49l-0.79,0.04l0.05,1.04
	L1195.34,163.62z M1193.66,161.94l1.65-0.07c0.46-0.03,0.83,0.1,1.07,0.31c0.2,0.2,0.33,0.47,0.35,0.82v0.01
	c0.02,0.59-0.28,0.97-0.72,1.16l0.94,1.25l-0.94,0.04l-0.83-1.13l-0.62,0.04l0.06,1.16l-0.8,0.04L1193.66,161.94z"/>
<path class="st1" d="M1201.1,164.63c0.66,0,1.1-0.45,1.09-1.08v-0.01c0-0.64-0.44-1.1-1.09-1.09h-0.62l0.01,2.19H1201.1z
	 M1199.68,161.73h1.41c1.15-0.01,1.93,0.78,1.93,1.79v0.01c0,1.02-0.77,1.81-1.92,1.81l-1.42,0.01L1199.68,161.73z"/>
<polygon class="st1" points="1205.88,165.41 1208.64,165.52 1208.66,164.82 1206.7,164.74 1206.73,163.98 1208.44,164.04 
	1208.47,163.34 1206.77,163.27 1206.8,162.53 1208.73,162.62 1208.76,161.9 1206.04,161.79 "/>
<polygon class="st1" points="1211.48,165.69 1212.26,165.76 1212.46,163.41 1213.33,165.03 1213.36,165.03 1214.5,163.58 
	1214.3,165.93 1215.09,166 1215.39,162.39 1214.54,162.31 1213.46,163.76 1212.64,162.15 1211.78,162.08 "/>
<polygon class="st1" points="1223.38,167.08 1226.1,167.54 1226.22,166.84 1224.28,166.51 1224.41,165.77 1226.09,166.05 
	1226.21,165.35 1224.53,165.06 1224.65,164.34 1226.56,164.67 1226.68,163.96 1223.99,163.51 "/>
<path class="st1" d="M1236.35,167.97c0.39,0.1,0.67-0.08,0.75-0.38h0.01c0.09-0.34-0.1-0.6-0.5-0.69l-0.59-0.16l-0.27,1.07
	L1236.35,167.97z M1235.42,165.84l1.43,0.37c0.83,0.22,1.22,0.85,1.03,1.56v0.01c-0.21,0.8-0.95,1.07-1.74,0.86l-0.59-0.15
	l-0.27,1.05l-0.78-0.19L1235.42,165.84z"/>
<path class="st1" d="M1243.38,169.92c0.37,0.12,0.65-0.01,0.74-0.31l0.01-0.01c0.09-0.32-0.08-0.56-0.45-0.68l-0.76-0.23l-0.31,0.99
	L1243.38,169.92z M1242.38,167.76l1.58,0.5c0.44,0.14,0.74,0.37,0.9,0.67c0.13,0.25,0.15,0.56,0.04,0.88v0.01
	c-0.18,0.56-0.59,0.8-1.07,0.84l0.45,1.5l-0.89-0.29l-0.39-1.33l-0.01-0.01l-0.59-0.18l-0.34,1.1l-0.77-0.24L1242.38,167.76z"/>
<path class="st1" d="M1251.55,172.85L1251.55,172.85c0.22-0.59-0.02-1.24-0.63-1.46c-0.6-0.23-1.19,0.09-1.41,0.67l-0.01,0.01
	c-0.22,0.58,0.02,1.23,0.62,1.46C1250.73,173.74,1251.33,173.43,1251.55,172.85 M1248.72,171.78L1248.72,171.78
	c0.37-0.97,1.43-1.48,2.48-1.08c1.04,0.4,1.5,1.46,1.13,2.43v0.01c-0.36,0.96-1.43,1.47-2.46,1.07
	C1248.82,173.81,1248.36,172.75,1248.72,171.78"/>
<path class="st1" d="M1256.24,174.75L1256.24,174.75c0.42-0.95,1.49-1.4,2.5-0.96c0.59,0.27,0.89,0.59,1.1,1.03l-0.7,0.35
	c-0.15-0.32-0.33-0.54-0.72-0.72c-0.53-0.23-1.16,0.05-1.41,0.61H1257c-0.26,0.61-0.04,1.24,0.55,1.51c0.26,0.12,0.52,0.15,0.77,0.1
	l0.2-0.47l-0.73-0.32l0.27-0.64l1.44,0.64l-0.64,1.43c-0.46,0.14-1.04,0.17-1.65-0.1C1256.2,176.77,1255.81,175.73,1256.24,174.75"
	/>
<path class="st1" d="M1264.86,178.74c0.34,0.18,0.64,0.1,0.78-0.18l0.01-0.01c0.16-0.3,0.03-0.57-0.31-0.75l-0.71-0.36l-0.48,0.93
	L1264.86,178.74z M1264.23,176.44l1.48,0.75c0.41,0.21,0.67,0.48,0.77,0.81c0.09,0.27,0.05,0.57-0.1,0.87v0.01
	c-0.27,0.52-0.72,0.7-1.21,0.64l0.2,1.56l-0.83-0.42l-0.16-1.38l-0.01-0.01l-0.56-0.28l-0.52,1.03l-0.72-0.36L1264.23,176.44z"/>
<polygon class="st1" points="1269.05,183.1 1271.45,184.48 1271.79,183.85 1270.1,182.88 1270.47,182.22 1271.95,183.08 
	1272.3,182.45 1270.83,181.61 1271.19,180.97 1272.87,181.94 1273.23,181.32 1270.86,179.96 "/>
<path class="st1" d="M1275.18,186.14l0.7-0.22c0.13,0.4,0.32,0.73,0.67,0.96c0.28,0.18,0.51,0.18,0.63-0.01l0.01-0.01
	c0.11-0.17,0.06-0.32-0.37-0.79c-0.51-0.55-0.8-0.97-0.41-1.57l0.01-0.01c0.35-0.55,1.03-0.63,1.65-0.23
	c0.45,0.29,0.74,0.67,0.88,1.12l-0.67,0.27c-0.15-0.35-0.34-0.64-0.6-0.8c-0.26-0.16-0.47-0.13-0.56,0.01l-0.01,0.01
	c-0.13,0.2-0.04,0.34,0.4,0.82c0.51,0.56,0.72,1.01,0.37,1.54v0.01c-0.4,0.61-1.07,0.65-1.73,0.22
	C1275.7,187.16,1275.33,186.7,1275.18,186.14"/>
<path class="st1" d="M1280.89,189.93l0.72-0.19c0.1,0.42,0.29,0.75,0.62,0.99c0.26,0.2,0.5,0.2,0.62,0.03l0.01-0.01
	c0.12-0.16,0.08-0.32-0.33-0.8c-0.49-0.58-0.75-1.02-0.33-1.59l0.01-0.01c0.38-0.54,1.06-0.59,1.66-0.15
	c0.43,0.31,0.7,0.7,0.83,1.16l-0.69,0.26c-0.13-0.37-0.31-0.67-0.56-0.85c-0.26-0.18-0.47-0.15-0.56-0.01l-0.01,0.01
	c-0.15,0.19-0.07,0.34,0.36,0.84c0.48,0.58,0.67,1.04,0.3,1.55v0.01c-0.42,0.59-1.1,0.59-1.74,0.14
	C1281.36,190.97,1281.02,190.5,1280.89,189.93"/>
<path class="st1" d="M1289.69,194.97L1289.69,194.97c0.39-0.49,0.37-1.18-0.13-1.58c-0.51-0.4-1.17-0.28-1.56,0.2l-0.01,0.01
	c-0.39,0.49-0.35,1.18,0.15,1.57C1288.66,195.57,1289.31,195.46,1289.69,194.97 M1287.34,193.09L1287.34,193.09
	c0.65-0.81,1.81-0.97,2.69-0.27c0.86,0.69,0.98,1.85,0.34,2.66h-0.01c-0.64,0.8-1.81,0.96-2.68,0.26
	C1286.8,195.05,1286.7,193.89,1287.34,193.09"/>
<rect x="-373.01" y="37.46" class="st5" width="1772.68" height="270.72"/>
</svg>
